<?xml version="1.0" standalone="no"?>
<!DOCTYPE svg PUBLIC "-//W3C//DTD SVG 1.1//EN" "http://www.w3.org/Graphics/SVG/1.1/DTD/svg11.dtd" >
<svg xmlns="http://www.w3.org/2000/svg" xmlns:xlink="http://www.w3.org/1999/xlink" version="1.1">
<metadata></metadata>
<defs>
<font id="chunkstyle_modernregular" horiz-adv-x="1562" >
<font-face units-per-em="2048" ascent="1638" descent="-410" />
<missing-glyph horiz-adv-x="409" />
<glyph horiz-adv-x="0" />
<glyph unicode="&#xd;" horiz-adv-x="681" />
<glyph unicode=" "  horiz-adv-x="409" />
<glyph unicode="&#x09;" horiz-adv-x="409" />
<glyph unicode="&#xa0;" horiz-adv-x="409" />
<glyph unicode="!" horiz-adv-x="673" d="M53 211q0 123 67.5 194.5t190.5 69.5q115 0 181.5 -62t66.5 -175v-2q0 -135 -62.5 -193.5t-197.5 -56.5q-111 0 -178.5 58t-67.5 167zM76 1073q0 88 4 249t4 212q0 53 35 83t72.5 36t93.5 6q43 0 75.5 -2t59 -5t46 -12.5t33 -14.5t23.5 -23.5t16.5 -27.5t10.5 -37t6 -43 t7 -54t7 -62q11 -72 11 -129q0 -43 -4.5 -92t-12.5 -110.5t-12 -92.5q-2 -20 -19.5 -118.5t-17.5 -149.5q0 -12 3 -36.5t3 -39.5q0 -55 -55 -55l-127 2q-33 0 -112 10.5t-93 20.5q-57 41 -57 485z" />
<glyph unicode="&#x22;" horiz-adv-x="1040" d="M37 1419q0 92 75.5 168t168.5 76q98 0 160.5 -71t62.5 -169q0 -123 -105 -188q-18 -10 -57 -123t-68 -113q-33 0 -53 36t-28.5 80t-22.5 85t-33 51q-100 47 -100 168zM575 1430q0 96 65 164.5t159 68.5q92 0 167.5 -77t75.5 -167q0 -125 -84 -176q-27 -16 -68.5 -126.5 t-68.5 -110.5q-33 0 -63.5 111.5t-57.5 125.5q-72 37 -98.5 72t-26.5 115z" />
<glyph unicode="#" horiz-adv-x="1630" d="M49 997q0 20 2 82t2 82q0 29 19.5 46.5t58.5 23.5t64.5 8t73.5 0t50 -2q39 0 96.5 -4t96.5 -4q35 0 37 10q10 55 71.5 196.5t94.5 178.5q20 23 57 22q2 0 40 1t64.5 0t61.5 -3t54.5 -11t19.5 -21q0 -27 -35 -92.5t-39 -79.5q-14 -37 -41 -96.5t-41 -102.5l55 -6 q123 0 133 22q12 33 35 94.5t35 95t37 83t51 92.5q16 25 205 24q104 0 106 -32q0 -18 -40.5 -99.5t-47.5 -99.5q-12 -39 -82 -182q29 0 77 4t85 4q12 0 23.5 -4t18.5 -14.5t12.5 -20.5t8.5 -27.5t5 -29t3 -32t1 -28.5v-28.5v-22.5q0 -49 -16.5 -68.5t-65.5 -21.5 q-25 0 -56.5 2t-58.5 2q-14 0 -45.5 4t-48.5 4q-20 0 -35 -8q-10 -6 -32 -111q-2 -10 -21.5 -46t-17.5 -56l2 -12q2 -12 61 -13q47 0 118 2.5t116 2.5q53 0 73.5 -15.5t20.5 -66.5q0 -8 1 -43t0 -45.5t-4 -37t-10.5 -35.5t-19.5 -24.5t-32.5 -19.5t-49.5 -4q-41 0 -102.5 5 t-102.5 5q-23 0 -67.5 -3t-65.5 -3q-27 0 -46 -28t-38.5 -78t-25.5 -62q-10 -20 -26.5 -90t-41.5 -116t-66 -46q-27 0 -102.5 1t-103.5 1q-61 0 -62 39q0 41 30 107.5t74 148.5t56 111q-63 12 -160 16q-20 0 -24 -19q-16 -51 -80 -203.5t-78 -172.5q-25 -33 -215 -25 q-80 0 -80 35q0 51 55.5 183t94.5 194l-62 -6q-16 0 -36.5 3t-35.5 3q-51 0 -71.5 16t-22.5 53t0 95q0 53 10 88q6 20 29 31.5t56.5 13.5t65.5 1t68.5 -4t49.5 -3q18 0 26 4q16 6 54.5 93t38.5 107q0 33 -48 33q-23 0 -53.5 -3t-56.5 -1q-4 0 -39 -1t-60.5 0t-59.5 3 t-53.5 8t-23.5 17q-6 16 -6 32zM674 705q129 -10 160 -11q10 0 19 6.5t17.5 18.5t15.5 26.5t14 34t12.5 35.5t11.5 37.5t9 34t7 30t4 21.5q-47 4 -147 4q-25 0 -35 -8q-6 -6 -43 -103.5t-45 -125.5z" />
<glyph unicode="$" horiz-adv-x="1075" d="M37 303l2 313v14.5v18.5t1 18.5t3 18.5t6 14.5t11.5 11.5t15.5 3q168 0 184 -2q31 -4 49.5 -36t30.5 -69t58 -66.5t124 -29.5q33 0 58.5 17.5t25.5 48.5q0 37 -33.5 66.5t-84 50t-108.5 56t-109.5 78.5t-85 125t-33.5 189q0 203 192 303q4 2 7 10t3 21.5v24.5t-1 23.5 t-1 16.5q0 29 2 46.5t16.5 32.5t43.5 15q14 0 59 3t73.5 4.5t60.5 -10t44 -34.5q6 -12 7 -28.5t-2 -35.5t-3 -28q-4 -66 52 -65q6 0 11 4t10 11t7 9q4 4 17 4h145q14 0 24.5 -14t15.5 -38.5t8 -52.5t4 -62.5t1 -59t-1 -51.5t-1 -33v-19.5v-23.5t-1 -23.5t-4 -24.5t-8 -18.5 t-14.5 -14.5t-21.5 -5q-121 0 -145.5 10.5t-38 48t-42 64.5t-96.5 23q-25 -2 -42 -26t-17 -52q0 -45 51 -80t123 -67.5t144.5 -73.5t124 -120.5t51.5 -185.5q0 -127 -55.5 -208.5t-170.5 -133.5q-8 -4 -36.5 -9t-37 -13t-9.5 -38t2.5 -71t3.5 -47q0 -12 -6.5 -22.5 t-17.5 -15.5t-22.5 -8t-29 -4t-27.5 -2t-27.5 0t-21.5 1h-88t-54.5 7t-32.5 12.5t-12.5 27t-3 38.5t4.5 58t2 78q0 18 -17.5 30.5t-34.5 12.5q-18 0 -41.5 -30.5t-56.5 -30.5q-18 0 -55 3t-55 3q-74 0 -74 94z" />
<glyph unicode="%" horiz-adv-x="1415" d="M27 1174q0 164 81.5 270t241.5 104q141 0 233.5 -94t92.5 -235.5t-101.5 -250t-240.5 -108.5q-127 0 -217 92t-90 222zM31 74q0 16 25.5 57t39.5 57q133 154 335 459t296 426q57 76 175 266.5t142 227.5q29 47 64 59t90 12q6 0 32.5 1t44 0t47.5 -2t49.5 -6t39 -12 t29.5 -20.5t10 -29.5q0 -10 -16.5 -29.5t-18.5 -23.5q-45 -88 -183 -284t-235 -319q-68 -88 -192.5 -268t-202.5 -278q-20 -25 -110.5 -171.5t-114.5 -168.5q-29 -27 -191 -27q-33 0 -49 1t-47 7t-45 22.5t-14 43.5zM225 1212q-2 -61 29 -103t92 -42q47 0 81 40t34 89 q0 61 -31 109.5t-90 48.5t-87 -40t-28 -102zM760 348q0 143 101.5 247.5t246.5 104.5q129 0 213 -87t84 -216q0 -164 -95.5 -267t-260.5 -103q-131 0 -210 94t-79 227zM954 358q0 -57 39 -99t97 -42q51 0 83.5 47.5t32.5 102.5q0 49 -33.5 92t-82.5 43q-53 0 -95.5 -44 t-40.5 -100z" />
<glyph unicode="&#x26;" horiz-adv-x="1710" d="M2 578q0 213 137 383q8 10 51 43.5t82 64.5t39 33t-18 26q-18 23 -35 84q-14 61 -14 107q0 172 118.5 254t296.5 82q27 0 55.5 -8.5t52.5 -20.5t44 -24.5t33 -20.5l10 -8q12 0 12 39q0 6 6 16q8 12 41 12q14 0 43 -3t43 -3q16 0 42 3t40.5 3t29.5 -4t22.5 -21.5 t7.5 -47.5q0 -55 -6.5 -168t-6.5 -170q0 -37 -47 -37q-123 4 -186 4q-33 0 -54.5 23.5t-31.5 51t-37 51.5t-70 24q-39 0 -62.5 -30t-23.5 -71q0 -49 27 -72.5t57.5 -27.5t57 -16.5t26.5 -38.5q0 -16 -32.5 -107.5t-42.5 -99.5q-8 -8 -54 -9q-80 0 -130 -70.5t-50 -154.5 q-2 -113 81 -190.5t198 -79.5q82 0 156.5 51t74.5 129q0 41 -29.5 65.5t-70.5 24.5q-47 0 -90 -28.5t-43 -73.5q0 -10 5 -28.5t5 -26.5l-14 -7q-68 0 -106 50.5t-38 119.5q0 57 22.5 94t71.5 85q20 18 45 32.5t43.5 23.5t51 15t48 10.5t54.5 6.5t49 3t56.5 1h50.5 q47 0 135 21.5t88 53.5q0 2 -6 7q-10 6 -27.5 14t-28 13t-22.5 15.5t-21 22.5q-27 43 -26 90q-2 82 60.5 140.5t146.5 58.5q121 0 188.5 -80t67.5 -201h2q0 -80 -34 -160.5t-91 -132.5q-8 -6 -34 -23t-50.5 -32.5t-44 -31t-19.5 -21.5l4 -8q6 -10 12.5 -24.5t12.5 -32 t11 -38t5 -38.5q0 -43 -24 -129q-55 -205 -242.5 -327t-408.5 -122q-172 0 -298 28.5t-233 116.5q-115 96 -167 209t-50 263z" />
<glyph unicode="'" horiz-adv-x="536" d="M51 1434q0 96 72 160.5t170 64.5q113 -2 176 -78.5t63 -191.5q0 -72 -35.5 -167.5t-103 -171t-141.5 -75.5q-78 0 -78 51q0 14 16.5 25.5t36 21.5t36 42t16.5 79q0 16 -5.5 21.5t-21.5 5.5q-88 0 -144.5 61t-56.5 152z" />
<glyph unicode="(" horiz-adv-x="686" d="M104 602q0 272 115 565q47 117 171 304.5t200 189.5q35 0 35 -49v-2q0 -51 -79 -226.5t-91 -226.5q-86 -350 -86 -598q0 -193 49 -444q12 -59 86 -234.5t74 -228.5q0 -47 -35 -47q-72 0 -185.5 178t-150.5 283q-102 281 -103 536z" />
<glyph unicode=")" horiz-adv-x="575" d="M16 1610q0 51 35 51q74 2 198 -186.5t171 -305.5q117 -293 117 -565q0 -258 -103 -538q-37 -104 -150.5 -282.5t-185.5 -178.5q-35 0 -35 49q0 53 74 228t86 235q49 250 49 442q0 248 -86 598q-12 51 -91 226.5t-79 226.5z" />
<glyph unicode="*" horiz-adv-x="626" d="M25 1466q0 20 14 36t34.5 16t60.5 -14.5t61 -14.5q12 0 12 39t11 79t52 40q47 0 59.5 -72t14.5 -72h4q4 0 38 20.5t52 20.5q27 0 47.5 -16.5t20.5 -45t-39 -62.5t-39 -40q0 -8 25.5 -20t50 -33.5t24.5 -52.5q0 -20 -14 -40t-35 -20q-16 0 -53 16.5t-53 16.5q-6 0 -8.5 -6 t-2.5 -16.5v-19.5t1.5 -19t1.5 -12q0 -82 -62 -82q-41 0 -54 31.5t-12 68.5t-8 43h-2q-8 0 -52 -29.5t-73 -29.5q-25 0 -41 16t-16 43q0 33 39 75t39 46t-49 40t-49 70z" />
<glyph unicode="+" horiz-adv-x="1232" d="M30 640q-1 30 0 78t1 50q0 27 15 42t44 20.5t53.5 5.5t60.5 -2.5t46 -2.5q23 0 67.5 3.5t65.5 3.5q18 0 22.5 5t4.5 21q0 45 -9.5 148.5t-9.5 140.5q0 72 135 72q20 0 61.5 -6.5t61.5 -6.5q14 0 39 3.5t39 3.5q53 0 53 -66q0 -20 -4 -77.5t-4 -76.5q0 -125 12 -139 q10 -14 78 -10q35 2 62 2q10 0 51 2t66.5 1t59.5 -6t50 -23.5t16 -47.5v-2q0 -266 -14 -270q-33 -10 -121 -10q-20 0 -79.5 -6.5t-86.5 -6.5q-6 0 -25.5 3t-31.5 1q-31 0 -31 -26q0 -14 4 -46t4 -48q0 -10 -3 -43t-3 -43q0 -14 4 -56.5t3 -63t-19 -40t-55 -19.5h-105 t-74.5 5.5t-54 8.5t-33 20.5t-20.5 28.5t-7 45t-2 59.5t4 81t1 100.5q0 31 -14.5 40t-49.5 9q-45 0 -139 -8.5t-131 -8.5q-20 0 -34.5 21.5t-18.5 63.5t-5 72z" />
<glyph unicode="," horiz-adv-x="712" d="M72 248q-2 106 78.5 179t189.5 73q125 0 194.5 -87t71.5 -216q0 -131 -95 -294t-216 -165q-29 0 -57.5 12t-28.5 39q0 20 18.5 34.5t40 26t40 45t18.5 85.5q0 25 -6.5 28.5t-28.5 3.5q-96 0 -157.5 70t-61.5 166z" />
<glyph unicode="-" horiz-adv-x="1019" d="M51 795q0 45 19.5 70.5t56.5 32.5t68.5 7t82 -4t70.5 -4q33 0 139.5 4t139.5 4q23 0 67.5 -4t67.5 -4q10 0 30.5 4t30.5 4q64 1 64 -114q0 -12 -4 -39t-2 -41q0 -10 3 -31t3 -31q0 -43 -38 -80t-75 -37l-643 -2q-18 0 -31.5 6.5t-21.5 18.5t-13.5 23.5t-6.5 32t-2 31.5 t0 32.5t1 27.5q0 14 -3 45t-3 48z" />
<glyph unicode="." horiz-adv-x="681" d="M115 244q0 94 65.5 164.5t159.5 70.5q100 0 167.5 -67.5t67.5 -165.5q0 -111 -62 -178.5t-171 -67.5q-96 0 -161.5 72.5t-65.5 171.5z" />
<glyph unicode="/" horiz-adv-x="1093" d="M2 -123q0 29 9 56.5t30.5 66.5t28.5 53q47 104 165.5 342t176.5 367q14 31 44.5 113.5t53.5 128.5q2 6 19.5 37.5t25.5 50.5q10 27 24.5 76t22.5 69q25 74 88.5 208t97.5 171q27 29 70 29q188 8 193 -52q0 -18 -10.5 -40.5t-34 -56.5t-25.5 -38q-29 -51 -63.5 -153.5 t-43.5 -122.5q-20 -47 -75.5 -155.5t-77.5 -168.5q-133 -350 -156 -405q-12 -33 -44 -100.5t-46 -104.5q-14 -39 -50 -108.5t-50 -102.5q-4 -10 -20.5 -59.5t-32 -88.5t-25.5 -47q-14 -10 -37 -14q-12 0 -35.5 3t-36.5 3q-16 0 -49 -3t-49 -3q-88 0 -88 49z" />
<glyph unicode="0" d="M45 809q0 465 334 696q193 135 381 135q115 0 206 -37.5t203 -119.5q349 -252 349 -717q0 -317 -221.5 -541.5t-538.5 -224.5q-217 0 -383 114.5t-248 297t-82 397.5zM451 811q0 -145 87 -265t228 -120q143 0 253.5 98.5t110.5 237.5h3q0 190 -88.5 310t-274.5 120 q-147 0 -232 -113.5t-87 -267.5z" />
<glyph unicode="1" d="M342 1350q0 33 10 46t36 21t40 19q76 55 131 110q4 4 25.5 36t40.5 42q27 10 131 10q18 0 72.5 2t93.5 1t69 -7q39 -6 39 -76q0 -18 -2 -58t-2 -62q2 -25 -3 -71t-5 -67q0 -59 7 -181t7 -181q0 -37 -5 -110.5t-5 -110.5q0 -35 3 -104.5t3 -104.5q0 -10 1 -17.5t2 -13.5 t4 -10t4 -7t7.5 -5t8.5 -3.5t10 -1.5h11h13.5h14.5q92 0 102 -57q14 -78 15 -274q0 -74 -13.5 -88.5t-81.5 -14.5q-27 0 -80 -5t-79 -5q-37 0 -110 4t-107 4q-25 0 -74 -4t-72 -4h-86.5t-56.5 8t-39 16.5t-16.5 37t-10.5 57.5v88q0 18 4 55t4 55q0 10 -4 30t-4 30 q0 31 41 45t91.5 20.5t62.5 16.5q18 14 18 76q0 63 -7 190t-7 193q0 18 4 59t2 63q0 68 -39 68q-20 0 -62 -8t-63 -6q-57 0 -71 28q-8 18 -15.5 103.5t-7.5 122.5z" />
<glyph unicode="2" d="M141 1010q0 268 184.5 448t454.5 180q231 0 409.5 -136t178.5 -361q0 -121 -56.5 -222.5t-137 -165t-161.5 -112.5t-137.5 -90t-56.5 -74q0 -10 4 -17t14.5 -9t17.5 -3.5t19.5 0t16.5 1.5q27 0 74 5t65 5q12 0 18.5 7t6.5 15t-1 22.5t-1 18.5q0 20 11 31.5t31.5 13.5 t39 2t43 -2t32.5 -2q20 0 64.5 4t66.5 4q37 0 54.5 -17t20.5 -30.5t0 -54.5t-3 -51q0 -57 4 -169t4 -167q0 -27 -10 -53q-18 -33 -295 -33q-27 0 -80 5t-80 5q-29 0 -86 -5t-88 -5l-512 2q-98 0 -104 14q-14 29 -14 82q0 160 38.5 290t101 214t138.5 148.5t151.5 106.5 t138 75t101.5 66.5t39 68.5q0 47 -31.5 80t-76.5 33q-78 0 -115 -58.5t-39 -138.5q0 -20 -4 -29q-10 -14 -201 -14q-20 0 -57 -6t-57 -6q-31 0 -49.5 2t-42 9t-35 25.5t-11.5 47.5z" />
<glyph unicode="3" d="M172 520v17.5v19.5t1 17.5t3 16.5t6 13t9.5 12.5t14.5 7.5t19 3q43 0 132 -1t135 -1q63 0 63 -21q0 -70 62.5 -139.5t132.5 -69.5q57 0 101 32t44 89q0 20 -5 36.5t-11.5 29t-19.5 21.5t-22.5 15.5t-29 11.5t-28.5 7t-32.5 3t-31.5 1h-32h-28q-23 0 -34 10 q-14 12 -29 260q0 35 10 58q4 10 48 17t94.5 16.5t91.5 44t41 92.5q0 49 -43 78.5t-97 29.5q-61 0 -97 -30.5t-45 -66.5t-29.5 -66.5t-57.5 -30.5t-110.5 6t-110.5 6q-47 0 -66 22q-18 20 -18 246q0 37 5 111t5 112q0 27 10 45.5t24.5 26.5t39 11t43 3t50.5 -2t48 -2 q41 0 53.5 -29.5t26.5 -29.5q10 0 33.5 13.5t29.5 15.5q123 45 260 45q199 0 355.5 -118t159.5 -308q0 -135 -72 -254q-29 -53 -76 -76q-2 -2 -10 -5t-15.5 -6t-12.5 -8.5t-5 -9.5q0 -6 11.5 -13t25.5 -14t16 -10q82 -57 131.5 -151.5t49.5 -194.5q0 -227 -154 -368.5 t-381 -141.5q-199 0 -285 25q-182 53 -288.5 192.5t-108.5 327.5z" />
<glyph unicode="4" d="M168 840q0 53 85 175t208 268.5t141 172.5q8 12 32.5 54t47.5 77t35 41t30.5 6t44 -2t33.5 -2q53 0 160 3t160 3q27 0 39 -11t13 -23.5t-2 -38t-3 -33.5q0 -88 4 -295t2 -320q0 -23 10.5 -33t19.5 -11t31.5 1t28.5 2q59 0 83 -15.5t24 -70.5q0 -324 -16.5 -331.5 t-41.5 -7.5q-23 0 -63.5 7t-61.5 7q-37 0 -49 -10.5t-12 -44.5q0 -16 15.5 -24.5t35 -8.5t42 -6.5t34.5 -18.5q16 -16 25.5 -38.5t12.5 -53.5t4 -51.5t0 -58t-1 -48.5q0 -25 -2 -43t-12.5 -29.5t-15.5 -17.5t-25.5 -8t-29.5 -3t-41 0t-46 1q-455 0 -545 2q-23 0 -34 8 t-15 20.5t-6 37.5q-4 55 -4 174q0 45 29.5 67.5t66.5 27.5t66.5 24.5t29.5 58.5q0 20 -9 33.5t-28.5 17.5t-33 5t-42 0t-36.5 -1q-20 0 -63.5 -4t-65.5 -4q-29 0 -83.5 1t-80.5 1q-55 0 -76 12q-16 10 -25.5 34t-12.5 58.5t-3 62.5t1 64.5t1 44.5q0 16 -5 48t-5 47zM635 858 q0 -14 22 -8q127 0 129 12q5 10 5 35q0 147 -15 186l-6 7q-4 0 -13 -15.5t-20.5 -33t-13.5 -21.5q-88 -127 -88 -162z" />
<glyph unicode="5" d="M162 512v18.5v20.5v18.5t2 18.5l5 15t7 14.5t11.5 10.5t15.5 7t20 2q55 0 168 -6t168 -6q20 0 32.5 -25t21 -53.5t45 -54t98.5 -25.5q68 0 117 46t49 114q2 76 -56.5 128t-136.5 52q-47 0 -75.5 -17.5t-37 -38t-27 -39t-46.5 -18.5q-57 0 -186.5 30t-147.5 60 q-6 12 -6 39q0 180 76 627q2 8 5 42t7 54.5t15 43t28 32.5q18 10 74 10q12 0 35.5 2t43 3t35.5 1q35 0 106.5 -4t108.5 -4q76 0 255 4t278 2q29 0 47 -9t24.5 -29.5t7.5 -35t-1 -46t-2 -43.5q0 -16 2 -49t2 -50q0 -39 -1 -56.5t-8.5 -47t-26 -43t-48.5 -13.5 q-27 0 -82.5 6.5t-83.5 6.5q-31 0 -92.5 -2t-94.5 -2q-29 0 -88 4t-90 4q-23 0 -35 -26.5t-12 -55.5q0 -6 17 -6q20 0 61 6t63 6q248 0 410 -143t162 -391l2 -3q0 -145 -78 -299q-92 -178 -243.5 -253.5t-366.5 -75.5q-223 0 -388 150.5t-165 371.5z" />
<glyph unicode="6" d="M117 823q0 231 96 420t287 303q182 111 356 111q78 0 151.5 -15.5t142.5 -49t111 -95t42 -145.5q0 -100 -55.5 -172t-153.5 -72q-242 0 -242 182q0 12 -25 13q-70 0 -126 -94.5t-54 -168.5q0 -43 8 -43q2 0 18.5 9.5t44 22.5t61.5 26.5t78 22.5t87 9q211 0 356.5 -140 t145.5 -351q0 -287 -178 -454t-469 -167q-174 0 -308.5 72t-214 193.5t-119.5 269t-40 313.5zM643 563q0 -74 43 -124t117 -48q74 0 125 49t53 123q0 68 -48 114t-116 46q-76 2 -125 -41t-49 -119z" />
<glyph unicode="7" d="M172 1487q0 74 48 111.5t122 37.5q27 0 82 -4t84 -4h487q37 0 111 4t110.5 4t64.5 -5t46.5 -11t29.5 -20.5t17 -25.5t8 -36t2 -41t-1 -50t-1 -54q0 -23 4.5 -68t4.5 -68q0 -45 -27 -93t-71 -104t-58 -83q-100 -170 -207 -463q-66 -184 -92 -276q-6 -18 -12 -69.5 t-16.5 -92.5t-29 -59.5t-436.5 -18.5q-104 0 -104 57q0 100 125 366.5t251 493t126 230.5q0 14 -138 14q-80 0 -88 -10q-14 -23 -14 -49.5t1 -42t-12.5 -29.5t-58.5 -19t-131 -5q-45 0 -116.5 8t-81.5 22q-29 41 -29 453z" />
<glyph unicode="8" d="M182 551q0 90 34 148.5t112 121.5q4 4 17 12.5t28.5 17.5t31 18.5t24.5 17.5t7 10q0 10 -12 20.5t-29.5 19.5t-21.5 13q-61 53 -98 136t-37 163q0 106 44 186.5t121.5 124.5t169 63t197.5 19q205 0 364.5 -111.5t161.5 -299.5q0 -88 -48 -163t-95 -116t-47 -49 q0 -2 41 -31.5t88 -66.5t59 -51q90 -115 90 -277q0 -219 -179 -354t-414 -135q-281 0 -444 149.5t-165 413.5zM598 514q0 -70 59.5 -106.5t137.5 -36.5q84 0 131 41.5t47 119.5q0 68 -52.5 109t-125.5 41q-78 0 -137.5 -48t-59.5 -120zM621 1171q0 -119 167 -122 q63 -2 104.5 34t41.5 97q-2 61 -54.5 97t-117.5 36q-61 0 -101 -42t-40 -100z" />
<glyph unicode="9" d="M115 1040q0 283 173 442.5t460 159.5q344 -2 522 -233.5t178 -585.5q0 -338 -212 -582.5t-546 -244.5q-109 0 -214 39t-182 123t-77 196q0 72 62.5 123t134.5 51q63 0 106 -19.5t64.5 -48t37 -56t38 -48t57.5 -20.5q72 0 127 87t57 165q0 35 -12 35l-12 -9 q-14 -10 -39 -23t-54.5 -26.5t-70.5 -23t-82 -9.5q-219 0 -367.5 145.5t-148.5 362.5zM580 1071q0 -68 48 -114t115 -46q76 -2 125.5 41t49.5 119q0 74 -43.5 124t-116.5 48q-74 0 -126 -50t-52 -122z" />
<glyph unicode=":" horiz-adv-x="591" d="M51 240q0 94 65.5 164.5t159.5 70.5q100 0 168 -67.5t68 -165.5q0 -111 -62.5 -178.5t-170.5 -67.5q-96 0 -162 72.5t-66 171.5zM53 993q0 96 62.5 165t158.5 69q100 -2 169 -69t69 -163v-2q0 -111 -62.5 -178t-173.5 -67q-98 0 -159.5 71.5t-63.5 173.5z" />
<glyph unicode=";" horiz-adv-x="600" d="M49 258q0 92 70.5 155.5t163.5 63.5q113 0 174 -75.5t61 -188.5v-2q0 -115 -84 -258t-190 -143q-74 0 -74 51q0 14 25.5 27.5t51 44t25.5 90.5q0 16 -5 21t-21 5q-88 0 -142.5 59.5t-54.5 149.5zM53 993q0 94 65.5 165t160.5 71q98 0 167.5 -69t71.5 -165l-2 -2 q0 -109 -62.5 -176t-168.5 -67q-98 0 -164 70.5t-68 172.5z" />
<glyph unicode="&#x3c;" horiz-adv-x="1271" d="M68 772q0 10 4 27q6 18 26.5 33.5t51 28.5t40.5 20q80 51 458 172t460 121q2 0 11 -3.5t11 -3.5q44 -34 44 -288h2q0 -70 -19 -86q-14 -16 -173 -53.5t-309.5 -73t-150.5 -52.5q0 -12 151.5 -48t310.5 -71.5t167 -45.5q20 -23 21 -78q0 -291 -39 -291q-102 0 -566.5 167 t-494.5 238q-6 20 -5 35t4 42.5t3 37.5q2 31 -3 89.5t-5 82.5z" />
<glyph unicode="=" horiz-adv-x="1245" d="M33 427v42q0 41 10 101.5t29 70.5q29 14 116.5 27.5t130.5 13.5q70 0 344.5 -13.5t344.5 -13.5q100 0 124.5 -22.5t24.5 -122.5l-2 -2q0 -209 -22 -248q-10 -16 -115 -16h-344q-27 0 -183.5 5t-183.5 5q-31 0 -92 -4t-92 -4q-25 0 -43.5 11t-26.5 30.5t-13 43t-6 48 t-1 48.5zM33 963v28q0 29 6 85.5t6 87t21 38.5q53 25 284 25h684q121 -1 121 -140v-2q0 -37 -7 -96t-7 -96q0 -27 -8.5 -44.5t-18.5 -25.5t-29.5 -13t-33 -5h-39h-35.5q-20 0 -88 -4t-86 -4l-391 2q-18 0 -54 6t-55 6q-20 2 -60 -2t-59 -4q-111 -2 -131 21.5t-20 136.5z" />
<glyph unicode="&#x3e;" horiz-adv-x="1243" d="M74 371q0 55 22 78q8 10 167 45.5t310.5 71.5t151.5 48q0 16 -151.5 51t-311.5 72t-174 54q-14 18 -14 86q0 254 43 288q16 8 20 9q84 0 462 -121t458 -172q10 -6 40.5 -19.5t52 -29t28.5 -33.5q4 -17 4 -27q0 -29 -4 -86t-4 -86q0 -10 3 -35.5t3 -46t-6 -33.5 q-31 -72 -495 -238.5t-566 -166.5q-39 0 -39 291z" />
<glyph unicode="?" horiz-adv-x="1241" d="M51 1141q0 207 161 356.5t366 149.5h38q242 0 404 -127t164 -363q0 -102 -35 -172t-83 -106.5t-97 -70.5t-84 -88t-35 -132q0 -41 -32 -60.5t-75 -19.5q-20 0 -61 5t-61 5q-14 0 -43 -3t-41 -3q-70 0 -106 18.5t-36 81.5q0 90 35 162t84 113t98.5 74.5t84 69.5t34.5 75 q0 55 -43 96t-98 41q-25 0 -72 -19.5t-47 -37.5q0 -2 12.5 -12.5t26.5 -23.5t18 -24q12 -31 13 -65q0 -98 -63.5 -158.5t-162.5 -60.5q-123 0 -193.5 88t-70.5 211zM391 244q0 94 65.5 164.5t161.5 70.5q100 0 168 -67.5t66 -165.5h2q0 -111 -62.5 -178.5t-170.5 -67.5 q-96 0 -162 72.5t-68 171.5z" />
<glyph unicode="@" horiz-adv-x="935" d="M14 713q0 170 45 275.5t177 182.5q115 70 235 70q203 -2 349.5 -146t148.5 -345q0 -61 -6.5 -103.5t-24.5 -84.5t-59 -62.5t-105 -20.5q-43 0 -72.5 16.5t-47 33t-27.5 16.5q-4 0 -28 -16.5t-61.5 -33t-76.5 -16.5q-90 0 -153.5 74t-63.5 166q-2 109 57 179.5t168 68.5 q14 0 36.5 -10.5t35.5 -10.5q14 0 26.5 16.5t24.5 16.5q25 0 44 -11.5t33.5 -34t22.5 -39.5t18.5 -48t14.5 -41q2 -6 6 -36t9 -53.5t12 -23.5q25 0 34 99q0 113 -92 197.5t-205 84.5q-131 -2 -224 -107.5t-95 -236.5q0 -106 81 -220t185 -114q35 0 106.5 23.5t98.5 23.5 q10 0 40 -63.5t30 -77.5q0 -10 -11 -20q-72 -70 -266 -70q-184 0 -302 155.5t-118 346.5zM383 733q0 -41 23.5 -66.5t64.5 -27.5q35 0 60.5 24.5t25.5 61.5q0 39 -24.5 71.5t-61.5 32.5q-35 0 -61.5 -30.5t-26.5 -65.5z" />
<glyph unicode="A" horiz-adv-x="1501" d="M10 72q0 307 13 329q2 4 50 34t74 75q29 47 55.5 139t42 167t37 194.5t27.5 152.5l-67 -2h-7q-35 1 -55 19q-22 20 -28.5 59t-6.5 73t4.5 81t4.5 63v14q0 33 1 49.5t6 42t17 38t35 21.5t57 9q16 0 51 -4t54 -4q20 0 64 5t67 5q20 0 61 -2t62 -2q35 0 113.5 8.5t119.5 8.5 q27 0 47.5 -12.5t30.5 -33t17.5 -52t13.5 -46.5q98 -225 123 -315q8 -31 18 -91.5t18 -88.5q8 -31 34 -91.5t34 -91.5q6 -18 16.5 -68t20.5 -77q8 -23 28.5 -60.5t28.5 -56.5q4 -10 6 -29.5t6.5 -35t16.5 -23.5q10 -6 37.5 -9t47 -15.5t19.5 -42.5q0 -35 2.5 -97.5t3.5 -114 t1 -96.5q0 -39 -21.5 -62.5t-60.5 -29.5t-75 -6t-84 3t-67 3q-57 0 -172 -4q-16 0 -48 -5t-48 -5q-29 0 -48.5 9t-29.5 17.5t-15 33t-6 36.5t-1 45q0 35 -7.5 102.5t-7.5 102.5q0 31 15.5 50.5t32 24.5t51.5 11q-2 8 -5.5 29.5t-7.5 35t-11 28.5t-19.5 23.5t-30.5 8.5 q-29 0 -172 -10q-37 -31 -37 -82q0 -35 13.5 -47.5t47.5 -12.5q55 0 56 -67q0 -16 -4 -45t-4 -43q0 -29 2 -73t2 -63.5t-5.5 -46t-19.5 -37t-42 -18.5t-71 -8q-25 0 -69.5 6t-69.5 6q-33 0 -94 -6t-94 -6q-2 0 -42 -1t-56.5 1t-45 8t-41 23.5t-10.5 44.5zM608 811l150 -2 q10 0 10 14l-2 2q0 47 -24.5 137.5t-55.5 90.5q-33 -2 -55.5 -96.5t-22.5 -145.5z" />
<glyph unicode="B" horiz-adv-x="1486" d="M8 109q0 4 6 243q2 68 21.5 106t77.5 38q61 0 81.5 15t22.5 71q0 16 -6 44.5t-6 43.5q0 47 5 143t5 145q0 14 5 43t5 43q0 37 -10 82q-68 10 -119 11q-45 0 -45 71v250q0 10 -2 29.5t-2 30.5q0 47 27.5 79.5t75.5 32.5l520 -2q94 0 145 -4t120 -24.5t130 -63.5 q207 -145 207 -365q0 -57 -27.5 -127.5t-50.5 -106.5t-29 -42q0 -6 5.5 -10t14.5 -8.5t11 -6.5q8 -6 36 -25.5t41 -29.5t33.5 -27.5t35 -35t24.5 -37.5q51 -88 51 -213v-2q0 -217 -147.5 -354.5t-368.5 -139.5l-426 -2q-2 0 -52 -1q-25 0 -45 -0.5t-35 0.5q-30 1 -86 3 t-93 9.5t-77 18.5t-59.5 30.5t-19.5 44.5zM625 1167q0 -19 3 -75q2 -33 2 -58q0 -16 -1 -28q41 -11 78 -11q150 0 151 97q0 55 -64.5 81.5t-127.5 26.5q-12 0 -26.5 -10t-14.5 -23zM643 492l2 -56q35 -18 74 -18q49 0 105.5 37t56.5 84h-2q0 59 -60.5 86.5t-126.5 27.5h-37 q-12 -84 -12 -144v-17z" />
<glyph unicode="C" horiz-adv-x="1327" d="M2 852q0 406 258 635q96 84 181 128t192 46q43 0 96 -14.5t92 -31t70 -30.5t33 -14q6 0 35.5 33.5t70.5 35.5q10 0 33.5 -5t36.5 -5q20 -2 57 4t55 6q20 0 32.5 -7t18 -28.5t5.5 -29.5v-37q0 -41 -8.5 -122t-8.5 -120t7.5 -114.5t7.5 -112.5q0 -121 -29 -125 q-10 -4 -41 -4q-21 0 -52 2q-77 4 -97 4q-18 0 -55.5 -3t-55.5 -3q-55 0 -86 36t-40 77t-45 75.5t-99 34.5q-59 0 -105.5 -40t-70 -101t-35 -121.5t-11.5 -116.5q0 -84 19.5 -159.5t75 -135t141.5 -59.5q57 0 92 31t43 68.5t24.5 68.5t43.5 31q25 0 73 -10.5t72 -10.5h11 q26 0 67 6q51 8 76 9q61 0 61 -108v-7v-12q0 -109 -54 -213.5t-140 -180.5q-84 -72 -169 -99.5t-202 -27.5q-147 0 -293 76q-383 199 -383 801z" />
<glyph unicode="D" horiz-adv-x="1425" d="M8 61q0 14 4 43t4 46q0 33 -3 98t-3 98q0 61 23.5 84t51.5 17.5t51.5 10t23.5 64.5q0 61 -8.5 184t-8.5 185q0 109 7 162q0 8 6 29.5t6 33.5q0 37 -23.5 51.5t-53.5 13.5t-53.5 14t-23.5 54q0 12 3 40t3 42q-4 111 -4 164q2 84 40 114.5t124 30.5q25 0 71 -7t66 -7 q109 -4 165 -6t149.5 -12.5t147.5 -25.5t129 -45t125 -71t104.5 -101t97.5 -140q110 -199 110 -406v-2q0 -76 -14 -184q-16 -102 -67.5 -213t-127 -204t-181 -153.5t-214.5 -60.5l-614 -2q-31 0 -72 17.5t-41 43.5zM563 977q0 -98 5 -281.5t5 -253.5q31 -12 66 -12 q119 0 180.5 117t61.5 248h2q0 59 -8.5 116.5t-28 123t-62.5 106.5t-104 41q-84 0 -98 -17q-18 -25 -19 -188z" />
<glyph unicode="E" horiz-adv-x="1198" d="M8 1290v10q0 16 6 44t6 38q2 15 2 35q0 25 -3 59q-5 60 -5 80q0 33 24.5 51.5t51.5 22.5t64 4q25 0 86 -6t94 -6q96 0 290.5 5t293.5 5q104 0 122 -12q33 -20 33 -117q0 -2 6 -346q0 -33 -4 -50t-21.5 -25.5t-30.5 -9.5t-50 -1q-25 0 -75 -8t-75 -8q-27 0 -45 1t-30.5 9 t-18.5 10t-9 20.5t-4 24.5t-1 36v42q-8 0 -40 4t-50 4q-23 2 -30 -13t-7 -40l-2 -174q0 -6 1 -10t3 -7.5t6 -5.5t7 -3t9 -1h9.5h10.5h9q14 0 42 4.5t42 4.5q43 0 54.5 -12.5t11.5 -53.5q0 -31 -3.5 -95.5t-3.5 -97.5q0 -18 -2 -30.5t-8 -20.5t-10 -13t-16.5 -6t-18.5 -2 t-24.5 0t-26.5 1q-14 0 -35.5 -8.5t-21.5 -18.5l-3 -188q0 -12 16.5 -19.5t29.5 -7.5q27 0 42 2t24 4t12 12.5t4.5 16.5t1.5 28.5v36.5q0 72 51 72q39 0 117.5 -1t117.5 -1q61 0 72.5 -14.5t11.5 -77.5q0 -33 -4 -96.5t-4 -94.5q0 -25 4 -73.5t4 -71.5q0 -84 -27.5 -108.5 t-113.5 -24.5q-23 0 -70 5t-71 5q-29 0 -84.5 -5t-81.5 -5q-94 0 -265.5 5t-238.5 5q-14 0 -43 -4t-43 -4q-23 0 -42.5 14.5t-19.5 36.5q0 41 1 115t2.5 135t3.5 114.5t88 53.5q18 0 29.5 17.5t14.5 48t4 56t-1 58.5t-2 37q0 43 3 127t4 127v33q0 38 -1 94l-2 37 q0 23 -17.5 29t-38 1.5t-41 6t-33 26t-17.5 39t-6 39t-1 45.5z" />
<glyph unicode="F" horiz-adv-x="1155" d="M8 1300q0 16 6 44t6 38q2 15 2 35q0 25 -3 59q-5 60 -5 80q0 33 24.5 51.5t51.5 22.5t64 4q27 0 87 -6t93 -6q111 0 317.5 7t296.5 7q96 0 120 -19.5t26 -113.5q0 -57 1 -172t1 -172l-2 2q0 -31 -5.5 -48t-7.5 -26.5t-22.5 -13.5t-26.5 -4h-45q-25 0 -76 -10t-77 -10 q-25 0 -41.5 3t-27.5 9t-17.5 16t-8.5 22.5t-3 27t-1 33v38.5q-2 0 -45 3t-63 3q-18 0 -29.5 -19.5t-13.5 -50t-1 -59t3 -59.5t2 -37q0 -12 18.5 -20.5t50 -9.5t59 -1t59.5 1t38 1q45 0 70.5 -8t37 -32.5t13.5 -45t2 -69.5v-21q0 -45 -5 -72.5t-11.5 -43t-27 -21.5t-33.5 -7 t-51 1t-60 2q-27 0 -46.5 -3t-34 -4t-23.5 -12.5t-14 -14.5t-7 -22.5t-3.5 -25.5t-1.5 -35v-39q0 -20 10.5 -33.5t33 -20.5t37 -10t46 -6.5t35.5 -3.5q59 -6 60 -225v-15q0 -92 -24 -127q-26 -38 -126 -38q-96 0 -275 5t-249 5q-16 0 -45 -5t-41 -5q-23 0 -42.5 15.5 t-19.5 37.5q0 41 1 115t2.5 135t3.5 114.5t92 53.5q16 0 26.5 18.5t13.5 49t3 56t-1 57.5t-1 36q0 43 3 127t4 127v33q0 38 -1 94l-2 37q0 23 -17.5 28t-38 1.5t-40.5 5.5q-23 10 -35.5 26.5t-16.5 45t-5 40t-1 49.5z" />
<glyph unicode="G" horiz-adv-x="1361" d="M2 856q0 381 260 614q102 90 180 132q73 40 171 40h14q55 0 121.5 -23.5t111.5 -45.5l43 -21q4 0 39 35t84 35q217 0 229 -43q25 -75 25 -487q0 -41 -9 -97.5t-30 -60.5q-10 -2 -33 -2q-31 0 -91 6t-91 6q-12 0 -40 -2t-42 -2q-53 0 -85 34t-43 73.5t-50 72.5t-109 33 q-61 0 -107 -39t-68.5 -100.5t-33 -120.5t-10.5 -117q0 -135 59.5 -233.5t186.5 -98.5q47 0 106.5 40t59.5 83q0 18 -78 20.5t-80 12.5q-13 50 -13 123q0 18 1 37q0 96 25 100q57 10 180 10q59 0 181 -6t183 -6q6 0 10.5 -14.5t4.5 -39v-47t-1 -46t-1 -27.5q0 -43 8 -126 t8 -120q0 -29 -7 -88t-7 -88q0 -25 5 -76t5 -77v-23q0 -61 -13.5 -75.5t-82.5 -14.5q-14 0 -45 4t-46 4l-137 -4l-37 106q-126 -118 -294 -118h-3q-104 0 -235 69q-104 53 -181 143.5t-119 200t-60.5 222t-18.5 233.5z" />
<glyph unicode="H" horiz-adv-x="1566" d="M8 115q0 47 1 144t1 144q0 43 142 43q20 0 31.5 19.5t12.5 53.5v33v32q-1 30 -4.5 64t-3.5 44q0 53 4.5 159.5t4.5 158.5q0 86 -19.5 108.5t-54.5 20.5t-51 18q-14 16 -18 52q-2 19 -1 45q0 22 1 48q3 58 3 62q0 31 -12 86t-12 82q0 37 27.5 57.5t73.5 26.5t89 6t94.5 -3 t67.5 -3q31 0 91.5 6t91 6t54 -4t40 -9t26.5 -18.5t15.5 -23.5t7.5 -31.5t2 -35t-1 -44t-1 -47.5q0 -170 -6 -209q-2 -8 -6.5 -13t-12.5 -6t-15 -2t-17.5 0t-12.5 1q-12 0 -20.5 -8.5t-10.5 -22.5t-2 -27.5t1 -32t1 -24.5q0 -31 7.5 -48t22.5 -22.5t30.5 -4.5t41 4.5 t42.5 3.5q20 0 57 -6.5t55 -6.5q20 0 32.5 8.5t18 28t6.5 32.5t1 36q2 31 0 44t-13.5 25.5t-38.5 12.5q-18 0 -43.5 8t-27.5 22q-4 29 -4 172v48t1 46.5t2 38t5 34.5t10 26.5t16.5 25t23.5 16.5t32.5 14t44 6t55.5 3t91.5 -5t90.5 -5q33 0 94.5 5t92.5 5q47 0 73.5 -13 t33.5 -41t9 -54v-13q0 -22 -4 -55q-4 -43 -4 -67.5t6.5 -72.5t6.5 -73q0 -55 -12.5 -72.5t-63.5 -17.5q-12 0 -19 -2q-37 0 -36 -22l-3 -154v-19q1 -74 13 -202q14 -146 14 -215q0 -55 23.5 -71.5t54.5 -16.5t41 -17q16 -28 16 -161h2q0 -94 -14 -230v-12t-1 -11t-3 -7.5 t-8 -7.5t-15 -5q-14 -4 -45 -4q-33 0 -96 5t-94 5q-55 0 -164 -7t-162 -7q-59 0 -84.5 15.5t-25.5 70.5q0 23 6 69q5 34 5 57q0 7 -1 13q0 12 -2 37t-3 44.5t-1 35.5q0 47 19.5 68.5t43 21.5t44 9.5t20.5 35.5l2 127q0 55 -103 55q-25 0 -64.5 2.5t-56 2.5t-40 -5.5 t-31.5 -19.5t-15.5 -40t-7.5 -67q0 -45 12.5 -64.5t53.5 -19.5q53 0 53 -86q0 -39 -3 -119.5t-3 -121.5v-16.5v-20.5t-1 -20.5t-4 -20.5t-7 -15.5t-10.5 -13.5t-16.5 -4q-16 0 -51 6t-53 6q-72 0 -217.5 -8t-219.5 -8q-47 0 -64.5 1t-38 11.5t-26.5 34t-6 64.5z" />
<glyph unicode="I" horiz-adv-x="917" d="M8 358q0 14 2 25.5t5 21t11.5 15.5t11.5 11t15.5 8t17.5 4t20 2t19.5 1h23h22.5q20 0 31.5 19.5t12.5 53.5v33v32q-1 30 -4 64t-3 44q0 53 4 159.5t4 160.5q0 68 -13.5 96.5t-31 27.5t-42 1t-38.5 20q-14 16 -18 52q-2 19 -1 45q0 22 1 48q3 58 3 62q0 31 -12 86t-12 84 q0 37 27.5 57.5t73.5 25.5t89 5t94.5 -3t67.5 -3q37 0 106.5 6t106.5 6q158 0 158 -80q0 -27 -5 -76t-5 -73q0 -29 5 -85.5t5 -86.5q0 -57 -34 -69.5t-62.5 -3.5t-33.5 -26v-73q0 -35 7.5 -105.5t7.5 -107.5q0 -45 -7 -132t-8 -130q0 -84 32 -117q27 -29 61 -29q5 0 10 1 q10 1 19 1q28 0 52 -12q32 -16 32 -70q0 -25 -7.5 -71.5t-7.5 -67.5q0 -23 3 -68t3 -67q0 -55 -26 -64q-29 -8 -68 -9h-20q-32 0 -70 2q-51 3 -70 3q-66 0 -198.5 -5t-200.5 -5q-63 0 -97 4t-49 26q-14 22 -16 38q-1 5 -1 15q0 19 3 55q4 54 4 87q0 20 -5 64.5t-5 66.5z" />
<glyph unicode="J" horiz-adv-x="1259" d="M8 524q0 145 91 242q89 94 229 94h6q106 0 169.5 -53t63.5 -156q0 -39 -18.5 -84t-46.5 -69q-4 -4 -19.5 -9.5t-26 -10.5t-10.5 -11q0 -16 15.5 -24.5t32.5 -6.5q66 0 105.5 75t39.5 144q0 16 -3 59q-2 25 -2 43q0 12 1 21q0 16 5 58.5t5 62.5q0 195 -12 234 q-8 16 -92 16q-12 0 -53.5 -3t-75.5 -4h-14q-29 0 -59 3q-38 4 -60.5 19.5t-22.5 43.5v320q0 80 21.5 96t107.5 16h29q55 0 144 -5q114 -7 165 -7h240q20 0 64 4t67 4q59 -2 81.5 -27.5t22.5 -84.5q0 -20 -5 -62.5t-5 -64.5q0 -25 5 -74t5 -76q0 -65 -53 -65h-2 q-37 0 -52.5 -3t-26.5 -18.5t-11 -50.5q0 -82 16 -247t16 -249q0 -141 -27.5 -250.5t-90 -195.5t-171 -131t-259.5 -45q-528 0 -529 532z" />
<glyph unicode="K" horiz-adv-x="1609" d="M8 1518q0 39 6 57t12.5 24.5t33 12.5t40.5 12q31 12 64 12q39 0 121 -9q67 -7 107 -7h16q27 0 78 6t75 6h22.5h22.5t19.5 -1t19.5 -3t15.5 -5t14.5 -9t10 -14.5t7 -19.5t2 -26q0 -18 -5 -57t-5 -59q0 -27 2 -81t2 -83q0 -33 -19.5 -48.5t-44 -15.5t-44 -8t-19.5 -28 q0 -16 1 -49t1 -50q0 -6 8 -8q23 0 33 27q12 18 42 46.5t40 39.5q84 94 154 202q23 35 60.5 107t60.5 104q25 39 114 39q23 0 66 -5t63 -5q23 0 68 4t69 4q35 0 48.5 -1t31 -8t22.5 -24.5t5 -48.5q0 -20 -5 -60t-5 -61q0 -14 2 -42.5t2 -43.5q0 -76 -24.5 -111.5 t-56.5 -35.5t-71 -3t-57 -22q-27 -27 -97.5 -103.5t-72.5 -82.5q0 -43 287 -508q4 -8 14 -13t25.5 -6t25.5 -2t26.5 0t20.5 1q73 0 73 -168q0 -34 -3 -76q-1 -8 -1 -19q0 -21 3 -52q4 -46 4 -64l2 -2q0 -23 -3 -36t-13.5 -18.5t-18.5 -6.5t-27.5 1t-31.5 2h-24q-39 0 -99 -4 q-80 -6 -117 -6h-145q-37 0 -66.5 47t-42.5 94q-10 37 -41.5 99.5t-40.5 81.5q-12 31 -37.5 105.5t-41.5 113.5q-2 4 -8.5 21.5t-11.5 30.5t-14 24.5t-18 11.5q-18 0 -87.5 -84t-69.5 -107q0 -18 36 -18q18 0 44 4q66 0 73 -219q0 -49 -10 -111q0 -4 -1 -37.5t-10 -45 t-38 -11.5h-533q-63 0 -97 39t-34 105q0 14 4 41.5t4 44.5q2 18 -3 50.5t-5 47.5q0 102 58 125q4 2 51 -4q12 0 30.5 7t18.5 17q0 27 -5 79t-5 79q0 25 5 77t5 79q0 25 -7 73.5t-7 73.5v9q0 30 10 77q12 55 12 80q0 16 -4 25.5t-17.5 13.5t-21.5 5t-27.5 0t-23.5 -1 q-74 0 -74 92q0 18 2 52t3 61.5t1 52.5q0 18 -4 55t-4 56z" />
<glyph unicode="L" horiz-adv-x="1165" d="M8 383q0 14 2 25.5t5 19.5t10.5 14.5t11.5 10.5t15 8t15.5 5t19.5 2t19.5 2t20.5 1h20q14 0 19 33q6 53 6 276q0 23 -7 67t-7 64q0 23 2 68t2 68q0 82 -15 127q-2 10 -13 13t-31.5 1t-22.5 -2q-23 0 -34 9t-13 19.5t-2 32.5q0 55 -8.5 158.5t-8.5 150.5q0 49 26 62.5 t81 13.5q29 0 86 -5t88 -5q53 0 157.5 6t155.5 6q33 0 53.5 -15t26.5 -46t7 -57v-13q0 -22 -2 -51q-3 -39 -3 -51q0 -23 5 -67t5 -66q0 -53 -16 -66.5t-68 -13.5q-34 0 -34 -234v-14q-2 -147 -2 -442q0 -84 73 -84q27 0 42.5 3t21.5 15t8 19.5t1 34t-1 38.5q0 47 59 47 q43 0 129 -3t131 -3q37 0 48.5 -17.5t11.5 -58.5q0 -18 -4 -54t-4 -54v-285q0 -64 -36 -82q-32 -17 -94 -16h-14q-31 0 -92 4t-94 4h-516q-20 0 -57 -5t-58 -5h-10q-105 0 -105 80q0 14 5.5 38.5t5.5 39.5q0 39 -11.5 115.5t-11.5 113.5z" />
<glyph unicode="M" horiz-adv-x="1931" d="M7 256q1 27 4 76t10.5 80.5t17.5 48.5q14 20 76 20q23 0 38 11.5t20 38t7 40t0 52.5v39q0 25 4 72.5t4 72.5q0 27 -6 85q-4 44 -4 72v17q0 14 1 45t1 45q0 47 -16.5 64.5t-35.5 14.5t-40.5 2t-32.5 30q-8 18 -11 64t-3 87t1 98.5t1 69.5q2 94 22.5 116.5t114.5 22.5 q358 0 473 -6q12 0 21.5 -1t16.5 -4t13.5 -5t12.5 -7t8 -8t8 -12.5t8 -12.5t9.5 -16.5t11.5 -19.5q18 -31 38.5 -102.5t45.5 -104.5q6 -10 34.5 -62t54.5 -96t30 -44q10 0 10 14q18 37 39.5 112.5t36.5 106.5q12 29 25.5 72t22.5 70.5t26.5 56t49 42t78.5 13.5q10 0 32 -4 t32 -2q199 0 297 2q27 0 84 8t90 8q12 0 21.5 -1t16.5 -4t10 -6t6 -11t3 -12.5t2 -17.5t2 -19q21 -128 21 -189h2q0 -6 1 -39.5t0 -52t-4 -47.5t-11.5 -47t-22.5 -29q-12 -10 -72 -10q-20 0 -30.5 -14.5t-11.5 -25.5t-1 -38q0 -33 4.5 -98.5t4.5 -95.5q0 -35 -4.5 -141.5 t-4.5 -166.5q0 -57 22.5 -75.5t51.5 -12t51.5 -13t22.5 -79.5q0 -41 -3 -149q-2 -64 -2 -110q0 -31 1 -54q0 -82 -138 -82q-61 0 -184 2t-184 2h-64h-22q-64 0 -76 10.5t-12 72.5v19v50q0 29 -5 86t-5 84q0 57 13 81.5t31.5 25.5t37 4t30.5 30t12 90v152q0 111 -20 110 q-27 -12 -93.5 -141t-139 -249t-119.5 -120q-39 0 -161 250t-157 250q-14 0 -14 -45q0 -20 3 -63.5t3 -65.5q0 -18 -4 -51t-4 -50q0 -12 1 -22t3 -17.5t3 -11.5t7 -8t8 -5t11.5 -2t12.5 -1h16.5h17.5q16 0 27.5 -16.5t17.5 -46t10 -62.5t5 -73t1 -68.5t-1 -61.5t-1 -39 q0 -70 -20.5 -85t-92.5 -15l-393 6q-8 0 -40.5 -1t-45 0t-39 4t-38 10.5t-27 18.5t-21.5 30.5t-6 46.5v59q-1 38 -1 63v21z" />
<glyph unicode="N" horiz-adv-x="1495" d="M8 1161q0 49 2 150.5t2 152.5q0 16 4 51t4 54q0 23 13.5 37t38 18t45 5t50.5 -1t38 -2q10 -1 22 -1q31 0 77 4q64 5 91 5h41q41 0 85 -58t92.5 -152.5t56.5 -106.5q25 -35 68.5 -109.5t68.5 -111.5q6 -6 22.5 -41t30.5 -64.5t21 -29.5q10 0 10 24v189q0 14 -2 22 t-10.5 11t-13.5 4t-19.5 0t-20.5 -1q-39 0 -57 12.5t-16 49.5q0 12 4 36.5t4 37.5q0 18 -7.5 57t-7.5 59v24q0 144 70 144q45 0 135 -4t135 -4q39 0 116 5t116 5q41 0 55 -1t31.5 -10t22 -27.5t4.5 -55.5q0 -55 -4.5 -163.5t-4.5 -162.5q0 -61 -100 -61q-23 0 -25 -12 q-16 -211 -16 -564q0 -18 5 -30.5t10 -18.5t19.5 -9t21.5 -4t26.5 0t26.5 1q20 0 31.5 -12.5t12.5 -24.5t1 -37v-8q0 -59 -5.5 -179t-5.5 -181q0 -72 -96 -72q-20 0 -63 3t-65.5 3t-71 -3t-72.5 -3q-61 0 -74 23q-51 82 -153.5 272t-165.5 289q-4 6 -24 44t-37 67.5 t-26 29.5q-14 0 -14 -78v-121q0 -43 17.5 -52t41 -8t31.5 -13q10 -16 15.5 -42t6.5 -42.5t0 -50t-1 -42.5q0 -35 10 -103.5t10 -100.5q0 -37 -19.5 -53.5t-40 -16.5t-61.5 4t-55 4q-27 0 -75 -6t-68.5 -6t-63.5 6t-65 6h-14q-27 0 -68 -5q-53 -7 -80 -7q-23 0 -36 24.5 t-17 69.5t-5 81v25q0 27 1 59q2 48 2 54q0 94 6 138q2 12 56 22t58 31q6 31 7 98v418q0 68 -17.5 88t-81.5 20q-47 0 -47 35z" />
<glyph unicode="O" horiz-adv-x="1626" d="M2 821q0 166 53.5 298t165.5 263q119 135 245 191.5t308 60.5l19 -2h11q158 0 296 -53q143 -55 233 -172q125 -164 178.5 -296t53.5 -320h-2q0 -342 -223.5 -571.5t-563.5 -229.5q-338 0 -556 244.5t-218 586.5zM451 788q0 -127 86 -235.5t213 -108.5q158 0 244.5 115 t88.5 279q0 115 -89 222t-199 107q-160 0 -252 -107.5t-92 -271.5z" />
<glyph unicode="P" horiz-adv-x="1294" d="M8 1202q0 39 6 118t6 120q0 27 -4 79t-4 78v17q0 6 14.5 12t40 8t53 4t62.5 2h59.5h51h31.5q119 0 209 -6t214.5 -25.5t219 -68.5t145.5 -125q61 -90 91 -160.5t30 -158.5h-2q0 -176 -119 -318.5t-291 -195.5q-37 -12 -103 -12h-6q-4 0 -8 1q-64 0 -98 -8q-12 -6 -10 -8 q-6 -25 -6 -49q0 -27 1 -38t6 -26.5t17.5 -21.5t34.5 -6q45 0 45 -82q-4 -85 -4 -119v-18q0 -20 2 -61.5t2 -59.5q-2 -43 -17 -59.5t-56 -16.5q-25 0 -74 5t-74 5q-53 0 -162.5 -3t-165.5 -3q-27 0 -43 9t-20 28.5t-4 36t2 44t2 40.5q0 33 -5 96t-5 94q0 78 14 92 q16 18 68 19q22 0 22 144v13q0 78 -5 229.5t-5 227.5q0 20 -2 31.5t-10.5 15.5t-14.5 4t-23.5 -1t-27.5 -1q-80 0 -80 78zM606 979q0 -27 8.5 -36t32.5 -9q70 0 124 29.5t54 95.5q-2 55 -59 86t-115 31q-29 0 -37 -10.5t-8 -39.5v-147z" />
<glyph unicode="Q" horiz-adv-x="1691" d="M2 817q0 168 53.5 300t165.5 267q117 135 252 192.5t320 57.5q367 0 540 -227q125 -160 178.5 -291t53.5 -315q0 -236 -129 -447q18 -45 66 -120.5t61 -96.5q59 -111 151 -195.5t199 -84.5q72 0 173 61.5t130 61.5q39 0 39 -109q0 -209 -164 -358.5t-375 -149.5 q-102 0 -192 49t-152.5 124t-114 175.5t-80 192.5t-49.5 188q-115 -74 -173 -90t-203 -16q-313 2 -541 264q-115 135 -162 263t-47 304zM451 786q0 -80 38 -168q141 125 328 125q129 0 240 -63q26 69 26 141q0 125 -84 235.5t-206 110.5q-160 0 -250 -108.5t-92 -272.5z M600 508q66 -57 154 -57h3q44 0 95 24q-51 66 -145 70q-53 0 -107 -37z" />
<glyph unicode="R" horiz-adv-x="1435" d="M8 1204q0 39 6 118t6 118q0 27 -4 78t-4 75v21q0 28 293 28h21q117 0 209 -6t215.5 -26.5t219 -69.5t146.5 -125q59 -88 89 -159.5t30 -159.5q0 -127 -37 -205t-133 -166q-2 -2 -2 -6q0 -8 17.5 -36t40 -59.5t26.5 -40t19.5 -44t29.5 -63t25 -38.5q6 -6 20 -7t32.5 0 t24.5 1q31 0 49.5 -15.5t22.5 -44t4 -54t-3 -61.5t-3 -48q0 -23 4 -67t4 -64q0 -49 -17.5 -64.5t-68.5 -15.5h-293q-31 0 -61 6q-51 8 -136 271.5t-114 295.5q-12 12 -43 13q-35 0 -42 -13.5t-7 -50.5v-20.5v-22.5t2 -18.5t5 -19.5t9 -12t16.5 -10t22.5 -3q23 0 35 -17.5 t14 -46t1 -56.5t-4 -59.5t-3 -41.5q0 -20 4 -61.5t4 -63.5q0 -41 -17 -57.5t-60 -16.5q-25 0 -74 6t-74 6q-55 0 -165.5 -3t-166.5 -3q-25 0 -40 10t-19 29.5t-4 37t2 45.5t2 38q0 31 -6 95t-6 97q0 39 1 51.5t8 31t25.5 22.5t51.5 4q20 0 20 160q0 68 -5 219q-4 108 -4 181 q0 29 1 52q0 23 -2 34t-10 16t-14.5 5t-25 -2t-28.5 -2q-82 0 -82 80zM610 985q0 -29 7.5 -40t35.5 -11q70 0 124 29.5t54 95.5q0 55 -56 87t-118 32q-33 0 -39 -13q-8 -16 -8 -180z" />
<glyph unicode="S" horiz-adv-x="1183" d="M7 107.5q-1 11.5 0 39t1 37.5q0 29 5 85.5t5 82.5q0 37 -4 108.5t-4 106.5q0 27 1 45.5t8.5 30.5t11.5 18.5t19.5 8.5t23.5 3t33.5 0t39.5 -1q27 0 82.5 -4t83.5 -4q43 0 64.5 -37t27 -80t35 -80t84.5 -37q45 0 83 28.5t38 71.5q0 49 -39 95.5t-98 80t-128 83t-128 102.5 t-99 139t-40 191q0 182 121.5 304t302.5 122q49 0 136 -30t103 -30q8 0 15.5 19.5t15.5 23.5q16 8 57 8q209 0 221 -24q12 -27 13 -72q0 -29 -6.5 -86t-6.5 -86q0 -31 4.5 -95.5t4.5 -96.5q0 -35 -17.5 -51.5t-34 -17.5t-55.5 2t-53 3q-18 0 -55 -5t-56 -5q-14 0 -26 8 q-14 18 -39 69.5t-52.5 73t-78.5 21.5q-29 0 -54.5 -24.5t-25.5 -53.5q0 -43 42 -83t106.5 -73.5t139 -86t138 -112t106.5 -159.5t43 -223h2q0 -199 -118.5 -342.5t-315.5 -143.5q-59 0 -130 27t-121 53.5t-58 26.5l-6 -2q-6 -2 -8 -2q-10 -8 -13.5 -30.5t-11.5 -31.5 q-10 -10 -29.5 -11t-47 2t-36.5 3q-23 2 -63.5 -4t-56.5 -6q-25 0 -43.5 4t-28.5 16.5t-17.5 21.5t-9.5 31.5t-3 34z" />
<glyph unicode="T" horiz-adv-x="1419" d="M8 1114q0 70 4 209t4 207q0 27 11.5 47t33 31.5t43 18.5t54 9t55.5 2t54.5 -1t43.5 -1q45 0 131 -7t131 -7t135.5 6t137.5 6q43 0 129 -3t131 -3q25 0 72 3t69 3q16 0 30.5 -3t26 -8t19.5 -15.5t13 -16.5t9.5 -22.5t6.5 -23.5t3 -26.5t2 -26.5t1 -28.5v-25.5 q0 -25 -4 -74t-4 -74q0 -41 5 -118.5t5 -118.5h-2q0 -37 -13.5 -60.5t-43 -31t-51.5 -9.5q-9 -1 -22 -1q-19 0 -45 2q-44 3 -61 3q-29 0 -49 3.5t-32.5 13.5t-19.5 18t-9 27.5t-2 31t2 39t2 41.5q0 31 -60 31q-2 0 -11 -2t-11 -2q-10 -9 -14 -37q-2 -14 -2 -32t2 -39 q4 -43 4 -48q0 -55 -7.5 -185t-7.5 -200q0 -133 15 -159q12 -8 63 -8t59 -19q14 -33 15 -334q-1 -64 -15 -82q-13 -17 -64 -16h-11q-39 0 -117 4t-119 4h-321q-37 0 -61.5 9.5t-37 19.5t-18.5 35.5t-6 41t1 51.5t1 52q0 18 -4 58t-4 61q0 63 24.5 89t54 21.5t55 16 t25.5 76.5q0 25 -4 69.5t-4 69.5q0 184 4 278q0 20 6.5 70.5t6.5 79.5q0 31 -9.5 43t-42.5 12q-27 0 -37 -17.5t-10 -40t-5 -49t-21 -40.5q-12 -12 -43 -18.5t-54.5 -6.5t-64.5 1t-47 1q-109 2 -109 125z" />
<glyph unicode="U" horiz-adv-x="1515" d="M8 1540q0 35 11.5 54.5t36 26.5t44 8t56.5 -2t51 -3l291 2q18 0 55 2t55 2q55 -2 74.5 -22.5t19.5 -73.5q0 -27 -5 -82t-5 -84q0 -18 3 -55t3 -56q0 -51 -16 -68.5t-64 -19.5q-32 0 -32 -73q0 -58 3 -172q3 -113 3 -170q0 -154 22 -205q35 -78 131 -78q51 0 84 18.5 t46.5 57.5t17.5 71.5t4 86.5q0 18 1 104t1 134t-6 115.5t-19 108.5q-4 16 -34.5 17.5t-36.5 11.5q-10 18 -14.5 44t-4.5 45.5t1 53t1 43.5q0 23 -3 68t-3 66q0 39 12.5 65.5t29 37.5t45 14t52 1t59.5 -4t58 -2q57 0 170 4t170 4q39 0 56.5 -16t19.5 -33.5t2 -60.5h2 q0 -23 -5 -68t-5 -67q0 -20 4 -61.5t4 -61.5q0 -53 -21.5 -75t-72.5 -22q-16 0 -17 -10q-8 -49 -10 -109q-1 -40 -1 -84v-46v-44q0 -40 -1 -65q-2 -53 -2 -102q0 -37 1 -72q1 -22 1 -45q0 -59 -6 -117q-8 -80 -26.5 -148.5t-69.5 -135t-133 -121.5q-131 -88 -316 -88 q-135 0 -224 14t-171 56t-133 124t-80 211q-10 45 -10 213q-4 391 -27 539q-4 23 -48 24.5t-54 18.5q-17 28 -21 62q-2 18 -2 41q0 21 2 46q4 53 4 66q0 23 -4 70t-4 71z" />
<glyph unicode="V" horiz-adv-x="1519" d="M8 1540q0 35 11.5 54.5t36 26.5t44 8t56.5 -2t51 -3l291 2q18 0 55 3t57 3q55 0 75 -22.5t20 -77.5q0 -41 -4.5 -125t-4.5 -125q0 -43 -17 -62.5t-36.5 -20.5t-37 -11t-17.5 -37q0 -53 26.5 -157.5t28.5 -114.5q29 -139 102 -338q29 117 78 347t49 288q0 18 -34.5 22 t-38.5 14q-11 22 -15 50q-2 18 -3 40q0 13 1 27q2 39 2 53q0 23 -3 68t-3 68q0 47 14.5 73.5t45 34.5t57.5 9h12q24 0 60 -3q45 -4 69 -4q57 0 170 4t170 4q39 0 57.5 -16t20.5 -34.5t2 -61.5q0 -41 -3 -119t-3 -119q0 -106 -92 -106q-25 0 -31 -17q-33 -70 -108.5 -357.5 t-96.5 -395.5q-53 -305 -129 -394q-10 -12 -58 -15q-21 -1 -45 -1q-32 0 -72 2q-68 4 -70 4q-31 0 -92.5 -5t-92.5 -5q-25 0 -35 6q-16 6 -36.5 57.5t-41 119t-22.5 75.5q-14 37 -50 125t-52 137q-25 74 -62 211t-53 188q-6 25 -37 102t-39 124q-4 23 -49 24.5t-55 18.5 q-20 33 -21 94q0 20 3 60t3 61q0 23 -4 70t-4 71z" />
<glyph unicode="W" horiz-adv-x="2099" d="M8 1540q0 35 11.5 54.5t36 26.5t44 8t56.5 -3t51 -4q31 0 88 5t88 5q18 1 42 1q36 0 85 -2q82 -3 115 -3q59 0 83.5 -18.5t24.5 -75.5q0 -27 -5 -77t-5 -75q0 -23 9 -69.5t9 -69.5q0 -31 -15 -43t-35.5 -10t-38 -9.5t-17.5 -39.5q0 -35 26.5 -117t49.5 -127q8 16 21 46 t21.5 47.5t17.5 44t13 50.5q6 37 30 106t32 103q23 98 74 226.5t106 128.5q27 0 54.5 -30t51 -83t40 -99t35 -102.5t22.5 -68.5q16 -45 42.5 -127t50.5 -148.5t48 -124.5q4 16 13.5 38t14.5 39.5t7 43.5q2 23 17.5 67t15.5 72q0 25 -47.5 36.5t-53.5 19.5q-18 35 -18 116 q0 256 39 310q12 16 43 19q13 1 30 1q22 0 49 -2q48 -4 54 -4l221 2q29 0 89.5 5t90.5 5q78 0 86 -41q17 -86 17 -348q0 -63 -11.5 -78.5t-68.5 -15.5q-23 0 -29 -16q-18 -37 -32.5 -88.5t-28 -117t-21.5 -93.5q-10 -37 -51 -175.5t-57 -214.5q-2 -6 -10.5 -50t-13.5 -67.5 t-15 -69.5t-19.5 -75.5t-20.5 -65.5t-24.5 -61.5t-25.5 -40.5q-14 -16 -60 -16q-41 0 -136 4q-63 3 -107 3q-22 0 -39 -1q-35 0 -51 6q-23 10 -87.5 223.5t-97.5 213.5q-8 0 -12 -13q-14 -31 -31.5 -98.5t-34.5 -101.5q-6 -16 -24.5 -89t-45 -111t-75.5 -38q-299 0 -322 12 q-31 14 -98 263t-138 524.5t-99 328.5q-12 23 -38 29t-47.5 6t-39 28t-17.5 89q0 20 3 60t3 61q0 23 -4 70t-4 71z" />
<glyph unicode="X" horiz-adv-x="1538" d="M8 143q0 27 4 83.5t4 84.5q0 55 5.5 90t33 66t76.5 31q29 0 49 10q29 14 147.5 168.5t118.5 181.5q0 31 -100 154t-133 139q-12 6 -66 6q-67 0 -67 91q0 26 4 71t4 70q0 20 -4 60t-4 60q0 59 42 93t105 34q55 0 163 -7t155 -7q16 0 52 4t54 4q33 0 53.5 -13t25.5 -40 t5 -49.5t-4 -58t-4 -50.5q0 -23 6 -63.5t6 -61.5q0 -33 -13 -49t-29.5 -18t-29 -7.5t-12.5 -15.5q0 -6 48.5 -52t60.5 -46q8 0 55 48t47 58q0 12 -10 17.5t-23.5 5.5t-23.5 12.5t-10 36.5v258q0 33 15 52.5t45 25.5t54.5 7t62.5 -2t48 -3q47 0 138 7t136 7q55 0 86 -32.5 t31 -87.5q0 -25 -2 -106q-1 -40 -1 -71t1 -53q0 -94 -22 -123q-14 -16 -51 -16t-50 -6q-20 -10 -131.5 -136t-111.5 -137q0 -2 61 -90t126.5 -179t74.5 -97q18 -12 59 -8q53 0 82 -32t29 -85h-2q0 -49 -1 -144.5t-1 -142.5q0 -39 -8.5 -59.5t-41.5 -26.5q-31 -6 -68.5 -6 t-82.5 3t-68 3h-276q-14 0 -41 -4t-39 -4q-20 0 -36.5 8t-26 24.5t-15.5 32t-9 42t-4 41t-1 42v33.5q0 141 33 172q6 8 23 12.5t30.5 8.5t13.5 12q0 16 -49 75.5t-68 59.5q-20 0 -75.5 -56.5t-55.5 -76.5q0 -10 22.5 -14t46 -18.5t23.5 -47.5q0 -14 -5 -42t-5 -44 q0 -29 -2 -86t-2 -86q0 -90 -178 -90q-20 0 -61 3t-64 3q-4 0 -62.5 -3t-86.5 -3h-35h-36t-30.5 1t-31 4t-26 8t-24.5 12.5t-17 18.5t-15.5 25.5t-8.5 33t-4 42.5z" />
<glyph unicode="Y" horiz-adv-x="1280" d="M8 1507q0 68 19.5 96.5t83.5 28.5q49 0 148 -4t149 -4q23 0 66.5 5t66.5 5q16 0 27.5 -7t18.5 -20.5t11 -27.5t5 -34.5t2 -34t0 -34t-1 -26.5q0 -31 -6 -91.5t-6 -90.5q0 -35 -13.5 -51.5t-27.5 -17.5t-26.5 -7t-12.5 -23q0 -18 50 -104t65 -86q8 0 22.5 23.5t28.5 56.5 t16 35q4 8 18.5 25.5t22.5 31.5t8 28.5t-38.5 17.5t-38.5 44q0 31 9 90.5t9 85.5q1 9 1 21q0 23 -3 56q-4 50 -4 71q0 29 12 45t37 20t46.5 4t53 -3t45.5 -3q49 0 145.5 5t145.5 5q27 0 40.5 -19.5t14.5 -35.5t1 -49q0 -2 2 -108q1 -42 1 -77q0 -53 -2 -91q-3 -64 -14 -97 q-8 -27 -62 -29t-71 -14q-31 -23 -151.5 -203t-133.5 -221q-18 -57 -18 -182q0 -45 20.5 -57.5t45 -5t44 -14t19.5 -81.5q0 -6 1 -35.5t1 -54t-1 -60.5t-4 -64.5t-8 -56.5t-13.5 -45.5t-20.5 -23.5q-33 -14 -489 -14q-92 0 -113 31.5t-23 128.5v18q0 96 11 215q4 43 92 43 q12 0 18 6q4 12 5 26.5t-1 32t-2 25.5q0 33 4 98.5t4 96.5q0 45 -90 209t-133 209q-6 6 -14 7t-20.5 -1t-18.5 -2q-12 0 -22.5 5t-16.5 15.5t-11 21.5t-8 27.5t-5.5 28.5t-2.5 30.5v29v24.5v18q0 29 -5 82.5t-5 81.5z" />
<glyph unicode="Z" horiz-adv-x="1374" d="M8 1565q0 23 10.5 38t23.5 22t36.5 10t39 3t42 -1t35.5 -1q35 0 104.5 -6t106.5 -6q41 0 131 5q64 4 108 4q17 0 31 -1q459 0 487 -12q33 -16 39 -35q18 -39 19 -155q0 -18 2 -50t3 -59t1 -51q0 -45 -6 -68q-16 -72 -158.5 -233.5t-276 -309t-133.5 -190.5q0 -20 146 -20 q20 0 32.5 6t16.5 23.5t4 24.5v34q0 106 82 106q16 0 49 -4t49 -4q74 4 111 4q131 0 143 -39q10 -33 16.5 -68.5t8.5 -81.5t3 -72v-34v-50q-1 -58 -1 -71q0 -123 -32 -174t-146 -51q-70 0 -212.5 7t-213.5 7q-78 0 -234 -6t-235 -6q-78 0 -117 5t-59.5 31.5t-22.5 55.5 t-2 105v24q0 29 -5 95q-4 48 -4 79q0 13 1 23q0 43 14 67q27 45 169 189.5t159 163.5q23 27 72 89t77 95q12 12 39 37.5t39 40.5q4 4 18.5 16t23.5 22.5t9 18.5q-2 20 -24 25q-12 0 -35 -6.5t-33 -6.5t-32.5 4.5t-34.5 4.5q-29 0 -35 -24t-1 -52.5t-21.5 -52t-94.5 -23.5 q-23 0 -67 5t-64 5q-14 0 -46 -3t-46 -3q-102 0 -107 154q0 23 5 66.5t5 66.5q0 41 -6 124t-6 124z" />
<glyph unicode="[" horiz-adv-x="571" d="M68 -119.5q0 21.5 1 71.5t1 77q0 72 6 231.5t4 245.5l-2 260q0 43 -4 180t-4 213q0 66 1 88.5t3 78.5t8 77.5t17.5 64.5t26.5 61.5t39.5 46.5t57.5 39t77 20.5t97 9.5q25 0 42.5 -3.5t27.5 -12.5t17.5 -15t9.5 -25.5t3 -27t0 -35t-1 -37.5v-45q0 -35 -28 -45t-61.5 -6 t-61.5 -14.5t-28 -67.5q0 -45 2.5 -137.5t2.5 -139.5q0 -23 5 -63.5t5 -63.5q0 -113 -4 -340t-4 -342q0 -43 -1 -94t-1 -75.5t2 -67.5t10 -97q2 -14 10 -22t23.5 -11t25.5 -4t29.5 0t23.5 1q50 -2 50 -86q0 -10 1 -41t0 -38t-4.5 -27.5t-9.5 -26t-18 -15.5t-30.5 -12 t-43.5 -2q-53 0 -96 5t-76 11t-57.5 23.5t-41 30t-26.5 41t-15 45t-8 56.5t-3 61.5z" />
<glyph unicode="\" horiz-adv-x="1056" d="M27 1591q0 12 7 21.5t22.5 15.5t28.5 9t35.5 4t36 1h36h26.5q45 0 72 -24q35 -39 98.5 -176t87.5 -209q6 -14 19.5 -64.5t25.5 -76.5q8 -18 25.5 -50t19.5 -38q23 -45 53.5 -128t45.5 -114q55 -127 173.5 -364.5t168.5 -346.5q6 -14 20 -40.5t23.5 -44t16.5 -42t7 -47.5 v-2q0 -47 -88 -47q-18 0 -53 4t-45 4q-14 0 -39 -4t-31 -4q-20 0 -37 12q-10 8 -26.5 48t-32.5 90.5t-21 58.5q-14 33 -50 102.5t-50 108.5q-14 37 -46 104.5t-44 100.5q-23 55 -156 405q-23 61 -79 169t-74 153q-8 20 -43 122.5t-64 153.5q-6 8 -20.5 29.5t-23.5 36t-17 35 t-8 34.5z" />
<glyph unicode="]" horiz-adv-x="608" d="M59 -231q0 25 2 40t14.5 30.5t35.5 15.5q4 0 22.5 -1t29.5 -1t26.5 3t23.5 11t10 22q8 55 10.5 98.5t2.5 68t-1.5 76.5t-1.5 95q0 113 -4 340.5t-4 341.5q0 20 5.5 61.5t5.5 63.5q0 47 2 139.5t2 137.5q0 49 -28 66.5t-61.5 13t-61.5 6t-28 45.5v45q0 8 -1 36.5t0 36 t4.5 27t9.5 25.5t17 15t28.5 12t42.5 3q53 0 97 -9t77 -20t57.5 -37t41 -46.5t27.5 -60t16 -64.5t8 -77t3 -80v-87l-2 -2q0 -66 -5 -197t-5 -196v-260q0 -80 5 -238.5t5 -236.5q0 -27 1 -77t1 -70.5t-3 -60.5t-8 -57.5t-15 -46t-26.5 -40t-41 -29t-57.5 -24.5t-76 -12 t-96 -5q-27 0 -44.5 3t-29.5 10t-18 16.5t-9.5 22.5t-4.5 29.5t-1 36v42.5z" />
<glyph unicode="^" horiz-adv-x="768" d="M41 1184q0 29 44 111.5t99.5 174t65.5 113.5q4 10 106 10h18.5h23h18.5t21.5 -1t19.5 -1q102 0 106 -10q10 -23 64.5 -107.5t99.5 -162.5t45 -107h2q0 -33 -8 -41q-2 -8 -16 -8q-123 -4 -228 -4q-6 0 -21.5 22.5t-17.5 32.5q-4 14 -16 35t-29.5 51.5t-29.5 53.5 q-14 -27 -38 -68t-40.5 -71.5t-20.5 -41.5q-2 -12 -41 -12q-31 0 -92 1t-90 1q-37 0 -37 10z" />
<glyph unicode="_" horiz-adv-x="1718" d="M-55 -217q0 117 16 123q47 18 182 18h799q139 0 429 -4t429 -4h21q55 0 69.5 -16.5t18.5 -102.5q0 -14 -2 -26.5t-11.5 -18.5t-16.5 -10t-23.5 -6t-22.5 -2h-26.5h-24.5q-90 0 -282.5 7t-285.5 7q-184 0 -495 -5t-498 -5q-4 0 -46 -1t-73.5 -1t-71.5 3t-62.5 14t-22.5 30 z" />
<glyph unicode="`" horiz-adv-x="411" d="M61 1587q0 2 3.5 10.5t3.5 10.5q2 8 16 8q123 4 248 4q16 0 18 -10q4 -14 55.5 -138.5t51.5 -144.5h2q0 -12 -5 -21.5t-11.5 -14.5t-19.5 -7t-20.5 -2h-25h-21.5q-123 0 -127 10q-6 14 -87 136t-81 159z" />
<glyph unicode="a" horiz-adv-x="1218" d="M8 348q0 186 133 299t322 113q16 0 46 -4t44 -4q20 0 20 18q0 57 -43 116.5t-100 59.5q-43 0 -43 -18l6 -8q6 -8 12.5 -20.5t6.5 -27.5q0 -55 -52.5 -84.5t-109.5 -29.5q-78 0 -133.5 47t-55.5 125q0 145 126 227t280 82q297 0 455 -256q57 -94 66 -306t40 -269 q16 -31 41 -41.5t42 -7.5t29.5 -14t12.5 -66q0 -16 -4 -49t-4 -52q0 -16 4 -45t4 -43v-2q0 -90 -338 -90q-76 0 -108 41q-4 4 -8.5 19.5t-10.5 27.5t-14 12q-4 0 -19.5 -14t-32 -30.5t-22.5 -20.5q-80 -49 -192 -49q-170 0 -285 98t-115 266zM360 383q0 -45 35 -77t80 -32h7 q58 0 104 31q50 33 49 92q-2 55 -38 84t-91 29q-63 0 -104.5 -32t-41.5 -95z" />
<glyph unicode="b" horiz-adv-x="1460" d="M8 326q0 45 26.5 68.5t57.5 27.5t57.5 18.5t26.5 44.5q0 125 -5 355.5t-5 320.5q0 12 -2 21.5t-3 15.5t-7.5 10t-9.5 6.5t-12 3.5t-13 1h-17.5h-17.5q-16 0 -42 12t-28 26q1 18 1 42q0 23 -1 55q-2 62 -2 84l2 147q0 43 31 47q39 4 307 4h44h42.5t35 -1t32.5 -5t25.5 -11 t23.5 -18.5t14.5 -26.5t11.5 -36.5t3 -50.5q0 -45 -4.5 -132t-4.5 -130q0 -80 28 -80h1q4 0 55.5 21.5t122 44t119.5 22.5q258 0 418 -246q59 -94 79.5 -187t20.5 -222v-3q0 -240 -138 -414.5t-372 -174.5q-90 0 -166.5 31.5t-116.5 63.5t-42 32q-6 0 -37 -56.5t-66 -56.5 q-41 0 -113.5 4t-93.5 4q-25 0 -69.5 -6t-69.5 -6q-35 0 -59.5 11t-36.5 23.5t-18.5 42t-7.5 45t0 56.5t1 53q0 16 -3 49t-3 50zM586 623q0 -215 188 -215q84 0 146.5 56t62.5 140q0 100 -56.5 154.5t-156.5 56.5q-78 0 -131 -56.5t-53 -135.5z" />
<glyph unicode="c" horiz-adv-x="1118" d="M2 596v18q0 250 160 434.5t405 186.5q41 0 114 -22.5t95 -22.5q4 0 23.5 13.5t50.5 13.5q10 0 21.5 -1.5t24.5 -3.5t22 -2q16 0 40.5 1t37 0t26.5 -7t19.5 -25.5t5.5 -52.5q0 -20 -4.5 -61t-4.5 -61q0 -45 9.5 -133.5t9.5 -131.5q0 -25 -5 -41t-10.5 -25t-23 -13.5 t-24.5 -5.5t-35.5 0t-38.5 1q-27 0 -79.5 3.5t-76.5 3.5q-27 0 -41 33.5t-20.5 73.5t-42 72.5t-101.5 32.5q-53 0 -91 -31.5t-54.5 -84.5t-23.5 -100.5t-7 -96.5q0 -94 42 -161.5t130 -67.5q68 0 104.5 27.5t43 62.5t13.5 68.5t19 41.5q12 6 64 7q193 0 225 -11 q31 -10 31 -88q0 -215 -129 -336.5t-346 -121.5q-281 2 -429.5 165.5t-148.5 448.5z" />
<glyph unicode="d" horiz-adv-x="1402" d="M2 637q0 244 149.5 412t389.5 170q109 0 202 -52q6 -4 20.5 -16t27 -21.5t18.5 -9.5q12 0 12 64q0 47 -15 66.5t-35.5 23.5t-42 12t-36 49t-14.5 119v21q0 49 2 71.5t13.5 52t40 41t75.5 11.5q41 0 124 -3t124 -3q125 0 149 -13q35 -35 37 -141q0 -72 -6 -206t-6 -191 q0 -29 4 -86.5t4 -83.5q0 -63 -4 -190.5t-4 -188.5q0 -72 14.5 -104.5t32.5 -35t37.5 -1t33 -20.5t13.5 -77q0 -37 -1 -113.5t-1 -113.5q0 -31 -12.5 -49.5t-41 -25.5t-47 -8t-55.5 -1h-12q-20 -1 -46 -1q-39 0 -93 2q-90 3 -125 3q-49 0 -75 25.5t-36 51t-22 25.5l-21 -12 q-18 -12 -50 -28.5t-70 -33t-84 -28.5t-87 -12q-205 0 -352 192q-78 100 -103.5 203.5t-25.5 253.5zM414 598q0 -92 47 -150.5t137 -58.5q88 0 145.5 58.5t57.5 146.5q0 82 -55.5 148.5t-137.5 66.5q-92 0 -143 -58.5t-51 -152.5z" />
<glyph unicode="e" horiz-adv-x="1177" d="M2 614q0 252 155.5 438.5t401.5 186.5q248 0 401.5 -179t155.5 -431q0 -47 -6 -70q-4 -16 -25.5 -26.5t-54.5 -12.5t-62.5 -2t-64.5 2t-43 2h-459q-14 0 -18 -20q0 -74 51 -126t125 -52q63 0 122.5 61t113.5 61l241 3q43 0 43 -39q0 -68 -71 -191q-78 -133 -173.5 -186 t-248.5 -53h-6q-256 0 -416 184q-162 186 -162 450zM395 770q0 -20 131 -20h107h7q99 0 99 28q0 55 -58 80q-54 23 -109 23h-9q-53 0 -110.5 -31t-57.5 -80z" />
<glyph unicode="f" horiz-adv-x="1003" d="M8 1042q0 78 10 115q6 25 54.5 38t95.5 36.5t55 71.5v135q0 168 140.5 275.5t312.5 107.5q154 0 266.5 -85.5t112.5 -232.5v-2q0 -111 -61 -185q-60 -73 -165 -73h-6q-78 0 -125 46t-47 122q0 41 18.5 76t55.5 37q6 0 15.5 -4t13.5 -4q6 0 6 4q0 29 -43 28 q-39 0 -63.5 -19.5t-33 -59t-10.5 -63.5t-2 -67q0 -100 17 -110q33 -18 249 -19q59 0 60 -80v-196q0 -53 -23 -64q-16 -8 -50 -12t-59.5 -4t-68.5 1t-49 1q-12 0 -22.5 -3t-15.5 -11t-9 -13.5t-5 -18.5t-1 -18.5v-21.5v-18q0 -6 -1 -52.5t-1 -83t3 -83t11 -76t21 -35.5 q29 -14 57.5 -18.5t40.5 -4.5t22.5 -12t13.5 -42t3 -93q0 -31 5 -87t5 -79q0 -74 -33 -76q-121 -12 -366 -12q-367 0 -379 53q-6 33 -8 70q-1 19 -1 42t1 50q2 55 2 72q0 55 9 86.5t23.5 41t32 10.5t34.5 5t31.5 16.5t23.5 52.5t9 105q0 217 -10 240q-14 29 -84.5 30.5 t-77.5 28.5q-10 45 -10 141z" />
<glyph unicode="g" horiz-adv-x="1175" d="M8 362q0 80 30 141.5t65.5 90.5t65.5 49.5t30 28.5q0 10 -23.5 66.5t-23.5 99.5v10q0 177 141 299q70 59 143.5 75.5t186.5 16.5q33 0 73.5 38t75.5 84t97.5 84t134.5 38q74 0 126 -43t52 -119q0 -51 -34 -87t-85 -36q-43 0 -59.5 13.5t-16.5 52.5q0 20 -29 20 q-25 0 -60.5 -29.5t-37.5 -54.5l10 -16q121 -74 169 -137.5t48 -188.5q0 -162 -128 -272.5t-291 -110.5q-43 0 -121 24.5t-107 24.5q-84 0 -84 -67q0 -18 16.5 -28.5t33.5 -8.5q41 0 120.5 12t118.5 12q197 -2 368 -131t171 -317q0 -240 -193.5 -412t-435.5 -172 q-111 0 -225.5 41t-201.5 131t-87 205q0 102 71.5 184t172.5 82q90 0 162.5 -43t72.5 -125q0 -31 -20.5 -50t-20.5 -23q0 -23 29 -37.5t53 -14.5q68 0 126 56.5t58 124t-49 108.5t-118 41q-33 0 -95.5 -8t-93.5 -8q-94 0 -177 27.5t-143.5 95t-60.5 163.5zM541 783.5 q43 -33.5 92 -33.5q55 0 92 25.5t37 78.5l2 2q0 51 -44 82t-97 31q-51 0 -89 -27q-36 -26 -36 -71q0 -54 43 -87.5z" />
<glyph unicode="h" horiz-adv-x="1361" d="M8 1547.5q0 13.5 5 35t15.5 30.5t30 17t50.5 8q20 0 58 -4t56 -4q31 0 94.5 3t96.5 3q116 0 116 -156q0 -48 2 -138t3 -136q0 -51 12 -51l104 41q106 41 174 41q78 0 138.5 -19.5t100.5 -49t68.5 -80t43 -95.5t22.5 -114.5t10 -118.5t2 -125q0 -184 7 -227 q4 -25 41.5 -32t48.5 -30q14 -28 14 -151l-2 2q0 -180 -41 -185q-111 -12 -225 -12q-3 0 -55 -1q-26 0 -48 -0.5t-40 0.5q-36 1 -84 4t-76.5 14.5t-32.5 27.5q-4 14 -8 43q0 20 6 57t6 54q0 18 -3 52t-3 50q0 43 24.5 65.5t50 33t27.5 22.5q4 27 4 78q0 47 -1 68.5t-4 70.5 t-14 75.5t-28.5 58.5t-48.5 47.5t-72 15.5q-57 0 -99 -39t-42 -97q-1 -35 -1 -67q0 -144 15 -227q4 -18 22.5 -25.5t38 -7.5t35 -15.5t15.5 -52.5q0 -203 -19 -272q-8 -33 -49 -33q-14 0 -45.5 4t-48 4t-49.5 -4t-49 -4h-252q-104 0 -105 150q0 188 19 210q10 12 54 22.5 t50 35.5q13 51 15 138q1 29 0 61q0 63 -3 141q-5 116 -5 147q0 27 4 76t4 63q0 160 -31 183q-8 6 -53 11t-51 30q-12 45 -13 190q0 12 -1 44t-1 45.5z" />
<glyph unicode="i" horiz-adv-x="724" d="M6 90q0 14 1 46t1 46q0 123 10 160q4 16 62.5 30.5t64.5 35.5q15 43 17 102q1 23 0 49q0 42 -2 92q-4 82 -4 107q0 49 -19.5 63.5t-44 17.5t-33 21.5t-18.5 220.5q0 102 18 119q31 25 197 25q186 -2 215 -11q47 -14 55 -84q2 -29 2 -165q0 -539 27 -570q16 -18 48 -23 t50.5 -24t18.5 -76q0 -16 -2 -47.5t-2 -46.5q-6 -33 -1 -57.5t1 -43t-2 -31.5t-8.5 -22.5t-16.5 -14.5t-29.5 -8t-45 -4t-64.5 -1l-400 -2q-29 0 -48 8t-29.5 18.5t-14.5 33t-4 36.5zM121 1481v6q-1 81 57 143q60 64 146 64q92 0 152.5 -59.5t60.5 -149.5l-2 -2 q0 -98 -55.5 -159.5t-153.5 -61.5q-86 0 -145.5 66.5t-59.5 152.5z" />
<glyph unicode="j" horiz-adv-x="1093" d="M6 -31q0 156 75 267.5t224 111.5q100 0 169 -68q67 -67 67 -163v-6q0 -70 -35 -117t-100 -49q-14 0 -9 -17q0 -27 23.5 -49t50.5 -22q43 0 76 19.5t53.5 47t33.5 71.5t19 84t9 94q1 39 1 68v22q-1 36 -3.5 86t-2.5 67q0 39 -2 158q-1 60 -1 106.5t1 79.5q0 31 -10 51 q-6 16 -44 19.5t-79 3.5t-73.5 26.5t-32.5 83.5q0 12 -1 47t0 54.5t3 52t9 52t20.5 40t35 30t49.5 9.5q20 0 61.5 -3t63.5 -3q39 0 109 2h26q143 0 183 -21q59 -31 72 -164q4 -57 4 -159l-2 -2q0 -41 -2.5 -123t-2.5 -123q0 -43 3.5 -131t4.5 -150v-44q0 -48 -1 -110 q-2 -92 -8.5 -159.5t-22.5 -150.5t-41 -141t-65 -118.5t-92 -96.5t-124.5 -59.5t-162.5 -23.5q-352 0 -482 309q-47 115 -47 211zM608 1493q0 88 59.5 149.5t149.5 61.5q94 -2 153.5 -59.5t59.5 -149.5h-2q0 -98 -51 -159.5t-148 -61.5q-94 0 -156.5 61.5t-64.5 157.5z" />
<glyph unicode="k" horiz-adv-x="1353" d="M8 1319q0 215 23 262q23 49 116 55h191q150 0 180 -43q14 -18 20 -101q5 -70 4 -141v-26q-1 -84 -4 -185.5t-3 -119.5q0 -51 8 -51t74.5 56t143.5 118.5t101 75.5q14 6 28.5 7t33 -2t28.5 -3q31 0 93.5 5t91.5 5q37 0 47 -14.5t10 -51.5q0 -317 -49 -336q-23 -8 -57 -9 h-23q-25 0 -57 1q-47 2 -60 2q-14 0 -58 -32.5t-44 -42.5q0 -2 2 -3l4 -2q59 -14 98 -28q43 -23 90 -76q27 -29 45.5 -63.5t36 -78.5t29.5 -69q25 -47 74 -52t63 -24q25 -27 25 -170v-2q0 -78 -9 -112q-8 -36 -32 -54q-20 -16 -54 -15h-12q-26 2 -62 2q-24 0 -52 -1 q-205 0 -261 8q-14 2 -23 19.5t-12 46t-3 52.5t1 54.5t1 36.5q-2 78 -47.5 188.5t-106.5 110.5q-104 0 -104 -100q0 -14 11 -21.5t34.5 -11.5t25.5 -4q12 -2 21.5 -8t14.5 -18.5t9 -21.5t5 -26.5t1 -25v-27v-21.5q0 -35 -8 -96q-2 -14 -3 -37.5t-2 -35t-6 -27t-15.5 -21.5 t-28.5 -11t-45 -5q-16 0 -49 4t-49 4h-291q-53 0 -85 18.5t-40 50t-11 72.5q-1 18 -1 36q0 24 2 50q0 88 4 113q2 14 63.5 39t65.5 49q2 16 2 103q0 33 2 138q1 35 1 62q0 54 -3 76q0 1 1 65q0 32 0.5 59t-0.5 48q-1 43 -3 101.5t-7.5 93t-15.5 39.5q-23 9 -57 9h-6 q-38 -1 -52 14t-14 77z" />
<glyph unicode="l" horiz-adv-x="755" d="M8 132q2 44 2 52q0 123 10 160q4 16 61.5 30.5t63.5 35.5q10 33 11 92v667q0 49 -18.5 64.5t-43 18.5t-33 21.5t-18.5 225.5q0 98 18 115q30 24 184 24h13q188 -2 217 -10q47 -16 53 -88q1 -12 1 -54t-1 -114q0 -115 3.5 -346t3.5 -348q1 -12 -3 -98q-2 -40 -2 -64 q0 -28 2 -35q4 -59 28 -83.5t48.5 -23.5t45 -22t20.5 -78q0 -16 -2 -47.5t-2 -46.5q2 -18 2 -34t-2 -30q-4 -28 0 -47.5t-5.5 -32.5t-13.5 -20.5t-27.5 -11.5t-48 -5t-71.5 -1h-398q-35 0 -56 8t-29.5 34t-11.5 37t-1 55z" />
<glyph unicode="m" horiz-adv-x="2031" d="M8 279q0 47 21.5 70.5t48 28.5t48 29.5t21.5 73.5q0 293 -4 336q-2 18 -47 24.5t-51 16.5q-10 14 -14 33.5t-5 31t0 39t1 33.5q0 20 -4.5 63.5t-4.5 63.5q0 25 3.5 42.5t8.5 27.5t13 17.5t18.5 9.5t23.5 3t29.5 1h35t58.5 3t58 3q6 0 38 1t55.5 1t53 -3t48 -10.5 t24.5 -19.5q2 -6 8.5 -24.5t11.5 -34t7 -15.5q8 0 39 32t39 36q111 55 229 55q125 0 193 -41q10 -6 36.5 -32.5t50 -49t27.5 -22.5t54.5 37t132.5 72.5t160 35.5q98 0 171.5 -30.5t115.5 -83t70 -122t35 -147.5t11 -160q2 -41 2 -80.5t-2 -78.5v-76q0 -53 12.5 -72.5 t28.5 -21.5t32.5 -10.5t29 -60.5t12.5 -152v-27v-26t-1 -21.5t-3 -20.5t-5.5 -16t-9.5 -15t-14 -10.5t-18.5 -9.5t-24.5 -4t-31 -2h-405q-37 0 -59.5 11.5t-31 37t-10.5 43t0 57t2 50.5q0 14 -3 44.5t-3 47.5q0 55 25.5 76.5t54.5 27.5t33 19q8 24 9 62v28q0 30 -1 66 q-2 56 -2 67q0 66 -43 121t-107 55q-74 0 -110.5 -29.5t-38.5 -105.5q0 -14 5 -45t5 -45q1 -7 1 -16q0 -22 -4 -54q-5 -45 -5 -63q0 -33 17.5 -46.5t37 -16.5t36 -29.5t16.5 -81.5q0 -219 -21 -254q-18 -27 -70 -27h-383q-59 0 -86.5 22.5t-27.5 79.5v201q0 43 22.5 64.5 t45 31t24.5 21.5q8 47 8 106q0 61 -3 96t-15.5 89.5t-46 82t-86.5 27.5q-74 0 -110 -56t-38 -134q0 -18 -4 -54t-4 -57q0 -59 11 -92t26.5 -40t34 -14t35 -14.5t26.5 -40t10 -92.5q0 -23 1 -61.5t0 -52t-3 -38t-9 -31.5t-18.5 -19.5t-32 -15.5t-48 -6t-68.5 -3q-29 0 -86 3 t-86 3q-20 0 -61 -4t-64 -4q-61 0 -94 5t-48.5 29.5t-17.5 45t-2 80.5v35q0 14 -3 42.5t-3 43.5z" />
<glyph unicode="n" horiz-adv-x="1361" d="M8 1137.5q0 13.5 5 35t15.5 30.5t30 17.5t50.5 8.5q20 0 58 -4t56 -4q33 0 98.5 4t98.5 4q47 0 78 -31q6 -6 11 -26.5t10 -37t9 -16.5l41 31q41 31 114 61.5t148 30.5q104 0 178 -39t112 -93t59.5 -144.5t25.5 -159t4 -170.5q0 -184 7 -227q4 -25 41.5 -32t48.5 -30 q14 -28 14 -151l-2 2q0 -180 -41 -185q-111 -12 -227 -12q-5 0 -55 -1q-25 0 -46.5 -0.5t-39.5 0.5q-36 1 -84 4t-76.5 14.5t-32.5 27.5q-4 14 -8 43q0 20 6 57t6 54q0 18 -3 53t-3 51q0 41 24.5 63.5t50 33t27.5 22.5q4 27 4 78q0 47 -1 68.5t-4 70.5t-14 75.5t-28.5 58.5 t-48.5 47.5t-72 15.5q-57 0 -98 -39t-41 -97q0 -227 12 -294q4 -18 22.5 -25.5t38 -7.5t35 -16.5t15.5 -53.5q0 -203 -19 -270q-8 -33 -49 -33q-14 0 -45.5 4t-48 4t-49.5 -4t-49 -4h-252q-104 0 -105 150q0 190 17 210q20 23 52 22t46.5 26.5t14.5 134.5q0 27 4 80t4 79 q0 92 -31 115q-8 6 -53 12.5t-51 28.5q-12 45 -13 191q0 12 -1 43.5t-1 45z" />
<glyph unicode="o" horiz-adv-x="1234" d="M2 621q0 260 158.5 438t414.5 178q260 0 429.5 -193.5t169.5 -457.5q0 -258 -167 -429t-423 -171q-260 2 -421 187t-161 448zM340 590q0 -94 64.5 -172t158.5 -78q125 0 188.5 77t63.5 204l-2 2q0 86 -65.5 164.5t-149.5 78.5q-119 -2 -188.5 -79.5t-69.5 -196.5z" />
<glyph unicode="p" horiz-adv-x="1484" d="M6 -209q0 96 24 136q21 37 46 37h4q26 -3 50 16.5t24 80.5q0 41 -4.5 121t-4.5 119q0 63 4.5 190t4.5 189q0 72 -14.5 104.5t-33 34.5t-38 1t-32.5 20.5t-13 77.5q0 37 1 112.5t1 114.5q0 29 12 47t39.5 25.5t45 8.5t54.5 1h17q45 0 133 -2t131 -2q39 0 63.5 -15.5 t32.5 -35t17.5 -35t21.5 -15.5l18 13q20 12 51 28.5t69 32.5t83 28.5t86 12.5q119 0 222.5 -61.5t176.5 -161.5q68 -92 91.5 -182.5t23.5 -217.5q0 -246 -152.5 -431t-394.5 -187q-115 0 -223 57q-6 4 -32.5 27.5t-35.5 23.5q-12 0 -12 -61q0 -49 15.5 -68.5t37 -23.5 t43 -12.5t37 -49.5t15.5 -120q0 -117 -13 -142q-25 -49 -131 -49q-41 0 -145 -3q-62 -2 -114 -2q-36 0 -66 1q-78 2 -144 10q-66 10 -73 43q-18 66 -19 164zM563 629q0 -86 58.5 -150.5t146.5 -64.5q86 0 143.5 60.5t57.5 148.5q-2 86 -60.5 148.5t-142.5 62.5 q-88 0 -145.5 -58.5t-57.5 -146.5z" />
<glyph unicode="q" horiz-adv-x="1306" d="M2 598q0 272 165 460q163 187 427 187h6q131 0 249 -48t189 -144q104 -135 149.5 -232.5t45.5 -236.5q0 -205 -114.5 -365t-309.5 -221q35 -14 173 -103.5t204 -89.5q72 0 133 30t95 64.5t64.5 63.5t49.5 29q33 0 49 -33t16 -68q0 -207 -140 -347t-347 -140 q-109 0 -200 41t-151.5 99.5t-113.5 115.5t-110.5 97t-118.5 40q-53 0 -113.5 -41t-75.5 -41l-10 4q-16 16 -16 45q0 63 54 136t116 102q-176 78 -270.5 236.5t-94.5 359.5zM358 580q0 -98 67 -178t163 -80h6q123 0 186 78q66 81 66 212h-2q0 88 -67.5 170t-155.5 82 q-121 -2 -193 -82q-70 -78 -70 -195v-7z" />
<glyph unicode="r" horiz-adv-x="1206" d="M8 991v133q0 61 20.5 83t80.5 22q20 0 58 -4t56 -4q33 0 98.5 4t98.5 4q53 0 76 -35q2 -4 8 -19.5t11 -27.5t9 -12q8 0 52.5 28.5t110 56t126.5 27.5q143 0 242.5 -86t99.5 -227v-2q-1 -126 -69 -226q-67 -98 -186 -98h-5q-76 0 -145.5 46t-69.5 118q0 35 11 61.5 t23.5 42t12.5 17.5q0 6 -14 6q-82 0 -139.5 -70.5t-57.5 -152.5q0 -178 14 -262q4 -23 28 -30t48.5 -7t44 -27.5t19.5 -89.5v-30.5v-37t-1 -37t-4 -40t-7.5 -36t-12.5 -32.5t-18.5 -24.5t-26.5 -17.5t-35 -5h-434l-8 2q-103 0 -103 140v8q0 190 17 210q20 23 52 22 t46.5 26.5t14.5 134.5q0 27 4 80t4 82q0 70 -15.5 97t-37 26t-44 0t-38 39t-15.5 124z" />
<glyph unicode="s" horiz-adv-x="993" d="M7 103.5q-1 11.5 0 37t1 33.5q0 63 2 76v6q-2 47 -2 141v38.5t3 27.5t3 20t8.5 13.5t10.5 8.5t17.5 3t20.5 2h29.5h36.5h133q29 0 51.5 -30.5t37 -67.5t49 -68t86.5 -31q53 0 53 58q0 33 -49 65.5t-118 68.5t-138.5 83t-118.5 128t-49 181q0 135 103.5 234.5t240.5 101.5 q35 0 83 -15.5t84 -33t40 -17.5q6 0 15 14.5t30.5 30t58.5 15.5q131 0 143 -21q29 -43 29 -258q0 -10 1 -33.5t0 -33t-3 -27.5t-7 -26.5t-14.5 -17.5t-24.5 -13t-36 -4h-112q-43 0 -68 19t-34 43t-31.5 44.5t-59.5 20.5q-20 0 -37.5 -13.5t-17.5 -34.5q0 -33 51 -63.5 t124 -64t145.5 -78.5t123.5 -129t51 -193q0 -162 -103.5 -264.5t-264.5 -104.5q-135 0 -193 41q-4 2 -24.5 21.5t-26.5 21.5q-12 0 -66 -53q-12 -8 -178 -8q-23 0 -38 5t-24 16.5t-15.5 21.5t-8.5 30.5t-3 32z" />
<glyph unicode="t" horiz-adv-x="1085" d="M2 1149q0 33 20.5 53.5t47 32.5t60.5 48t54 93q8 20 12.5 71.5t20.5 76t62 24.5q14 0 47.5 -3t52.5 -1q8 0 47 3t57.5 2t46 -7t40 -24.5t12.5 -49.5q0 -25 -3.5 -70.5t-3.5 -68.5q0 -74 17 -82q12 -6 38.5 -10t60.5 -6t61.5 -2t63.5 1t44 1q39 0 62.5 -13.5t31.5 -43.5 q9 -28 10 -52v-12q0 -22 -2 -55q-4 -43 -4 -60q0 -8 1.5 -27.5t1.5 -30.5t-3.5 -26.5t-13.5 -25.5q-14 -16 -55 -22.5t-79 -6.5t-91 3t-66 3q-49 0 -65.5 -11t-16.5 -58q0 -6 -1 -43t-1 -69t1 -79t5.5 -85t10.5 -71.5t17 -53t28 -19.5q31 0 42 29.5t11 65.5t18.5 65.5 t63.5 29.5h182q37 0 45 -16.5t8 -59.5q0 -260 -89 -380.5t-337 -120.5q-84 0 -147 21.5t-105 50t-71 84t-42 99.5t-19.5 120.5t-6.5 121.5t2 130t2 120q0 68 -21.5 96.5t-49 27.5t-58 12.5t-43.5 52.5q-14 43 -14 227z" />
<glyph unicode="u" horiz-adv-x="1251" d="M8 1157q0 39 17 51q23 18 286 19l197 2q41 0 56.5 -16.5t15.5 -57.5q0 -37 -2.5 -110.5t-2.5 -112.5q0 -41 -13 -55.5t-52 -12.5q-29 0 -29 -61q-1 -40 -1 -76q0 -208 20 -293q16 -76 123 -76q53 0 79.5 29t30.5 59.5t4 88.5q0 23 1 95v35q0 51 -2 91q-3 54 -13 94 q-4 14 -31.5 14t-32.5 6q-14 23 -14 269q2 55 18.5 72.5t67.5 17.5q63 0 190.5 -1t190.5 -1q78 0 84 -37q14 -74 14 -158q0 -4 1 -28.5t0 -35t-3 -32t-8 -32.5t-14 -24.5t-23.5 -18.5t-36.5 -5q-18 0 -18 -12q-5 -4 -5 -42q0 -24 2 -62q5 -98 5 -103q0 -33 1 -91.5t1 -87 t-2 -76.5t-10 -75.5t-22.5 -66.5t-37 -67t-56.5 -57.5t-79 -56.5q-111 -67 -260 -67h-4q-84 0 -142.5 5t-121 23.5t-105.5 51t-77.5 90t-55.5 137.5q-6 25 -7 49.5t1 59t2 49.5q0 211 -24 381q-4 18 -40 19t-44 15q-11 20 -15 50q-2 16 -2 37q0 18 1 39q3 46 3 57 q0 18 -3 52t-3 50z" />
<glyph unicode="v" horiz-adv-x="1142" d="M8 1157q0 39 17 53q23 18 266 19q217 0 241 -19q23 -14 23 -98q0 -29 -1 -82t-1 -80q0 -29 -11.5 -46t-24.5 -21t-24.5 -14.5t-11.5 -28.5q2 -59 94 -369q106 244 107 385q0 12 -24.5 17.5t-28.5 13.5q-18 31 -19 207q0 74 23 106q20 27 407 27q68 0 74 -33q8 -43 8 -244 v-2q0 -45 -19.5 -65.5t-43 -28.5t-27.5 -18q-27 -61 -126 -405.5t-161 -418.5q-10 -12 -313 -12q-27 0 -33 4q-12 6 -28.5 44t-31.5 88t-17 57q-53 131 -76 196q-14 43 -41 144.5t-47 156.5q-6 18 -26.5 64.5t-29.5 74.5q-4 16 -36.5 19.5t-40.5 17.5q-16 27 -17 291z" />
<glyph unicode="w" horiz-adv-x="1732" d="M8 1151q0 39 15 51q23 18 514 19q45 0 63 -15q29 -20 29 -252q0 -37 -14.5 -53t-32 -15t-31.5 -10.5t-14 -42t14 -65.5q6 -16 11 -33.5t10.5 -38t9.5 -32.5q0 -35 8 -35q18 14 68.5 170.5t113 301t115.5 144.5q74 0 213 -506q6 -23 28.5 -73t32.5 -50t29 113q0 2 9 38 t9 58q0 20 -14 29.5t-31.5 13.5t-32 29t-14.5 70q0 164 14 196q20 53 117 62q35 2 94 2q4 0 36 1t58.5 0t66.5 -1t72 -4t61.5 -9.5t47 -15.5t19.5 -22q10 -54 10 -136q0 -176 -16 -186q-8 -4 -47 -9t-47 -26q-14 -35 -68 -229q-6 -25 -26.5 -93.5t-29 -99t-26.5 -90 t-32.5 -97.5t-34 -88t-39.5 -93q-14 -31 -86 -31q-260 0 -285 14q-37 18 -74 175t-47 165l-6 2q-2 0 -8 -6q-12 -27 -26.5 -84t-25.5 -82q-14 -33 -26 -68.5t-18.5 -51t-15.5 -32t-29.5 -20.5t-50.5 -7t-87 -3q-154 0 -186 16q-47 27 -136 407t-108 415q-10 20 -52 24 t-52 23q-18 33 -19 266z" />
<glyph unicode="x" horiz-adv-x="1234" d="M8 274q0 78 25 115q16 23 64 29t63 14q31 16 110.5 94t79.5 99q0 18 -94 121.5t-121 113.5q-10 4 -33.5 5t-33.5 5q-37 16 -37 99q0 23 -1 61.5t-1 57t3 46t12 41t26.5 28t46 19.5t69.5 5q317 0 330 -2q57 -10 57 -88q6 -147 7 -150q0 -27 -5 -37q-2 -12 -26.5 -16 t-24.5 -21q0 -12 37 -51t51.5 -39t40 33t25.5 47q0 18 -31 22.5t-31 37.5q0 31 4.5 91t4.5 89q0 39 25.5 62.5t64.5 23.5q16 0 49 -4t49 -4q29 0 86 4t86 4q53 0 87 -9.5t51.5 -20.5t24.5 -41t7 -49t-2 -68.5t-2 -77.5q0 -72 -16.5 -92.5t-63.5 -23.5t-78 -18 q-14 -8 -26.5 -19t-25.5 -30.5t-19 -25.5q-4 -4 -23.5 -24.5t-32 -38t-12.5 -27.5q2 -23 93 -132.5t118 -125.5q12 -8 44 -9.5t46 -11.5q39 -37 39 -215h-2q0 -12 1 -46t0 -44t-6 -31.5t-16.5 -29t-33 -14.5t-52.5 -7q-203 0 -303 6q-10 0 -38.5 -3t-48 0t-31.5 19 q-29 31 -29 197q0 70 14 90q2 4 21.5 16.5t19.5 20.5t-39 46t-49 38q-16 0 -51 -31.5t-35 -46.5q0 -6 18.5 -15t37 -27.5t18.5 -49.5q0 -18 1 -58t1 -56.5t-4 -46t-13.5 -43t-26 -30t-44 -21.5t-66.5 -5l-268 2q-115 2 -136.5 29.5t-21.5 144.5q0 16 -2 49t-2 51z" />
<glyph unicode="y" horiz-adv-x="1474" d="M-92 -295q0 135 73.5 208t208.5 73q70 0 111 -33q10 -8 26.5 -33.5t28 -46t13.5 -20.5q16 0 57 73.5t41 96.5q0 53 -135 355t-187 384q-23 39 -48 58.5t-40.5 22.5t-24.5 19.5t-9 55.5q0 90 3 144t18 91t29.5 52.5t53.5 21.5q26 4 50 4q11 0 23 -1q33 -3 105 -6t133 -3 q20 0 61.5 4t63.5 4q47 0 76 -25.5t36 -63.5t10 -83q1 -19 1 -37q0 -24 -2 -45q0 -106 -33 -131q-6 -4 -29.5 -15.5t-40 -22.5t-16.5 -22q0 -27 57.5 -168t82.5 -192q6 -16 14 -16q12 0 28.5 34.5t33 85t16.5 52.5q6 14 22.5 49t25.5 62.5t9 51.5q0 45 -24.5 57.5t-51 16.5 t-30.5 29q-6 31 -7 129q2 47 11 137q10 84 25.5 98.5t103.5 16.5q18 0 57 -6.5t59 -6.5h23q46 0 122 6q95 7 138 7q98 0 119.5 -29t21.5 -131q0 -23 -7 -66t-7 -63q0 -18 3 -52t3 -50q0 -45 -27.5 -64.5t-60.5 -27t-39 -21.5q-106 -236 -264 -545q-10 -18 -49 -97 t-58.5 -115t-62.5 -114.5t-75 -122.5t-79 -108.5t-91 -102.5t-97 -76t-109.5 -55.5t-115.5 -17.5q-145 0 -261 96.5t-116 239.5z" />
<glyph unicode="z" horiz-adv-x="1091" d="M8 94q0 217 25 244q4 4 135 133t226 225.5t108 114.5q4 4 4 6q0 10 -47 12t-60 -2q-37 0 -46 -13t-8 -36.5t-9 -36.5q-26 -30 -181 -30h-10q-43 0 -68.5 25.5t-33.5 74.5t-9 88v21q0 34 2 78q3 60 3 73q0 16 -4 49t-4 49q0 23 13 36.5t40 18.5t45 6t54 0t40 -1 q94 0 265 -4t227 -4q17 0 69 3q39 2 72 2h22q42 -1 62 -12q14 -8 23.5 -29.5t13.5 -46t7 -62.5t3 -60.5t-1 -58t-1 -42.5q0 -55 -22 -79q-90 -111 -134 -168q-35 -43 -121.5 -134.5t-123.5 -144.5q-4 -4 -2 -6q0 -10 28 -10q70 0 92.5 16.5t22.5 77.5q0 45 82 45h166 q37 0 55.5 -25.5t20.5 -49t2 -64.5v-252q1 -69 -23 -97q-22 -27 -80 -26h-8l-66 2h-681q-4 0 -33 -1t-38 0t-32.5 4t-33 9t-24 16.5t-19.5 27t-5 38.5z" />
<glyph unicode="{" horiz-adv-x="688" d="M23 674q201 98 200 276q0 63 -33.5 187.5t-33.5 187.5q2 123 58 218t179 97q66 0 148 -54t82 -109q0 -12 -7.5 -20.5t-24 -11.5t-26.5 -4t-31.5 0t-23.5 1q-123 0 -123 -205q0 -41 39 -167t39 -189q0 -68 -45 -123.5t-119 -83.5q82 -29 121 -78t39 -127q2 -76 -33 -219.5 t-35 -212.5q0 -147 168 -148q64 0 64 -41q0 -51 -68 -92t-127 -41q-123 2 -208 68.5t-87 175.5q0 63 33 191.5t33 197.5q0 135 -32 199.5t-146 126.5z" />
<glyph unicode="|" horiz-adv-x="419" d="M53 -10.5v35.5l2 786q0 121 4 359.5t4 355.5q0 10 -1 33.5t0 30.5t3.5 23.5t8.5 21.5t16 13.5t26.5 10.5t39.5 2q88 0 112.5 -32t24.5 -118q0 -80 -8.5 -236.5t-8.5 -234.5q0 -160 8.5 -480t8.5 -482q0 -98 -8 -172q-2 -37 -80 -37q-27 0 -45.5 1t-34.5 2t-26.5 7 t-18.5 7t-13.5 13.5t-8.5 14.5t-4 21.5t-1 23.5v30.5z" />
<glyph unicode="}" horiz-adv-x="647" d="M25 -152q0 43 63 43q84 2 126 36t42 110q0 72 -33 215t-33 217q0 80 38 128t120 77q-72 29 -117 84t-45 123q0 61 39 188t39 168q0 205 -125 205q-2 0 -22.5 -1t-30.5 0t-26.5 4t-23.5 10t-7 20q0 55 83 110t146 55q84 0 140.5 -52t77 -119.5t20.5 -141.5q0 -63 -35 -187 t-35 -188q0 -180 205 -278h-2q-115 -61 -147.5 -126t-32.5 -200q0 -68 32.5 -198t32.5 -193q0 -109 -86 -176.5t-207 -67.5q-59 0 -126.5 42t-69.5 93z" />
<glyph unicode="~" horiz-adv-x="954" d="M29 856q-2 76 102.5 132t190.5 56q63 0 149 -39.5t113 -39.5q43 0 80.5 32.5t56.5 32.5q20 0 75.5 -82.5t55.5 -105.5q0 -37 -98.5 -100.5t-141.5 -63.5q-59 0 -143 47t-115 47q-49 0 -102 -52t-70 -52q-20 0 -86.5 83t-66.5 105z" />
<glyph unicode="&#xa1;" horiz-adv-x="618" d="M2 1405q0 109 67.5 167t176.5 58q135 0 198.5 -59.5t63.5 -194.5l-2 2q0 -115 -66.5 -178t-181.5 -63q-121 -2 -188.5 70.5t-67.5 197.5zM25 541q0 446 57 487q14 10 91 20.5t110 10.5l131 2q53 0 53 -57q0 -12 -3 -37t-3 -37q0 -49 18.5 -146.5t20.5 -121.5 q26 -256 26 -295q0 -59 -10 -127q-2 -23 -7 -68t-7 -59.5t-9.5 -45t-14.5 -39t-21.5 -26.5t-32.5 -22.5t-47 -12.5t-63.5 -9t-84.5 -1q-201 0 -200 123q0 61 -3 218t-1 243z" />
<glyph unicode="&#xa2;" horiz-adv-x="1024" d="M-4 864q0 248 186 428q25 25 81 61t63 40q20 16 20 159q0 23 5 38.5t17.5 24.5t21.5 15t30.5 8t32 3t36 0t33.5 -1q25 0 43.5 -2t29.5 -11t17 -13t9.5 -22.5t4.5 -24.5t0 -34t-1 -36v-16q0 -35 2 -52.5t17 -33t48 -15.5q4 0 21.5 12.5t42.5 12.5h76.5t49 -6t32 -8 t12.5 -21.5t6 -33t-2 -52.5v-70q0 -39 8 -119.5t8 -121.5q0 -51 -16.5 -62.5t-71.5 -11.5q-31 0 -91 4t-91 4q-23 0 -34 31t-17.5 66.5t-38 65.5t-90.5 30q-47 0 -81 -29t-49.5 -76t-21.5 -90t-6 -88q0 -86 38 -146.5t118 -60.5q78 0 108.5 39t35.5 86t17 53l66 9 q162 0 194 -9q29 -8 29 -77q0 -129 -66.5 -241t-183.5 -159q-8 -2 -13 -8t-8 -11t-4 -14.5t-1 -14.5v-16v-16v-64.5t1 -53t-2 -39t-6.5 -30.5t-14.5 -18.5t-23.5 -15.5t-36 -6t-49 -4h-66.5q-23 0 -39 4t-26.5 15.5t-16.5 18.5t-8 27.5t-2 27.5t1 35t1 32q0 137 -29 145 q-356 102 -356 559z" />
<glyph unicode="&#xa3;" horiz-adv-x="1456" d="M10 784q0 145 15 199q6 25 58 34t54 23.5t12.5 120t36.5 162.5q74 156 234 244t340 88q133 0 242.5 -29t199.5 -87t140.5 -160.5t50.5 -239.5q0 -127 -82 -218.5t-209 -93.5q-104 0 -188.5 60.5t-82.5 161.5q0 47 20.5 93t59.5 62q10 4 9 13q0 16 -41 32.5t-60 14.5 q-78 0 -156.5 -68t-78.5 -141q0 -84 192 -82h15q66 0 63 -170v-10q0 -78 -20 -127q-4 -10 -14.5 -14.5t-18.5 -4.5t-23.5 1t-19.5 1q-14 0 -23.5 -10t-12.5 -30.5t-4 -35t0 -41t1 -30.5q0 -27 18 -29q12 -10 204 -4t204 6q51 0 83 -5t50 -15.5t27.5 -27.5t11.5 -42t1 -56.5 t1 -72.5q0 -20 2 -60t2 -61q0 -25 -3 -45t-12.5 -34.5t-15.5 -25t-23.5 -16.5t-25.5 -10t-32.5 -5t-34 -1h-39h-39.5q-90 0 -258 5t-236 5q-37 0 -110.5 -4t-110.5 -4q-205 0 -256 20q-10 4 -16.5 16.5t-10.5 26t-5 34t-1 33.5v33.5v24.5q0 84 23.5 146.5t52.5 91.5t53.5 72 t24.5 92q0 29 -9.5 47t-33 25.5t-36.5 9.5t-51 0t-46 -2q-61 0 -62 114z" />
<glyph unicode="&#xa5;" horiz-adv-x="1292" d="M41 1507q0 68 19.5 96.5t82.5 28.5q49 0 148.5 -4t148.5 -4q23 0 67 5t66 5q16 0 27.5 -7t19 -20.5t11.5 -27.5t5 -34.5t2 -34t0 -34t-1 -26.5q0 -31 -6 -71t-6 -70q0 -35 -13.5 -51.5t-28 -17.5t-26.5 -8t-12 -24q0 -18 63 -157l107 2q6 37 12 41q49 80 49 127 q0 14 -39 17t-39 44q0 31 9.5 70t9.5 65q2 27 -2 77t-4 71q0 29 12 45t36.5 20t46 4t53.5 -3t46 -3q49 0 145.5 5t145.5 5q20 0 31.5 -8t16.5 -26.5t6 -31.5t1 -36q0 -6 2 -98t-1 -147.5t-13 -88.5q-8 -27 -62.5 -27.5t-70.5 -13.5q-18 -12 -70 -108h49q139 0 144 -84 q0 -20 -7.5 -58.5t-7.5 -60.5q0 -12 -6 -22.5t-18 -15.5t-25.5 -8t-33 -4t-34 -2t-36 0t-31.5 1t-52 -1t-67 -1l-37 -82q152 -4 185 -4q106 0 138 -14.5t32 -73.5q0 -125 -25 -148q-12 -12 -135 -12h-244q2 -39 22.5 -52.5t44 -11.5t42 -22.5t18.5 -83.5q0 -8 1 -32.5t1 -45 t-1 -49.5t-4 -51.5t-8 -44t-13 -36t-21 -20.5q-33 -14 -489 -14q-92 0 -112.5 31.5t-22.5 128.5v18q0 35 10 154q4 43 92 43q12 0 21 6q6 18 2 88h-48q-31 0 -102.5 -3t-103.5 -3q-25 0 -42.5 8t-26.5 16.5t-14 28t-6.5 27.5t1.5 30v25q0 23 10 59.5t26 42.5 q31 10 131.5 18.5t139.5 6.5l24 -2l-30 78h-13q-20 0 -58 -1t-58 -1q-121 0 -146.5 16t-25.5 94q0 16 6 50t4 53q0 20 22 24q35 10 152 15q-55 106 -80 129q-6 6 -14.5 7t-20.5 -1t-18 -2q-16 0 -27.5 6t-19 18.5t-11.5 22.5t-6 30.5t-2 29.5v32v20q0 29 -5 82.5t-5 81.5z " />
<glyph unicode="&#xa6;" horiz-adv-x="397" d="M45 727q0 53 60.5 68.5t120 -6t57.5 -62.5q-6 -143 2 -298t8 -255q0 -98 -8 -174q-2 -37 -80 -37q-27 0 -45.5 1t-34.5 2t-26.5 7.5t-18.5 7.5t-13.5 13t-8.5 14t-4 21.5t-1 23.5v31v35q0 37 -4 163t-4 445zM57 911q0 76 2 197t3 222.5t1 195.5q0 10 -1 33.5t0 30.5 t3.5 23.5t8.5 21.5t16 13.5t26.5 10.5t39.5 2q88 0 112.5 -32t24.5 -118q0 -80 -8.5 -283.5t-8.5 -281.5q0 -45 -96 -55t-123 20z" />
<glyph unicode="&#xa7;" horiz-adv-x="1243" d="M25 160q0 57 29.5 76.5t90.5 17.5q209 0 231.5 -12.5t37 -51t21.5 -75.5t35 -67t79 -30q45 0 82 29t37 72t-30 82t-77 71.5t-103.5 67.5t-112.5 79t-103 95t-76 128t-29 167q0 195 150 321q-72 61 -114 151.5t-42 182.5q0 186 120 310t304 124q49 0 136 -29.5t104 -29.5 q8 0 15 19.5t15 23.5q16 8 58 8q209 0 221 -24q12 -27 12 -72q0 -29 -6 -86t-6 -86q0 -33 5 -94.5t5 -93.5q0 -31 -8 -47.5t-26.5 -21.5t-34 -5t-45 3t-48 3t-55.5 -5t-55 -5q-12 0 -29 8q-12 16 -36.5 67.5t-52.5 74t-79 22.5q-29 0 -53.5 -24.5t-24.5 -53.5q0 -45 43 -85 t106.5 -71.5t138.5 -84t138.5 -115t106.5 -172t43 -248.5q0 -164 -96 -283q102 -127 102 -287q0 -106 -24.5 -200t-75 -172t-136.5 -123t-196 -45q-59 0 -131 26.5t-122 53t-58.5 26.5t-14.5 -6q-10 -8 -13 -30.5t-11 -28.5q-12 -10 -32 -11.5t-46.5 2t-34.5 3.5 q-23 2 -63.5 -4.5t-57.5 -6.5q-25 0 -43 4.5t-28.5 16.5t-17.5 22.5t-9 33t-3 33.5t0 38.5t1 38.5q0 29 5 82t5 82q0 37 -9 109.5t-9 111.5zM559 805q0 -25 18.5 -45.5t36 -27.5t48.5 -17q40 28 40 71q0 20 -37.5 61.5t-58.5 41.5l-12 -6q-2 -4 -18.5 -30t-16.5 -48z" />
<glyph unicode="&#xa8;" horiz-adv-x="897" d="M39 1466q0 72 52 122t124 50q82 0 132 -47t50 -129q-2 -74 -55 -121t-127 -47q-74 -2 -125 47.5t-51 124.5zM498 1466.5q0 73.5 51 123.5t125 50q80 2 132 -44t52 -126h-2q0 -74 -53 -125t-129 -51q-74 0 -125 49.5t-51 123z" />
<glyph unicode="&#xa9;" horiz-adv-x="1499" d="M94 707q0 283 180 494.5t461 211.5q188 0 345 -108.5t242 -277.5t87 -353q-2 -285 -191.5 -469.5t-474.5 -184.5q-299 0 -474 190.5t-175 496.5zM266 721q0 -207 129 -369t334 -162q199 0 347.5 136.5t148.5 335.5v2q0 256 -127 409.5t-377 151.5q-203 0 -329 -149.5 t-126 -354.5zM385 735q0 139 94 268.5t228 124.5q84 0 147 -43q10 14 30.5 22.5t35 10.5t44 3t37.5 1l23 -18q2 -12 2 -37q0 -256 -18 -295h-140l-22 2q-16 -2 -27 17q-6 10 -16 33.5t-18.5 35.5t-26 24.5t-41.5 12.5q-61 0 -91 -65.5t-30 -137.5q0 -207 133 -207 q33 0 49.5 14.5t18.5 32t14 37t37 25.5q12 -2 64.5 -2t78 -10.5t25.5 -38.5q-2 -117 -88 -194t-205 -77q-90 0 -158.5 40t-105.5 109t-55.5 147.5t-18.5 164.5z" />
<glyph unicode="&#xaa;" horiz-adv-x="618" d="M39 1196q0 92 66.5 148.5t158.5 54.5q6 0 22.5 -2t24.5 0q10 0 13 6q0 31 -21.5 60.5t-50.5 29.5q-23 0 -23 -10l4 -4q2 -4 4.5 -10.5t2.5 -12.5q0 -29 -26 -43t-56 -14q-39 0 -64.5 23.5t-25.5 64.5q2 74 63.5 113.5t136.5 39.5q147 0 226 -129q29 -47 35 -152.5 t22 -135.5q8 -14 19.5 -19.5t20.5 -3.5t15 -7t6 -34q0 -8 -2 -24.5t-2 -26.5q0 -6 2 -20.5t2 -22.5h-2q0 -45 -168 -45q-37 0 -53 18q-2 2 -7 16.5t-9 16.5q-2 0 -9.5 -7t-15.5 -16.5t-12 -11.5q-39 -25 -96 -24q-86 0 -143.5 50t-57.5 134zM213 1212q0 -23 17.5 -38 t39.5 -15q31 0 55.5 15.5t24.5 44.5q0 57 -63 57q-74 0 -74 -64z" />
<glyph unicode="&#xab;" horiz-adv-x="1087" d="M43 803q0 18 79 182t103 207q10 14 26.5 23.5t40 12.5t41 3t46.5 -1t37 -1q147 0 147 -39q0 -25 -74.5 -184.5t-74.5 -192.5t78.5 -191.5t78.5 -195.5q0 -39 -125 -39q-31 -2 -107.5 1t-86.5 9q-29 18 -119 195.5t-90 210.5zM518 805q0 16 80 183t102 204q8 14 24.5 23.5 t40 12.5t41 3t46.5 -1t37 -1q152 0 151 -39q0 -25 -75.5 -184.5t-75.5 -192.5t79 -191.5t79 -195.5h2q0 -39 -127 -39q-31 -2 -108 1t-87 9q-31 18 -120 194.5t-89 213.5z" />
<glyph unicode="&#xac;" horiz-adv-x="1423" d="M43 862q0 10 12.5 16.5t42 7.5t57 0t77 -3t79.5 -2q41 0 117 -2t107 -2q25 0 128 5t218.5 11t232.5 9t193.5 -2t78.5 -19q6 -39 -2 -192.5t-6 -188.5q2 -18 6.5 -51.5t4.5 -51.5q4 -59 -15.5 -82.5t-46.5 -23.5q-8 0 -34.5 4t-35.5 2q-2 0 -73 -14q-25 -2 -33 38.5 t-6 112.5q2 0 1 33t-3 73t-10.5 71.5t-20.5 29.5q-33 -6 -167 -7t-253 1h-119l-172 -19l-254 -4q-41 0 -65.5 7.5t-30.5 20.5t-6 25.5t4 30t4 23.5z" />
<glyph unicode="&#xad;" horiz-adv-x="1019" d="M51 795q0 45 19.5 70.5t56.5 32.5t68.5 7t82 -4t70.5 -4q33 0 139.5 4t139.5 4q23 0 67.5 -4t67.5 -4q10 0 30.5 4t30.5 4q64 1 64 -114q0 -12 -4 -39t-2 -41q0 -10 3 -31t3 -31q0 -43 -38 -80t-75 -37l-643 -2q-18 0 -31.5 6.5t-21.5 18.5t-13.5 23.5t-6.5 32t-2 31.5 t0 32.5t1 27.5q0 14 -3 45t-3 48z" />
<glyph unicode="&#xae;" horiz-adv-x="1507" d="M74 707q0 283 180 494.5t461 211.5q186 0 346 -110.5t248 -280.5t88 -352q0 -279 -195.5 -464.5t-478.5 -185.5q-299 0 -474 190.5t-175 496.5zM244 717q0 -207 128 -370t330.5 -163t354 136t151.5 335q0 256 -129 413t-379 155q-203 0 -328.5 -149.5t-127.5 -356.5z M404.5 974q-1.5 7 0 27.5t1.5 24.5q0 31 4 47.5t18 22.5t25.5 6t40 -2t47.5 -2q451 0 450 -256q0 -106 -82 -172q10 -18 35 -78t43 -82l25 4q20 0 43 -14q6 -22 6 -131v2q-2 -12 -12 -33q-43 -6 -136 -6q-43 0 -68.5 54t-44 125t-40.5 91q-80 0 -117 -4l-2 -37l2 -65l35 -17 q14 -16 14 -112q0 -2 -6 -27q-8 -10 -22 -10q-18 2 -230 2q-2 4 -8 64.5t-6 76.5l2 23l37 12q16 131 16 199q0 184 -10 208q-16 0 -28.5 5.5t-18.5 10.5t-9 20.5t-4.5 22.5zM629 786q0 -6 4 -17t4 -15q18 -4 55 -4q49 0 84 24.5t35 71.5q-2 45 -47 66.5t-98 21.5 q-6 0 -16.5 -2t-12.5 -2q-8 -33 -8 -144z" />
<glyph unicode="&#xaf;" horiz-adv-x="954" d="M47 1507q0 33 19.5 53.5t57.5 25.5t70.5 5t83 -3t70.5 -3q33 0 139.5 3t141.5 3q23 0 67.5 -3t67.5 -3q10 0 30.5 3t30.5 3q66 0 66 -88q0 -8 -4 -29.5t-2 -31.5q0 -8 3 -23.5t3 -23.5q0 -33 -39 -61.5t-76 -28.5l-647 -2q-23 0 -37 8t-22.5 15t-12.5 26.5t-5 28t0 31 t1 24.5q0 12 -3 35.5t-3 35.5z" />
<glyph unicode="&#xb0;" horiz-adv-x="796" d="M53 1288q0 162 83 269.5t241 107.5q141 0 233 -95t92 -236.5t-101 -250t-241 -108.5q-127 0 -217 92t-90 221zM256 1325.5q0 -63.5 27.5 -103.5t87.5 -38q49 0 82.5 39t33.5 88l2 -2q0 61 -30.5 110t-89.5 49q-59 2 -86 -38.5t-27 -104z" />
<glyph unicode="&#xb1;" horiz-adv-x="1218" d="M40 1000.5q-1 29.5 0 76.5t1 49q0 27 15.5 42.5t44 20.5t53 5t60.5 -2t46 -2q23 0 68 3t65 3q18 0 22.5 5t4.5 22q0 43 -8.5 145t-8.5 143q0 72 134 72q20 0 61 -6t61 -6q12 0 39 3t39 3q53 0 54 -64q0 -18 -4.5 -77.5t-4.5 -77.5q0 -125 13 -139q10 -14 77 -11 q35 2 62 2q10 0 51 2t66.5 1t59.5 -6t50.5 -23t16.5 -47v-2q0 -266 -15 -271q-33 -10 -121 -10q-20 0 -79.5 -6t-85.5 -6q-6 0 -26 3t-32 1q-31 0 -31 -27q0 -16 4.5 -47t4.5 -45q0 -10 -3 -43t-3 -45q0 -14 4 -56t3 -62.5t-18.5 -40t-54.5 -19.5h-104.5t-74.5 5t-54.5 8 t-34 20.5t-21.5 29t-6 45t-2 59t3 81t1 100.5q0 31 -14.5 40t-48.5 9q-41 0 -135.5 -7t-135.5 -7q-20 0 -34.5 21.5t-18.5 63.5t-5 71.5zM66 299q0 45 25.5 70.5t74.5 33t92 7.5t109.5 -4.5t93.5 -4.5q43 0 185 4.5t188 4.5q33 0 93 -5.5t85 -5.5q14 0 41.5 4.5t42.5 4.5 q82 0 82 -115h2q0 -14 -5.5 -40t-5.5 -38q0 -10 4.5 -30.5t4.5 -32.5q0 -43 -50.5 -80t-99.5 -37h-854q-29 0 -48.5 9t-29.5 21.5t-15 34t-6 36t-1 40v31.5q0 14 -4 45t-4 47z" />
<glyph unicode="&#xb2;" horiz-adv-x="751" d="M49 1300q2 133 102.5 223.5t249.5 90.5q127 0 223.5 -68.5t96.5 -179.5q0 -61 -32 -112.5t-76 -83t-88 -56t-74.5 -45t-30.5 -37.5q0 -18 39 -12q12 0 37.5 2t40.5 2q8 0 11 4t3 7t-1 11.5t-1 10.5q0 10 6 15t17.5 6t21.5 1t23.5 -1t17.5 -1t72 6q16 0 26 -4t13.5 -13 t3.5 -17.5t-1 -22.5t-1 -20q0 -27 2 -84t2 -86v-2q0 -14 -9 -23q-8 -16 -159 -16q-14 0 -43 2t-45.5 2t-48 -2t-48.5 -2h-280q-53 0 -58 8q-6 12 -10 39q0 109 40 190.5t98.5 124.5t115.5 71.5t98 52.5t41 48q0 23 -18 39t-45 16q-43 0 -62.5 -29.5t-17.5 -70.5 q0 -10 -4 -14q-6 -6 -113 -6q-10 0 -30.5 -3.5t-30.5 -3.5q-74 0 -74 43z" />
<glyph unicode="&#xb3;" horiz-adv-x="653" d="M41 1073v9.5v10.5v9t2 9t4 7t6 5t10 1q23 0 68 -1t68 -1q33 0 30 -8q0 -37 32 -70.5t69 -33.5q29 0 50 16t21 43q0 10 -2 18.5t-5 14.5t-10 11t-11 8t-14.5 5t-14.5 3t-16.5 2.5t-16.5 1.5h-16h-14q-12 0 -19 4q-6 6 -9 59t-1 70q0 20 4 30q2 4 37 9.5t67.5 23t32.5 53.5 q0 25 -21.5 38.5t-47.5 13.5q-31 0 -49.5 -15.5t-22.5 -34t-15.5 -33t-29.5 -14.5q-20 0 -59 4.5t-52 4.5q-25 0 -30 10q-10 10 -11 123q0 18 2 55t2 53.5t6.5 26.5t19.5 13t23.5 4t32 0t29.5 -1q18 0 24.5 -15.5t14.5 -15.5q4 0 29 17q59 23 133 22q98 0 177 -59t79 -154 q0 -68 -35 -127q-18 -29 -41 -41l-6 -2q-6 -2 -9.5 -4t-3.5 -4t6.5 -6t12.5 -8t8 -6q90 -63 90 -174q0 -113 -76.5 -183.5t-191.5 -70.5q-104 0 -143 10q-90 27 -143.5 97.5t-53.5 166.5z" />
<glyph unicode="&#xb4;" horiz-adv-x="559" d="M61 1327q0 16 22.5 74.5t51.5 124t35 82.5q2 12 20 12q31 0 123.5 -1t120.5 -1q16 0 17 -10l2 -4q2 -4 4 -8.5t2 -6.5q0 -37 -80 -158.5t-88 -138.5q-4 -10 -125 -10h-21.5h-24.5t-20.5 2t-19.5 7t-12.5 14.5t-6.5 21.5z" />
<glyph unicode="&#xb5;" horiz-adv-x="1361" d="M10 129q0 45 21 117q6 18 24.5 33.5t45 29t34.5 19.5q29 20 35 59t-2 91t-8 57q0 27 6 80t6 79q0 68 -6 104t-17.5 45t-24.5 8t-31.5 3t-33.5 23q-18 23 -18 208q-4 152 104 152h252q18 0 51 -4t50 -4q14 0 44.5 4t47.5 4q41 0 49 -33q18 -68 18 -270q0 -37 -16 -53.5 t-35.5 -16.5t-38 -7t-22.5 -26q-10 -57 -10 -294q0 -57 40.5 -96.5t98.5 -39.5q41 0 71.5 14.5t48 46.5t29 58.5t14.5 75.5t4 70.5t1 68.5q0 53 -4 80q-2 12 -28 22.5t-50.5 33t-24.5 63.5q0 16 3 51t3 53.5t-5 55t-5 55.5q0 23 6 43q4 16 33 27.5t77 14.5t84 4t86 0t54 -1 q117 0 227 -12q43 -5 43 -183v-2q0 -121 -12 -149q-10 -23 -48 -30t-42 -32q-8 -47 -8 -227q0 -90 -10.5 -170t-39 -162t-75.5 -140t-126 -95t-183 -35q-164 2 -248 10t-107.5 16.5t-64.5 30.5q-47 -90 -83 -128t-83 -38q-129 0 -147.5 6.5t-29.5 24t-15.5 41t-6.5 51t-1 57 t-1 58.5z" />
<glyph unicode="&#xb6;" horiz-adv-x="1400" d="M10 1055q0 86 30 157.5t89 161.5q160 238 862 232q264 0 273 -25l18 -57q8 -49 7 -110.5t-5 -164t-4 -112.5q0 -49 4 -179.5t5 -202t-1 -180.5q-2 -59 -1 -96t3 -64.5t0 -35.5q-6 -23 -5 -120t-4 -177t-21 -80q-86 6 -103 6q-25 0 -43 -6t-43 -6q-43 -2 -72.5 29.5 t-29.5 74.5q0 8 -6.5 195.5t-6.5 196.5q0 2 2.5 19t4.5 33.5t0 16.5q-20 4 -109 8q4 -242 4 -366q0 -98 -8 -172q-2 -37 -141 -37q-121 0 -147.5 27.5t-24.5 128.5l6 421q-98 4 -121 11q-180 53 -296 177t-116 296zM334 1044q0 -132 213 -165q4 238 4 360 q-217 -35 -217 -195zM846 872q61 4 67 5q29 0 38.5 11t9.5 42v270q0 27 -6.5 32t-32.5 5h-11q-6 0 -51 4l-12 -305z" />
<glyph unicode="&#xb7;" horiz-adv-x="677" d="M115 817q0 94 65.5 165t159.5 71q100 0 167.5 -68t67.5 -166q0 -111 -62 -178.5t-171 -67.5q-96 0 -161.5 73t-65.5 171z" />
<glyph unicode="&#xb8;" horiz-adv-x="935" d="M442 -403q0 35 22.5 84t53.5 49q16 0 34.5 -22.5t33 -48.5t41 -48.5t59.5 -22.5q39 0 64.5 23.5t25.5 60.5q0 43 -38 78t-81 33q-16 0 -36.5 -10.5t-26.5 -10.5q-29 0 -47.5 9.5t-25.5 34t-9 36t-1 49t1 41.5v78q-2 29 32 70t77 45q86 10 124 -70q6 -14 8.5 -30.5 t1.5 -34t-1 -21.5q0 -39 22 -43q16 -2 42 -4t45.5 -6t37.5 -12q139 -68 139 -246q0 -115 -94 -207t-209 -92q-113 0 -203 65.5t-92 172.5z" />
<glyph unicode="&#xb9;" horiz-adv-x="555" d="M31 1477q0 16 6 22t21.5 10t23.5 11q43 27 78 55q4 4 16 19.5t23 19.5q16 6 80 6q127 0 141 -2q20 -4 24 -37q0 -8 -1 -18.5t-3 -23.5t-2 -19q0 -12 -1 -35t-1 -33q-2 -33 3 -94.5t5 -87.5q0 -18 -3 -55t-3 -56q0 -16 2 -52t2 -54.5t7.5 -22.5t27.5 -4h10q57 0 62 -31 q8 -37 8 -137h2q0 -37 -8 -44t-51 -7q-14 0 -47 -2t-50 -2q-20 0 -64 2t-67 2q-14 0 -42.5 -2t-43.5 -2q-92 0 -108.5 13t-16.5 91q0 10 2.5 27.5t2.5 26.5q0 6 -2.5 16t-2.5 14q0 14 25 22.5t55.5 11.5t36.5 7q14 10 10 39q0 27 -4 91.5t-2 99.5q0 10 2 30.5t2 32.5 q0 33 -22 33q-14 0 -40 -4t-38 -4q-35 0 -43 14q-6 10 -10 53t-2 60z" />
<glyph unicode="&#xba;" horiz-adv-x="618" d="M41 1329q0 131 80 220t211 89q129 0 213 -97t84 -228l-2 -2q0 -129 -83 -214t-212 -85t-210 93t-81 224zM209 1311q0 -47 32.5 -85t80.5 -38q61 0 92.5 38t31.5 101q0 43 -33.5 84t-76.5 41q-59 0 -93 -40t-34 -101z" />
<glyph unicode="&#xbb;" horiz-adv-x="1087" d="M41 426q0 37 79 195.5t79 191.5t-76 192.5t-76 184.5q0 39 152 39q8 0 36.5 1t45 0t40 -4t39 -12.5t25.5 -23.5q23 -39 103.5 -205t80.5 -182q0 -35 -90 -211t-119 -193q-8 -4 -48 -7t-89 -4t-55 -1q-127 0 -127 39zM520 426q0 35 79 193.5t79 193.5q0 33 -76 192.5 t-76 184.5q0 39 150 39q8 0 36.5 1t45 0t40 -4t40 -12.5t26.5 -23.5q23 -37 103 -203t80 -182q0 -33 -90.5 -211t-118.5 -195q-8 -4 -48 -7t-90.5 -4t-56.5 -1q-123 0 -123 39z" />
<glyph unicode="&#xbc;" horiz-adv-x="1597" d="M31 1475q0 16 6 22t21.5 10t23.5 11q43 27 78 55q4 4 16 19.5t23 19.5q16 6 80 6q127 0 141 -2q20 -4 24 -37q0 -8 -1 -18.5t-3 -23.5t-2 -19q0 -10 -1 -33t-1 -35q-2 -33 3 -94.5t5 -87.5q0 -18 -3 -55t-3 -56q0 -16 2 -52t2 -54.5t7.5 -22.5t27.5 -4h10q57 0 62 -31 q8 -37 8 -137h2q0 -37 -8 -44t-51 -7q-14 0 -47 -2t-50 -2q-20 0 -64 2t-67 2q-14 0 -42.5 -2t-43.5 -2q-92 0 -108.5 13t-16.5 91q0 10 2.5 27.5t2.5 25.5q0 4 -2.5 14.5t-2.5 16.5q0 14 25 22.5t55.5 11.5t36.5 7q14 10 10 39q0 27 -4 91.5t-2 99.5q0 10 2 30.5t2 32.5 q0 33 -22 33q-14 0 -40 -4t-38 -4q-35 0 -43 14q-6 10 -10 53t-2 60zM182 35q0 27 11.5 51.5t33 59t27.5 47.5q47 88 173 304t185 337q16 31 49 104.5t56 114.5q8 12 24.5 38.5t22.5 38.5q10 23 24.5 69t22.5 65q27 66 94.5 186.5t102.5 153.5q25 25 71 24h28.5h38t38 -1 t38 -3t31 -7t23.5 -13.5t8 -20.5q0 -18 -12 -38.5t-36 -49.5t-28 -35q-29 -45 -63.5 -135t-46.5 -113q-23 -45 -80 -142t-82 -150q-145 -332 -162 -365q-14 -29 -47 -89t-49 -95t-53 -99.5t-52 -93.5q-6 -10 -22 -53t-33.5 -80t-28.5 -45q-14 -8 -36 -8q-12 0 -37 3t-39 3 q-18 0 -51 -3t-50 -3q-94 0 -94 43zM805 442q0 27 49 85.5t129 136t86 84.5q4 4 30.5 43.5t35.5 44.5h67q20 0 87 2t104 0q16 0 23 -6.5t8 -11.5t-1 -18.5t-2 -17.5q0 -35 2 -141t0 -164q0 -8 3.5 -13t9.5 -7t12 -2t15.5 1t13.5 1q37 0 51 -8t14 -35v-2q0 -162 -10 -166 q-16 -4 -27 -4q-12 0 -36.5 4t-34.5 4q-39 0 -39 -27q0 -12 14 -15t33.5 -5t27.5 -10q27 -23 27 -123q0 -10 -1 -17.5t-4 -13.5t-5 -9t-9.5 -5t-11.5 -4.5t-14 -2.5h-16h-19.5h-21.5q-219 0 -328 3q-18 0 -24.5 7t-10.5 25v86q0 23 18.5 34t40 13t39 12.5t17.5 28.5 q0 10 -5 17.5t-17.5 9.5t-19.5 3t-25.5 0t-20.5 -1q-14 0 -41 -3t-39 -3q-16 -2 -98 4q-37 0 -47.5 4t-15.5 16.5t-7 30t-2 31.5t1 32.5t1 22.5q0 8 -3 24.5t-3 24.5zM1087 446q0 -4 13 -4q78 0 80 6.5t2 18.5v2q0 72 -11 92q0 2 -2 0q-2 0 -8 -7t-12 -15.5t-8 -10.5 q-53 -74 -54 -82z" />
<glyph unicode="&#xbd;" horiz-adv-x="1421" d="M31 1475q0 16 6 22t21.5 10t23.5 11q43 27 78 55q4 4 16 19.5t23 19.5q16 6 80 6q127 0 141 -2q20 -4 24 -37q0 -8 -1 -18.5t-3 -23.5t-2 -19q0 -10 -1 -33t-1 -35q-2 -33 3 -94.5t5 -87.5q0 -18 -3 -55t-3 -56q0 -16 2 -52t2 -54.5t7.5 -22.5t27.5 -4h10q57 0 62 -31 q8 -37 8 -137h2q0 -37 -8 -44t-51 -7q-14 0 -47 -2t-50 -2q-20 0 -64 2t-67 2q-14 0 -42.5 -2t-43.5 -2q-92 0 -108.5 13t-16.5 91q0 10 2.5 27.5t2.5 25.5q0 4 -2.5 14.5t-2.5 16.5q0 14 25 22.5t55.5 11.5t36.5 7q14 10 10 39q0 27 -4 91.5t-2 99.5q0 10 2 30.5t2 32.5 q0 33 -22 33q-14 0 -40 -4t-38 -4q-35 0 -43 14q-6 10 -10 53t-2 60zM182 35q0 27 11.5 51.5t33 59t27.5 47.5q47 88 173 304t185 337q16 31 49 104.5t56 114.5q8 12 24.5 38.5t22.5 38.5q10 23 24.5 69t22.5 65q27 66 94.5 186.5t102.5 153.5q25 25 71 24h28.5h38t38 -1 t38 -3t31 -7t23.5 -13.5t8 -20.5q0 -18 -12 -38.5t-36 -49.5t-28 -35q-29 -45 -63.5 -135t-46.5 -113q-23 -45 -80 -142t-82 -150q-145 -332 -162 -365q-14 -29 -47 -89t-49 -95t-53 -99.5t-52 -93.5q-6 -10 -22 -53t-33.5 -80t-28.5 -45q-14 -8 -36 -8q-12 0 -37 3t-39 3 q-18 0 -51 -3t-50 -3q-94 0 -94 43zM840 526q2 133 102 223.5t248 92.5q127 0 224 -68.5t97 -181.5q0 -74 -47 -134.5t-103 -91t-103.5 -59t-47.5 -47.5q0 -14 39 -14q12 0 39 2t39 2q8 0 11 4t3 7t-1 11.5t-1 10.5q0 16 14.5 20t41 3t30.5 -1q12 0 37 2t35 2q16 0 26.5 -4 t13.5 -13t3 -17.5t-1 -22.5t-1 -21q0 -27 2 -84t2 -84v-2q0 -14 -8 -24q-8 -16 -162 -17q-14 0 -43 2.5t-43 2.5q-16 0 -48 -2.5t-48 -2.5h-281q-53 0 -57 9q-6 12 -10 39q0 109 40 190.5t98 124.5t115.5 71.5t98.5 52t41 48.5q0 23 -18.5 39t-45.5 16q-43 0 -62 -29.5 t-19 -68.5v-8q-2 -6 -3 -8q-6 -6 -53 -6.5t-59 2.5q-12 0 -33.5 -4.5t-28.5 -4.5q-74 0 -73 43z" />
<glyph unicode="&#xbe;" horiz-adv-x="1597" d="M41 1051v9v10v9t2 9.5t4 7.5t6 5t10 1q23 0 68 -1t68 -1q33 0 30 -8q0 -37 32 -71t69 -34q29 0 50 16.5t21 43.5q0 10 -2 18t-5 14t-10 11.5t-11 8.5t-14.5 5t-14.5 3t-16.5 2t-16.5 1h-16h-14q-12 0 -19 4q-6 6 -9 59.5t-1 69.5q0 20 4 31q2 4 37 9t67.5 22.5t32.5 54.5 q0 25 -21.5 38t-47.5 13q-31 0 -49.5 -15.5t-22.5 -34t-15.5 -32.5t-29.5 -14q-20 0 -59 4t-52 4q-25 0 -30 10q-10 10 -11 123q0 18 2 55t2 53.5t6.5 27t19.5 13.5t23.5 4t32 0t29.5 -1q18 0 24.5 -15.5t14.5 -15.5q4 0 29 16q59 23 133 23q98 0 177 -59.5t79 -153.5 q0 -68 -35 -127q-18 -29 -41 -41l-6 -2q-6 -2 -9.5 -4t-3.5 -4t6.5 -6.5t12.5 -8.5t8 -6q90 -63 90 -174q0 -113 -76.5 -183.5t-191.5 -70.5q-104 0 -143 10q-90 27 -143.5 97.5t-53.5 167.5zM203 35q0 27 11 51.5t32.5 59t27.5 47.5q47 88 173 304t186 337q16 31 49 104.5 t55 114.5q8 12 24.5 38.5t22.5 38.5q10 23 24.5 69t22.5 65q27 66 94.5 186.5t102.5 153.5q25 25 72 24h28.5h38t38 -1t37.5 -3t30.5 -7t24 -13.5t8.5 -20.5q0 -18 -12.5 -38.5t-36 -49.5t-27.5 -35q-29 -45 -64 -135t-47 -113q-23 -45 -80 -142t-82 -150 q-145 -332 -161 -365q-14 -29 -47 -89t-49.5 -95t-53.5 -99.5t-51 -93.5q-6 -10 -22.5 -53t-34 -80t-27.5 -45q-14 -8 -37 -8q-12 0 -36.5 3t-39.5 3q-18 0 -51 -3t-49 -3q-94 0 -94 43zM805 442q0 27 49 85.5t129 136t86 84.5q4 4 30.5 43.5t35.5 44.5h67q20 0 87 2t104 0 q16 0 23 -6.5t8 -11.5t-1 -18.5t-2 -17.5q0 -35 2 -141t0 -164q0 -8 3.5 -13t9.5 -7t12 -2t15.5 1t13.5 1q37 0 51 -8t14 -35v-2q0 -162 -10 -166q-16 -4 -27 -4q-12 0 -36.5 4t-34.5 4q-39 0 -39 -27q0 -12 14 -15t33.5 -5t27.5 -10q27 -23 27 -123q0 -10 -1 -17.5 t-4 -13.5t-5 -9t-9.5 -5t-11.5 -4.5t-14 -2.5h-16h-19.5h-21.5q-219 0 -328 3q-18 0 -24.5 7t-10.5 25v86q0 23 18.5 34t40 13t39 12.5t17.5 28.5q0 10 -5 17.5t-17.5 9.5t-19.5 3t-25.5 0t-20.5 -1q-14 0 -41 -3t-39 -3q-16 -2 -98 4q-37 0 -47.5 4t-15.5 16.5t-7 30 t-2 31.5t1 32.5t1 22.5q0 8 -3 24.5t-3 24.5zM1085 446q0 -4 13 -4q78 0 80 6.5t2 18.5v2q0 72 -11 92q0 2 -2 0q-2 0 -8 -7t-12 -15.5t-8 -10.5q-53 -74 -54 -82z" />
<glyph unicode="&#xbf;" horiz-adv-x="1193" d="M4 465q0 102 35 172t83 106.5t97 70.5t83 88t34 132q0 41 32.5 60.5t75.5 19.5q20 0 61.5 -5t61.5 -5q14 0 43 3t41 3q70 0 106 -18.5t36 -81.5q0 -90 -35 -162t-84 -113t-98.5 -74.5t-84 -69.5t-34.5 -75q0 -55 43 -96t98 -41q25 0 72 19.5t47 37.5q0 2 -12.5 12.5 t-26.5 23.5t-19 24q-12 31 -12 65q0 98 63.5 158.5t161.5 60.5q123 0 194 -88t71 -211q0 -207 -161 -356.5t-366 -149.5h-39q-244 0 -405.5 127t-161.5 363zM330 1382q-2 111 61.5 178.5t173.5 67.5q96 0 162 -73t64 -171h2q0 -94 -65.5 -164.5t-160.5 -70.5 q-100 0 -168.5 67.5t-68.5 165.5z" />
<glyph unicode="&#xc0;" horiz-adv-x="1501" d="M10 66q0 276 13 294q2 4 50 31t74 68q29 43 55.5 126t42 150.5t37 175t27.5 136.5l-67 -3q-39 -2 -61.5 16.5t-29 53.5t-6.5 65.5t4.5 73.5t4.5 58q0 94 18 121q27 37 98 36q16 0 51 -4t54 -4q20 0 64 4t67 4q20 0 61 -2t62 -2q39 0 116.5 8.5t116.5 8.5q27 0 47 -13 q20 -10 30.5 -29.5t18 -47t13.5 -39.5q98 -203 123 -285q8 -27 18 -81t18 -81q8 -29 34 -82t34 -80q6 -16 16.5 -61t20.5 -70q8 -20 28.5 -55t28.5 -51q4 -8 6 -26.5t6.5 -32t16.5 -21.5q10 -6 37.5 -9t47 -13.5t19.5 -38.5l7 -277q0 -37 -21.5 -58.5t-60.5 -26.5t-74 -5 t-84 4t-68 4q-57 0 -172 -4q-16 0 -48 -5t-48 -5q-37 0 -57.5 8t-29.5 31.5t-10 37t-3 50.5q0 31 -7.5 92t-7.5 92q0 29 15.5 46.5t33 21.5t50.5 10q-2 6 -5.5 26.5t-7.5 32t-11 25.5t-19.5 22.5t-30.5 8.5q-33 0 -93.5 -4.5t-78.5 -4.5q-37 -29 -37 -77q0 -31 13.5 -41.5 t47.5 -10.5q55 0 56 -61q0 -14 -4 -41t-4 -39q0 -25 3 -76t0 -66.5t-14.5 -40t-41 -31.5t-81.5 -7q-25 0 -69.5 5t-69 5t-89 -5t-99.5 -5q-2 0 -43 -1t-56.5 1t-44 7t-41 21.5t-10.5 41.5zM369 1841q0 12 8 21q2 8 16 8q123 4 246 4q16 0 20 -10q2 -6 27 -85t42 -140.5 t17 -77.5q0 -12 -5 -21.5t-11 -14.5t-19.5 -7t-20.5 -2h-23.5h-20.5q-123 0 -127 10q-8 18 -49 91t-70.5 134t-29.5 90zM608 727h150q10 0 10 12h-2q0 43 -24.5 125t-55.5 82q-33 0 -55.5 -86t-22.5 -133z" />
<glyph unicode="&#xc1;" horiz-adv-x="1482" d="M8 68q0 276 12 294q2 4 50.5 32t74.5 67q29 43 55.5 126t42 150.5t37 175t27.5 136.5l-67 -2q-39 -2 -61.5 16t-29 53t-6.5 65.5t4.5 73.5t4.5 58q0 94 18 121q27 37 98 36q18 0 53 -4t52 -4q20 0 64 4t67 4q20 0 61 -2t62 -2q39 0 116.5 8.5t116.5 8.5q25 0 47 -13 q20 -10 30.5 -29.5t18 -47t13.5 -39.5q98 -203 123 -285q8 -27 18 -81t18 -81q8 -29 34 -82t34 -80q6 -16 16.5 -61t20.5 -70q8 -20 28.5 -55t28.5 -51q4 -8 6 -26.5t6.5 -32t16.5 -21.5q10 -6 37.5 -9t47 -13.5t19.5 -38.5l7 -277q0 -37 -22 -58.5t-60.5 -26.5t-73.5 -5 t-84 4t-68 4q-57 0 -172 -4q-16 0 -48 -5t-48 -5q-37 0 -57.5 8t-29.5 31.5t-10 37t-3 50.5q0 31 -7.5 92t-7.5 92q0 29 15.5 46.5t33 21.5t50.5 10q-2 6 -5.5 26.5t-7.5 32t-11 25.5t-19.5 22.5t-30.5 8.5q-33 0 -93.5 -4.5t-78.5 -4.5q-37 -29 -37 -77q0 -31 13.5 -41.5 t47.5 -10.5q55 0 56 -61q0 -12 -4 -40t-4 -40q0 -25 3 -76t0 -66.5t-14.5 -40t-41 -31.5t-81.5 -7q-23 0 -69.5 5t-69.5 5q-25 0 -89 -5t-99 -5q-2 0 -43 -1t-56.5 1t-44 7t-41 21.5t-10.5 41.5zM526 1556q0 16 22.5 75t51.5 124.5t35 81.5q2 12 18 12q29 0 121 -1t123 -1 q16 0 18 -10q9 -8 9 -20l-2 2q0 -37 -79 -157t-87 -140q-4 -10 -125 -11h-21.5h-24.5t-20.5 2.5t-19.5 7.5t-12.5 14t-6.5 21zM606 729h150q10 0 10 12h-2q0 43 -24.5 125t-55.5 82q-33 0 -55.5 -86t-22.5 -133z" />
<glyph unicode="&#xc2;" horiz-adv-x="1501" d="M10 66q0 276 13 294q2 4 50 31t74 68q29 43 55.5 126t42 150.5t37 175t27.5 136.5l-67 -3q-39 -2 -61.5 16.5t-29 53.5t-6.5 65.5t4.5 73.5t4.5 58q0 94 18 121q27 37 98 36q16 0 51 -4t54 -4q20 0 64 4t67 4q20 0 61 -2t62 -2q39 0 116.5 8.5t116.5 8.5q27 0 47 -13 q20 -10 30.5 -29.5t18 -47t13.5 -39.5q98 -203 123 -285q8 -27 18 -81t18 -81q8 -29 34 -82t34 -80q6 -16 16.5 -61t20.5 -70q8 -20 28.5 -55t28.5 -51q4 -8 6 -26.5t6.5 -32t16.5 -21.5q10 -6 37.5 -9t47 -13.5t19.5 -38.5l7 -277q0 -37 -21.5 -58.5t-60.5 -26.5t-74 -5 t-84 4t-68 4q-57 0 -172 -4q-16 0 -48 -5t-48 -5q-37 0 -57.5 8t-29.5 31.5t-10 37t-3 50.5q0 31 -7.5 92t-7.5 92q0 29 15.5 46.5t33 21.5t50.5 10q-2 6 -5.5 26.5t-7.5 32t-11 25.5t-19.5 22.5t-30.5 8.5q-33 0 -93.5 -4.5t-78.5 -4.5q-37 -29 -37 -77q0 -31 13.5 -41.5 t47.5 -10.5q55 0 56 -61q0 -14 -4 -41t-4 -39q0 -25 3 -76t0 -66.5t-14.5 -40t-41 -31.5t-81.5 -7q-25 0 -69.5 5t-69 5t-89 -5t-99.5 -5q-2 0 -43 -1t-56.5 1t-44 7t-41 21.5t-10.5 41.5zM258 1550q0 37 90 168t98 150q4 10 127 10q8 0 29 1t31 1q16 0 41 -4q123 0 127 -10 q10 -20 99 -139t89 -156q0 -2 -3 -20.5t-3 -20.5q-2 -8 -16 -8q-145 -4 -228 -2q-6 0 -21.5 22.5t-17.5 30.5q-6 16 -33.5 53t-41.5 66q-18 -35 -56.5 -92.5t-42.5 -67.5q-2 -12 -41 -12q-31 0 -92 1t-90 1q-37 0 -37 10zM608 727h150q10 0 10 12h-2q0 43 -24.5 125 t-55.5 82q-33 0 -55.5 -86t-22.5 -133z" />
<glyph unicode="&#xc3;" horiz-adv-x="1501" d="M10 66q0 276 13 294q2 4 50 31t74 68q29 43 55.5 126t42 150.5t37 175t27.5 136.5l-67 -3q-39 -2 -61.5 16.5t-29 53.5t-6.5 65.5t4.5 73.5t4.5 58q0 94 18 121q27 37 98 36q16 0 51 -4t54 -4q20 0 64 4t67 4q20 0 61 -2t62 -2q39 0 116.5 8.5t116.5 8.5q27 0 47 -13 q20 -10 30.5 -29.5t18 -47t13.5 -39.5q98 -203 123 -285q8 -27 18 -81t18 -81q8 -29 34 -82t34 -80q6 -16 16.5 -61t20.5 -70q8 -20 28.5 -55t28.5 -51q4 -8 6 -26.5t6.5 -32t16.5 -21.5q10 -6 37.5 -9t47 -13.5t19.5 -38.5l7 -277q0 -37 -21.5 -58.5t-60.5 -26.5t-74 -5 t-84 4t-68 4q-57 0 -172 -4q-16 0 -48 -5t-48 -5q-37 0 -57.5 8t-29.5 31.5t-10 37t-3 50.5q0 31 -7.5 92t-7.5 92q0 29 15.5 46.5t33 21.5t50.5 10q-2 6 -5.5 26.5t-7.5 32t-11 25.5t-19.5 22.5t-30.5 8.5q-33 0 -93.5 -4.5t-78.5 -4.5q-37 -29 -37 -77q0 -31 13.5 -41.5 t47.5 -10.5q55 0 56 -61q0 -14 -4 -41t-4 -39q0 -25 3 -76t0 -66.5t-14.5 -40t-41 -31.5t-81.5 -7q-25 0 -69.5 5t-69 5t-89 -5t-99.5 -5q-2 0 -43 -1t-56.5 1t-44 7t-41 21.5t-10.5 41.5zM217 1686q0 76 103.5 132t187.5 56q63 0 149 -40t115 -40q43 0 81 33t54 33 q20 0 75.5 -83t55.5 -106q0 -37 -98 -100.5t-139 -63.5q-59 0 -143.5 47.5t-114.5 47.5q-49 0 -103.5 -52.5t-70.5 -52.5q-20 0 -86 83t-66 106zM608 727h150q10 0 10 12h-2q0 43 -24.5 125t-55.5 82q-33 0 -55.5 -86t-22.5 -133z" />
<glyph unicode="&#xc4;" horiz-adv-x="1501" d="M8 68q0 276 12 294q2 4 50.5 32t74.5 67q29 43 55.5 126t42 150.5t37 175t27.5 136.5l-67 -2q-39 -2 -61.5 16t-29 53t-6.5 65.5t4.5 73.5t4.5 58q0 94 18 121q27 37 98 36q18 0 53 -4t52 -4q20 0 64 4t67 4q20 0 61 -2t62 -2q39 0 116.5 8.5t116.5 8.5q25 0 47 -13 q20 -10 30.5 -29.5t18 -47t13.5 -39.5q98 -203 123 -285q8 -27 18 -81t18 -81q8 -29 34 -82t34 -80q6 -16 16.5 -61t20.5 -70q8 -20 28.5 -55t28.5 -51q4 -8 6 -26.5t6.5 -32t16.5 -21.5q10 -6 37.5 -9t47 -13.5t19.5 -38.5l7 -277q0 -37 -22 -58.5t-60.5 -26.5t-73.5 -5 t-84 4t-68 4q-57 0 -172 -4q-16 0 -48 -5t-48 -5q-37 0 -57.5 8t-29.5 31.5t-10 37t-3 50.5q0 31 -7.5 92t-7.5 92q0 29 15.5 46.5t33 21.5t50.5 10q-2 6 -5.5 26.5t-7.5 32t-11 25.5t-19.5 22.5t-30.5 8.5q-33 0 -93.5 -4.5t-78.5 -4.5q-37 -29 -37 -77q0 -31 13.5 -41.5 t47.5 -10.5q55 0 56 -61q0 -12 -4 -40t-4 -40q0 -25 3 -76t0 -66.5t-14.5 -40t-41 -31.5t-81.5 -7q-23 0 -69.5 5t-69.5 5q-25 0 -89 -5t-99 -5q-2 0 -43 -1t-56.5 1t-44 7t-41 21.5t-10.5 41.5zM154 1694q0 72 52 122t124 50q82 0 132 -47t50 -129q-2 -74 -55.5 -121 t-126.5 -47q-74 -2 -125 47t-51 125zM606 729h150q10 0 10 12h-2q0 43 -24.5 125t-55.5 82q-33 0 -55.5 -86t-22.5 -133zM612 1693.5q0 73.5 51.5 124t124.5 50.5q80 2 132.5 -44t52.5 -126h-2q0 -74 -53.5 -125t-129.5 -51q-74 0 -125 49t-51 122.5z" />
<glyph unicode="&#xc5;" horiz-adv-x="1501" d="M10 63q0 276 13 295q2 4 50 32t74 67q29 43 55.5 126t42 150.5t37 175t27.5 135.5h-67q-39 0 -61.5 18.5t-29 53.5t-6.5 64.5t4.5 71.5t4.5 57q0 94 18 121q27 37 98 36q16 0 51 -4t54 -4q20 0 64 4t67 4q20 0 61 -2t62 -2q39 0 116.5 8.5t116.5 8.5q27 0 47 -13 q20 -10 30.5 -29.5t18 -47t13.5 -39.5q98 -203 123 -285q8 -27 18 -81t18 -81q8 -29 34 -82t34 -80q6 -16 16.5 -61t20.5 -70q8 -20 28.5 -55t28.5 -51q4 -8 6 -26.5t6.5 -32t16.5 -21.5q10 -6 37.5 -9t47 -13.5t19.5 -39.5l7 -276q0 -37 -21.5 -58.5t-60.5 -26.5t-74 -5 t-84 4t-68 4q-57 0 -172 -4q-16 0 -48 -5t-48 -5q-37 0 -57.5 8t-29.5 31.5t-10 37t-3 50.5q0 31 -7.5 92t-7.5 92q0 29 15.5 46.5t33 21.5t50.5 10q-2 6 -5.5 26.5t-7.5 32t-11 25.5t-19.5 22.5t-30.5 8.5q-33 0 -93.5 -4.5t-78.5 -4.5q-37 -29 -37 -77q0 -31 13.5 -41.5 t47.5 -10.5q55 0 56 -61q0 -12 -4 -39t-4 -41q0 -25 3 -76t0 -66.5t-14.5 -40t-41 -31.5t-81.5 -7q-25 0 -69.5 5t-69 5t-89 -5t-99.5 -5q-2 0 -43 -1t-56.5 1t-44 7t-41 21.5t-10.5 40.5zM236 1835q0 141 95 233.5t236 90.5q141 0 250 -101.5t109 -238.5v-2 q0 -127 -92.5 -217.5t-221.5 -90.5q-162 0 -269 83t-107 243zM432 1823q0 -113 141 -113q144 0 144 117q0 49 -39 83t-88 34q-61 0 -109.5 -31t-48.5 -90zM608 725h150q10 0 10 12h-2q0 43 -24.5 125t-55.5 82q-33 0 -55.5 -86t-22.5 -133z" />
<glyph unicode="&#xc6;" horiz-adv-x="2086" d="M8 72q33 287 64 329q2 4 55 34t86 75q35 47 75 140t65.5 166t64.5 196t49 151l-68 -2q-39 -2 -58 18.5t-19 59.5t4 71.5t15 82t13 63.5q14 104 37 135q31 39 103 39q16 0 51 -4t53 -4q20 0 65.5 5t66 5t61 -2t61.5 -2q35 0 116 8.5t122 8.5q23 0 43 -11q4 -4 4 -8 q57 -4 86 -4q96 0 290.5 5t292.5 5q104 0 123 -12q33 -20 33 -117q0 -2 6 -346q0 -33 -4 -50t-21.5 -25.5t-31 -9.5t-49.5 -1q-25 0 -75 -8t-75 -8q-27 0 -45 1t-30.5 9t-18.5 10t-9 20.5t-4 24.5t-1 36v42q-115 8 -152 8q-25 2 -41 -15t-16 -38v-154q0 -6 1 -11t5 -8t6 -4 t9 -2t10.5 -1h11.5h10q14 0 82.5 4t83.5 4q41 0 53 -20.5t12 -65.5q0 -31 -3 -95.5t-3 -97.5q0 -18 -4 -31.5t-14 -20.5t-18.5 -12t-25 -6t-26.5 -2t-30.5 0t-28.5 1q-18 0 -58.5 -8.5t-40.5 -18.5l-2 -188q0 -12 34 -19.5t54 -7.5q78 0 100.5 18.5t22.5 81.5q0 72 52 72 q39 0 117.5 -1t117.5 -1q61 0 72.5 -14.5t11.5 -77.5q0 -33 -4 -96.5t-4 -94.5q0 -25 4 -73.5t4 -71.5q0 -84 -27.5 -108.5t-113.5 -24.5q-23 0 -70 5t-72 5q-27 0 -83 -5t-85 -5q-76 0 -227 4q-41 -4 -59.5 -3t-62.5 4t-56 3h-92h-15q-14 0 -39.5 -4t-33.5 -4q-12 0 -25 6 l-2 -2q-16 0 -49 -5t-51 -5q-68 0 -80 42t4 99q6 35 7 104.5t5 100.5t23.5 50.5t36 24.5t53.5 11q0 6 -1 28.5t-3 35t-7 28.5t-16.5 24.5t-29.5 8.5q-33 0 -172 -10q-45 -33 -52 -82q-6 -35 6.5 -47.5t47.5 -12.5q55 0 47 -67q-2 -16 -11.5 -45t-11.5 -43q-4 -29 -9 -84.5 t-10 -73.5t-20.5 -45t-46.5 -35t-82 -8q-25 0 -68.5 6t-68.5 6q-33 0 -95.5 -5t-92.5 -5q-10 0 -44 -1t-55.5 0t-47 7t-36 23.5t-6.5 44.5zM715 811l147 -2q11 0 15 14v2q8 47 -5.5 138.5t-46.5 89.5q-33 0 -69.5 -96.5t-40.5 -145.5z" />
<glyph unicode="&#xc7;" horiz-adv-x="1302" d="M2 856q0 127 45 264t123 253t196.5 190.5t254.5 74.5q53 0 122.5 -22.5t114.5 -42.5l45 -21q6 0 36 33t69 33q12 0 34.5 -4t32.5 -4q18 0 55 3t54 3q27 0 41 -17.5t15 -33t1 -45.5q0 -41 -8 -119t-8 -119q0 -37 8 -109.5t8 -109.5q0 -117 -31 -123q-14 -2 -43 -2 q-25 0 -71.5 3t-69.5 3q-18 0 -55 -5t-53 -5q-45 0 -72 22.5t-39 55t-25.5 64.5t-46.5 54.5t-86 22.5q-57 0 -101 -40t-66.5 -102.5t-33 -122t-10.5 -112.5q0 -80 19.5 -152.5t74 -130t136.5 -57.5q57 0 90 31t40 66.5t23.5 66.5t44.5 31q23 0 69 -8.5t70.5 -8.5t74.5 6.5 t77 6.5q29 0 44.5 -21.5t16.5 -40t1 -53.5q0 -109 -53.5 -216.5t-137.5 -178.5q-70 -57 -114 -77t-134 -30q-25 -2 -20 -41q0 -39 22 -43q16 -2 42 -4t45.5 -6t37.5 -12q139 -68 140 -246q0 -115 -94.5 -207t-209.5 -92q-113 0 -202.5 65.5t-89.5 172.5q0 33 22.5 83 t50.5 50q16 0 35 -22.5t33 -48.5t40.5 -48.5t59.5 -22.5q39 0 64.5 23.5t25.5 60.5q0 43 -37.5 78t-80.5 33q-16 0 -37 -10.5t-27 -10.5q-29 0 -47 9.5t-25.5 34t-9.5 36t-1 49t1 41.5q0 49 -18 78q-6 8 -66.5 37t-142.5 86t-139 137q-150 211 -150 586z" />
<glyph unicode="&#xc8;" horiz-adv-x="1198" d="M8 1171q0 12 6 38t6 38q4 29 -1 83t-5 73q0 29 24.5 46t52.5 21.5t63 4.5q29 0 89 -6.5t91 -6.5q109 0 307.5 5.5t276.5 5.5h20q49 0 67.5 -2.5t38 -12.5t24.5 -33.5t5 -68.5q0 -4 6 -312q0 -55 -20.5 -66t-85.5 -11q-25 0 -75 -7.5t-75 -7.5q-27 0 -45 1t-30.5 8.5 t-18.5 9.5t-9 18.5t-4 21.5t-1 31.5v36.5q-86 6 -90 6q-37 0 -37 -47l-2 -153q0 -6 1 -9.5t3 -6.5t6 -5t7 -3t9 -1h9.5h10.5h9q14 0 42 4t42 4q43 0 54.5 -12t11.5 -51q0 -27 -3.5 -84t-3.5 -86q0 -16 -2 -27.5t-8 -18.5t-10 -12.5t-16.5 -6.5t-18.5 -1h-24.5h-26.5 q-14 0 -35.5 -7t-21.5 -17l-3 -168q0 -10 16.5 -17.5t29.5 -7.5q27 0 42 2t24 3t12 11.5t4.5 15.5t1.5 26.5v33.5q0 61 51 62q78 -2 235 -2q61 0 72.5 -12.5t11.5 -69.5q0 -29 -4 -86t-4 -84q0 -23 4 -67t4 -66q0 -76 -27.5 -97.5t-113.5 -23.5q-23 0 -70 5t-71 5 q-29 0 -84.5 -3t-81.5 -3q-55 0 -158.5 2t-187.5 3t-158 1q-14 0 -43 -3t-43 -3q-23 0 -42.5 12.5t-19.5 32.5q0 37 1 103.5t2.5 122t3.5 104.5q2 47 88 47q18 0 29.5 15.5t14.5 43t4 50t-1 52t-2 33.5q0 39 4 115t5 115t-3 115l-2 30q-2 20 -18.5 26.5t-37 3.5t-40.5 5 q-23 10 -35.5 24.5t-16.5 40t-5 36t-1 42.5zM268 1804q0 12 8 21q2 8 17 8q123 4 248 4q16 0 18 -10q4 -14 55.5 -138t51.5 -147q0 -12 -6.5 -21.5t-12.5 -13.5t-18.5 -6t-19.5 -2h-23.5h-20.5q-123 0 -127 10q-8 16 -88 137t-82 158z" />
<glyph unicode="&#xc9;" horiz-adv-x="1198" d="M8 1171q0 12 6 38t6 38q4 29 -1 83t-5 73q0 29 24.5 46t52.5 21.5t63 4.5q29 0 89 -6.5t91 -6.5q109 0 307.5 5.5t276.5 5.5h20q49 0 67.5 -2.5t38 -12.5t24.5 -33.5t5 -68.5q0 -4 6 -312q0 -55 -20.5 -66t-85.5 -11q-25 0 -75 -7.5t-75 -7.5q-27 0 -45 1t-30.5 8.5 t-18.5 9.5t-9 18.5t-4 21.5t-1 31.5v36.5q-86 6 -90 6q-37 0 -37 -47l-2 -153q0 -6 1 -9.5t3 -6.5t6 -5t7 -3t9 -1h9.5h10.5h9q14 0 42 4t42 4q43 0 54.5 -12t11.5 -51q0 -27 -3.5 -84t-3.5 -86q0 -16 -2 -27.5t-8 -18.5t-10 -12.5t-16.5 -6.5t-18.5 -1h-24.5h-26.5 q-14 0 -35.5 -7t-21.5 -17l-3 -168q0 -10 16.5 -17.5t29.5 -7.5q27 0 42 2t24 3t12 11.5t4.5 15.5t1.5 26.5v33.5q0 61 51 62q78 -2 235 -2q61 0 72.5 -12.5t11.5 -69.5q0 -29 -4 -86t-4 -84q0 -23 4 -67t4 -66q0 -76 -27.5 -97.5t-113.5 -23.5q-23 0 -70 5t-71 5 q-29 0 -84.5 -3t-81.5 -3q-55 0 -158.5 2t-187.5 3t-158 1q-14 0 -43 -3t-43 -3q-23 0 -42.5 12.5t-19.5 32.5q0 37 1 103.5t2.5 122t3.5 104.5q2 47 88 47q18 0 29.5 15.5t14.5 43t4 50t-1 52t-2 33.5q0 39 4 115t5 115t-3 115l-2 30q-2 20 -18.5 26.5t-37 3.5t-40.5 5 q-23 10 -35.5 24.5t-16.5 40t-5 36t-1 42.5zM424 1554q0 16 22.5 75t51 124.5t34.5 81.5q2 12 21 12q29 0 121 -1t123 -1q16 0 16 -10l2 -4l4 -8t2 -6q0 -37 -79.5 -159t-88.5 -138q-4 -10 -125 -11h-21.5h-24.5t-20 2t-19.5 7.5t-12.5 14.5t-6 21z" />
<glyph unicode="&#xca;" horiz-adv-x="1198" d="M10 1169q0 12 6.5 38t6.5 38q4 29 -1.5 83t-5.5 73q0 29 25 46t52.5 21.5t62.5 4.5q29 0 89 -6.5t91 -6.5q109 0 307.5 5t276.5 5h20q49 0 67.5 -2t38 -12t24.5 -33.5t5 -68.5q0 -4 6 -312q0 -55 -20.5 -66t-85.5 -11q-25 0 -75 -7.5t-75 -7.5q-27 0 -45 1t-30.5 8.5 t-18.5 9.5t-9 18.5t-4 21.5t-1 31.5v36.5q-86 6 -90 6q-37 0 -37 -47l-2 -153q0 -6 1 -9.5t3 -6.5t6 -5t7 -3t9.5 -1h9.5h10h9q14 0 42 4t42 4q43 0 54.5 -12t11.5 -51q0 -27 -3.5 -84t-3.5 -86q0 -16 -2 -27.5t-8 -18.5t-10 -12.5t-16.5 -6.5t-18.5 -1h-24.5h-26.5 q-14 0 -35.5 -7t-21.5 -17l-2 -168q0 -10 16 -17.5t29 -7.5q27 0 42 2t24 3t12.5 11.5t4.5 15.5t1 26.5v33.5q0 61 51 62q78 -2 235 -2q61 0 72.5 -12.5t11.5 -69.5q0 -29 -4 -86.5t-4 -83.5q0 -23 4 -67t4 -66q0 -76 -27.5 -97.5t-113.5 -23.5q-25 0 -72 5t-69 5 q-27 0 -82.5 -3t-83.5 -3q-55 0 -158.5 2t-187.5 3t-158 1q-14 0 -43 -3t-43 -3q-23 0 -42.5 12.5t-19.5 32.5q0 37 1.5 103.5t2.5 122t3 104.5q2 47 88 47q18 0 29.5 15.5t14.5 43t4 50t-1 52t-2 33.5q0 39 4 115t5 115t-3 115l-2 30q-2 20 -18.5 26.5t-37 3.5t-40.5 5 q-23 10 -35.5 24.5t-16.5 40t-5 36t-1 42.5zM186 1544q0 37 89.5 167t97.5 151q4 10 127 10q8 0 28.5 1t30.5 1q16 0 41 -4q123 0 127 -10q10 -20 99 -139t89 -156h3q0 -33 -9 -41q-2 -8 -16 -8q-145 -4 -225 -3q-6 0 -21.5 21.5t-19.5 32.5q-4 16 -32 52t-42 67 q-18 -37 -57 -93.5t-43 -66.5q-2 -12 -39 -13q-29 0 -90.5 1.5t-92.5 1.5q-37 0 -38 10l-3 6q-2 4 -2 8z" />
<glyph unicode="&#xcb;" horiz-adv-x="1198" d="M8 1171q0 12 6 38t6 38q4 29 -1 83t-5 73q0 29 24.5 46t52.5 21.5t63 4.5q29 0 89 -6.5t91 -6.5q109 0 307.5 5.5t276.5 5.5h20q49 0 67.5 -2.5t38 -12.5t24.5 -33.5t5 -68.5q0 -4 6 -312q0 -55 -20.5 -66t-85.5 -11q-25 0 -75 -7.5t-75 -7.5q-27 0 -45 1t-30.5 8.5 t-18.5 9.5t-9 18.5t-4 21.5t-1 31.5v36.5q-86 6 -90 6q-37 0 -37 -47l-2 -153q0 -6 1 -9.5t3 -6.5t6 -5t7 -3t9 -1h9.5h10.5h9q14 0 42 4t42 4q43 0 54.5 -12t11.5 -51q0 -27 -3.5 -84t-3.5 -86q0 -16 -2 -27.5t-8 -18.5t-10 -12.5t-16.5 -6.5t-18.5 -1h-24.5h-26.5 q-14 0 -35.5 -7t-21.5 -17l-3 -168q0 -10 16.5 -17.5t29.5 -7.5q27 0 42 2t24 3t12 11.5t4.5 15.5t1.5 26.5v33.5q0 61 51 62q78 -2 235 -2q61 0 72.5 -12.5t11.5 -69.5q0 -29 -4 -86t-4 -84q0 -23 4 -67t4 -66q0 -76 -27.5 -97.5t-113.5 -23.5q-23 0 -70 5t-71 5 q-29 0 -84.5 -3t-81.5 -3q-55 0 -158.5 2t-187.5 3t-158 1q-14 0 -43 -3t-43 -3q-23 0 -42.5 12.5t-19.5 32.5q0 37 1 103.5t2.5 122t3.5 104.5q2 47 88 47q18 0 29.5 15.5t14.5 43t4 50t-1 52t-2 33.5q0 39 4 115t5 115t-3 115l-2 30q-2 20 -18.5 26.5t-37 3.5t-40.5 5 q-23 10 -35.5 24.5t-16.5 40t-5 36t-1 42.5zM123 1675q0 72 52 122t126 50q82 0 132 -47t50 -129q-2 -74 -55 -120t-129 -48q-76 0 -126 48t-50 124zM582 1675q0 74 51 124t123 50q80 2 132 -44t52 -126q0 -76 -53 -126t-131 -50q-74 0 -125 49.5t-49 122.5z" />
<glyph unicode="&#xcc;" horiz-adv-x="917" d="M8 322q0 39 21.5 58t44 21t67.5 2h15q20 0 31.5 18.5t12.5 48.5t0 57.5t-4 58t-3 39.5q0 49 4 144t4 142q0 78 -19.5 98.5t-54.5 18.5t-51 16q-14 14 -17.5 47t-0.5 83.5t3 52.5q0 27 -12 78t-12 77q0 33 26.5 52.5t74.5 23.5t89 4t94.5 -3t67.5 -3q37 0 106.5 5t106.5 5 q158 0 158 -71q0 -23 -5 -68t-5 -65q0 -25 5 -76t5 -78q0 -53 -34 -64.5t-62.5 -2t-32.5 -23.5v-68q0 -31 7 -93t7 -95q0 -39 -7 -120t-7 -122q0 -76 31.5 -104.5t70.5 -23.5t71 -9.5t32 -63.5q0 -23 -7.5 -63.5t-7.5 -58.5q0 -20 3 -61.5t3 -61.5q0 -51 -26 -58 q-29 -8 -68 -9t-90 2t-70 3q-68 0 -200.5 -3t-198.5 -3q-53 0 -85 5t-49 12.5t-22.5 27t-5.5 34.5t3 53t3 67q0 20 -5 59t-5 58zM160 1804q0 2 3 10.5t3 10.5q2 8 16 8q123 4 248 4q16 0 21 -10q4 -14 55 -138t51 -147q0 -12 -6 -21.5t-12.5 -13.5t-18.5 -6t-19 -2h-23.5 h-20.5q-123 0 -129 10q-6 14 -87 136t-81 159z" />
<glyph unicode="&#xcd;" horiz-adv-x="917" d="M8 322q0 39 21.5 58t44 21t67.5 2h15q20 0 31.5 18.5t12.5 48.5t0 57.5t-4 58t-3 39.5q0 49 4 144t4 142q0 78 -19.5 98.5t-54.5 18.5t-51 16q-14 14 -17.5 47t-0.5 83.5t3 52.5q0 27 -12 78t-12 77q0 33 26.5 52.5t74.5 23.5t89 4t94.5 -3t67.5 -3q37 0 106.5 5t106.5 5 q158 0 158 -71q0 -23 -5 -68t-5 -65q0 -25 5 -76t5 -78q0 -53 -34 -64.5t-62.5 -2t-32.5 -23.5v-68q0 -31 7 -93t7 -95q0 -39 -7 -120t-7 -122q0 -76 31.5 -104.5t70.5 -23.5t71 -9.5t32 -63.5q0 -23 -7.5 -63.5t-7.5 -58.5q0 -20 3 -61.5t3 -61.5q0 -51 -26 -58 q-29 -8 -68 -9t-90 2t-70 3q-68 0 -200.5 -3t-198.5 -3q-53 0 -85 5t-49 12.5t-22.5 27t-5.5 34.5t3 53t3 67q0 20 -5 59t-5 58zM250 1534q0 20 51 144t55 137q2 12 21 12q29 0 121 -1t123 -1q16 0 16 -10l2 -5l4 -8t2 -6q0 -37 -80 -158.5t-88 -138.5q-4 -10 -125 -10 h-21.5h-24.5t-20.5 2t-19.5 7t-11 14.5t-5 21.5z" />
<glyph unicode="&#xce;" horiz-adv-x="917" d="M10 319q0 39 21.5 58.5t44 21.5t67.5 2h15q20 0 31.5 18.5t12.5 48.5t0 57.5t-4 58t-3 39.5q0 49 4 144t4 142q0 78 -19.5 98.5t-54.5 18.5t-51 16q-14 14 -17.5 47t-0.5 83.5t3 52.5q0 27 -12 78t-12 77q0 33 26.5 52.5t74.5 23.5t89 4t94.5 -3t67.5 -3q37 0 107.5 5 t105.5 5q158 0 158 -71q0 -23 -5 -68t-5 -65q0 -27 5 -78.5t5 -75.5q0 -53 -34 -64.5t-62.5 -2t-32.5 -23.5v-68q0 -31 7 -93t7 -95q0 -39 -7 -120t-7 -122q0 -76 31.5 -104.5t70.5 -23.5t71 -9.5t32 -63.5q0 -23 -7.5 -63.5t-7.5 -58.5q0 -20 3 -61.5t3 -61.5 q0 -51 -26 -58q-29 -8 -68 -9t-90 2t-70 3q-68 0 -200.5 -3t-198.5 -3q-53 0 -85 5t-49 12.5t-22.5 27t-5.5 34.5t3 53t3 67q0 18 -5 57t-5 59zM20 1520v4q0 37 89.5 167t97.5 150q4 10 127 10q8 0 28.5 1t30.5 1q16 0 41 -4q123 0 127 -10q10 -20 99.5 -139t89.5 -156h2 q0 -33 -9 -41q-2 -8 -16 -8q-145 -4 -225 -2q-6 0 -21.5 21.5t-19.5 31.5q-6 16 -34 53t-42 66q-18 -35 -56 -92t-42 -68q-2 -12 -39 -12q-31 0 -91.5 1t-90.5 1q-37 0 -39 10l-2 6q-2 4 -5 9z" />
<glyph unicode="&#xcf;" horiz-adv-x="917" d="M8 322q0 39 21.5 58t44 21t67.5 2h15q20 0 31.5 18.5t12.5 48.5t0 57.5t-4 58t-3 39.5q0 49 4 144t4 142q0 78 -19.5 98.5t-54.5 18.5t-51 16q-14 14 -17.5 47t-0.5 83.5t3 52.5q0 27 -12 78t-12 77q0 33 26.5 52.5t74.5 23.5t89 4t94.5 -3t67.5 -3q37 0 106.5 5t106.5 5 q158 0 158 -71q0 -23 -5 -68t-5 -65q0 -25 5 -76t5 -78q0 -53 -34 -64.5t-62.5 -2t-32.5 -23.5v-68q0 -31 7 -93t7 -95q0 -39 -7 -120t-7 -122q0 -76 31.5 -104.5t70.5 -23.5t71 -9.5t32 -63.5q0 -23 -7.5 -63.5t-7.5 -58.5q0 -20 3 -61.5t3 -61.5q0 -51 -26 -58 q-29 -8 -68 -9t-90 2t-70 3q-68 0 -200.5 -3t-198.5 -3q-53 0 -85 5t-49 12.5t-22.5 27t-5.5 34.5t3 53t3 67q0 20 -5 59t-5 58zM10 1663q0 72 52 122t124 50q80 0 130.5 -47t52.5 -127q0 -76 -53.5 -123t-129.5 -47q-74 -2 -125 47t-51 125zM467 1663q0 74 51 124t123 50 q80 2 132 -44t52 -126q0 -74 -53 -125t-129 -51q-74 0 -125 49t-51 123z" />
<glyph unicode="&#xd0;" horiz-adv-x="1425" d="M4 860q0 92 139 88q0 51 7 105q0 8 6 29.5t6 33.5q0 37 -23.5 51.5t-53.5 13.5t-53.5 14t-23.5 54q0 12 3 40t3 42q-4 111 -4 164q2 84 40 114.5t124 30.5q25 0 71 -7t66 -7q109 -4 165 -6t149.5 -12.5t147.5 -25.5t129 -45t125 -71t104.5 -101t97.5 -140 q110 -199 110 -406v-2q0 -76 -14 -184q-16 -102 -67.5 -213t-127 -204t-181 -153.5t-214.5 -60.5l-614 -2q-31 0 -72 17.5t-41 43.5q0 14 4 43t4 46q0 33 -3 98t-3 98q0 61 23.5 84t51.5 17.5t51.5 10t23.5 64.5q0 63 -6 131h-82q-18 0 -30.5 7.5t-19 16.5t-9.5 26.5 t-4 27.5t0 31.5t1 25.5q0 12 -3 37t-3 35zM563 944q16 -2 51 -2q8 0 26.5 3t29.5 3q53 0 53 -90q0 -10 -3 -31.5t-3 -31.5q0 -8 3 -24.5t3 -25.5q0 -33 -32 -61.5t-64 -28.5h-58l4 -213q31 -12 66 -12q119 0 180.5 117t61.5 248h2q0 59 -8.5 116.5t-28 123t-62.5 106.5 t-104 41q-84 0 -98 -17q-18 -25 -19 -188v-33z" />
<glyph unicode="&#xd1;" horiz-adv-x="1519" d="M14 1044q0 29 2 124.5t0 148.5q0 14 5.5 46t5.5 48q0 20 13 33.5t38.5 17.5t45 5t50.5 -1t37 -2q31 0 94.5 4.5t95.5 4.5h39q41 0 85 -54.5t91.5 -137.5t57.5 -97q18 -25 64 -93.5t75 -103.5q6 -6 22.5 -37.5t31 -58.5t18.5 -27q10 0 10 23l2 170q0 12 -2 20t-10 10.5 t-13.5 3.5t-18.5 0t-22 -1q-39 0 -57 10t-18 43q0 12 4 34.5t4 32.5q0 18 -6 53t-6 52q0 123 41 145q12 6 26 6q45 0 135 -3t136 -3q39 0 115.5 4t115.5 4q51 0 69.5 -3t31 -20.5t12.5 -60.5q0 -49 -4.5 -147t-4.5 -147q0 -53 -98 -54q-23 0 -24 -12q-16 -190 -17 -510 q0 -43 35 -51t74 0q18 0 27.5 -5t13.5 -20.5t4 -20.5v-30q0 -53 -5 -160.5t-5 -158.5q0 -68 -99 -68q-20 0 -63 3t-65.5 3t-70 -3t-71.5 -3q-61 0 -76 20q-53 80 -155.5 250t-161.5 256q-4 6 -23.5 40t-38 59.5t-26.5 25.5q-14 0 -15 -67v-111q0 -37 17.5 -46t41 -8 t33.5 -11q10 -16 15.5 -39t6.5 -38.5t0 -46t-1 -38.5q0 -31 10 -91.5t10 -91.5q0 -27 -11 -41t-31.5 -18t-40 -3t-49 4t-44.5 3q-25 0 -73 -4t-72 -4q-20 0 -63.5 4t-65.5 4q-27 0 -80 -4t-82 -4q-23 0 -36 22.5t-17 62.5t-5 71.5t1 74.5t2 48q0 86 6 127q2 10 56 19t59 28 q6 29 6 86v376q0 61 -17.5 80t-81.5 19q-18 0 -32.5 7t-12.5 23zM299 1706q0 76 103.5 132t187.5 56q63 0 149 -39.5t115 -39.5q43 0 81 32.5t54 32.5q20 0 75.5 -82.5t55.5 -105.5q0 -37 -98 -100.5t-139 -63.5q-59 0 -143.5 47t-114.5 47q-49 0 -103.5 -52t-70.5 -52 q-20 0 -86 82.5t-66 105.5z" />
<glyph unicode="&#xd2;" horiz-adv-x="1626" d="M2 737q0 150 53.5 268.5t165.5 239.5q119 123 245 173t308 52l19 -2q162 2 306 -47t234 -153q125 -147 178.5 -267t53.5 -288h-2q0 -309 -223.5 -516t-563.5 -207q-223 0 -402 103.5t-275.5 273.5t-96.5 370zM451 711q0 -117 86 -214.5t213 -97.5q158 0 244.5 103.5 t88.5 251.5q0 102 -89 200.5t-199 98.5q-160 2 -252 -96.5t-92 -245.5zM532 1812q0 12 9 21q2 8 16 8q123 4 246 4q16 0 20 -10q4 -14 55.5 -138.5t51.5 -144.5q0 -12 -5 -21t-11.5 -14.5t-19.5 -7.5t-20.5 -2h-23.5h-21q-123 0 -127 11q-8 16 -87.5 137t-82.5 157z" />
<glyph unicode="&#xd3;" horiz-adv-x="1626" d="M2 739q0 150 53.5 268.5t165.5 239.5q119 123 245 173t308 53l19 -3q162 2 306 -47t234 -153q125 -147 178.5 -267t53.5 -288h-2q0 -309 -223.5 -516t-563.5 -207q-223 0 -402 103.5t-275.5 273.5t-96.5 370zM451 713q0 -117 86 -214.5t213 -97.5q160 0 246.5 105 t86.5 252q-2 102 -91 199.5t-197 97.5q-160 2 -252 -96.5t-92 -245.5zM668 1559q0 20 51 144t55 136q2 12 21 12q29 0 121 -1t122 -1q17 0 17 -10l2 -4l4 -8t2 -6q0 -37 -80 -159t-88 -138q-4 -10 -125 -11h-21.5h-24.5t-20.5 2.5t-19.5 7.5t-11 14t-5 22z" />
<glyph unicode="&#xd4;" horiz-adv-x="1626" d="M2 737q0 150 53.5 268.5t165.5 239.5q119 123 245 173t308 52l19 -2q162 2 306 -47t234 -153q125 -147 178.5 -267t53.5 -288h-2q0 -309 -223.5 -516t-563.5 -207q-223 0 -402 103.5t-275.5 273.5t-96.5 370zM434 1522q0 37 90 168t99 149q4 10 127 10q8 0 28.5 1t30.5 1 q16 0 41 -4q123 0 127 -10q10 -20 99 -139t89 -156q0 -2 -3 -20.5t-3 -20.5q-2 -8 -16 -8q-143 -4 -228 -2q-6 0 -21 22.5t-17 30.5q-6 16 -34 53t-42 66q-18 -35 -56 -92.5t-43 -67.5q-2 -12 -40 -12q-31 0 -92.5 1t-90.5 1q-37 0 -37 10zM451 711q0 -117 86 -214.5 t213 -97.5q160 0 246.5 105t86.5 252q-2 102 -91 199.5t-197 97.5q-160 2 -252 -96.5t-92 -245.5z" />
<glyph unicode="&#xd5;" horiz-adv-x="1626" d="M2 737q0 150 53.5 268.5t165.5 239.5q119 123 245 173t308 52l19 -2q162 2 306 -47t234 -153q125 -147 178.5 -267t53.5 -288h-2q0 -309 -223.5 -516t-563.5 -207q-223 0 -402 103.5t-275.5 273.5t-96.5 370zM395 1700q0 76 103.5 132t187.5 56q63 0 149.5 -40t114.5 -40 q43 0 81 33t54 33q20 0 76 -82.5t56 -105.5q0 -37 -98.5 -100.5t-139.5 -63.5q-59 0 -143 47t-115 47q-49 0 -103.5 -52.5t-70.5 -52.5q-20 0 -86 83t-66 106zM451 711q0 -117 86 -214.5t213 -97.5q160 0 246.5 105t86.5 252q-2 102 -91 199.5t-197 97.5q-160 2 -252 -96.5 t-92 -245.5z" />
<glyph unicode="&#xd6;" horiz-adv-x="1626" d="M0 739q0 150 53 268.5t166 239.5q119 123 245 173t308 53l19 -3q162 2 306 -47t234 -153q125 -147 178.5 -267t53.5 -288h-2q0 -309 -223.5 -516t-563.5 -207q-223 0 -402 103.5t-275.5 273.5t-96.5 370zM395 1673q0 72 52.5 122t123.5 50q82 0 132.5 -47t50.5 -129 q-2 -74 -55.5 -121t-127.5 -47q-74 -2 -125 47t-51 125zM449 713q0 -117 86 -214.5t213 -97.5q158 0 244.5 103.5t88.5 251.5q0 102 -89 200.5t-199 98.5q-160 2 -252 -96.5t-92 -245.5zM854 1673q0 74 51 124t125 50q80 2 132 -44t52 -126h-2q0 -74 -53 -125t-129 -51 q-74 0 -125 49t-51 123z" />
<glyph unicode="&#xd7;" horiz-adv-x="1245" d="M58.5 311q-1.5 19 8 35t28 35.5t34.5 33t37.5 30t30.5 24.5q16 14 67 67.5t68 69.5q12 14 12 19.5t-12 19.5q-29 31 -124 122t-122 122q-49 53 49 139q16 14 51 38t50 38q10 10 28.5 29.5t24.5 25.5q41 35 84 -12q131 -154 139 -162q31 -35 54.5 -52.5t40 -25.5t36 3.5 t30.5 20.5t40.5 38.5t50.5 48.5q8 8 36.5 35.5t49 45t48.5 35t52.5 15.5t44.5 -23q180 -197 170 -213v-2q-14 -25 -84 -84q-20 -18 -78.5 -82.5t-74.5 -78.5q-6 -4 -22.5 -15.5t-24.5 -19.5q-23 -20 -4 -43q10 -12 34.5 -31.5t34.5 -30.5l94 -110q10 -10 41 -39t43.5 -45.5 t12.5 -42t-27 -49.5q-63 -57 -92 -83t-66 -45.5t-50 -21.5t-45 15.5t-49 37t-65 68.5q-74 80 -127 133q-25 20 -39 18t-40 -24q-33 -29 -117 -117t-111 -115q-14 -8 -28.5 -9t-36 13.5t-40 29t-41 37t-36.5 39.5t-30.5 35.5t-22.5 24.5q-14 16 -15.5 35z" />
<glyph unicode="&#xd8;" horiz-adv-x="1626" d="M2 821q0 166 53.5 298t165.5 263q119 137 245 192.5t308 57.5l21 2q172 0 311 -55q23 27 31 33q27 25 71 24h27.5h35t35 -1t36 -3t28.5 -7t21.5 -13t5.5 -21q-2 -14 -12.5 -31.5t-20.5 -30.5t-28.5 -32.5t-24.5 -28.5l-13 -20q18 -18 35 -41q125 -164 178.5 -296 t53.5 -320h-2q0 -342 -223.5 -571.5t-565.5 -229.5q-154 0 -287 57q-16 -27 -24 -35q-10 -6 -37 -10q-14 0 -39 4t-31 4q-16 0 -49 -3t-51 -3q-39 0 -61.5 8t-20.5 35q2 18 12.5 41t18.5 36t26.5 39.5t24.5 35.5q-121 117 -187.5 278.5t-66.5 343.5zM418 788q0 -119 71 -229 q113 168 181 285q16 27 57 101.5t68 115.5q6 12 25.5 37.5t27.5 42.5q16 24 24 49v2q-37 12 -75 12q-176 0 -277.5 -117.5t-101.5 -298.5zM698 412q33 -4 50 -2q174 0 270 127t96 305q0 94 -59 192q-45 -70 -66 -106q-137 -262 -196 -363q-12 -20 -45 -71.5t-50 -81.5z" />
<glyph unicode="&#xd9;" horiz-adv-x="1515" d="M8 1386q0 31 11.5 49.5t36 24.5t44 7t56.5 -1t51 -2h291q18 0 55 3t55 3q55 0 74.5 -18t19.5 -68q0 -25 -5 -76t-5 -75q0 -16 3 -49t3 -51q0 -45 -16 -60.5t-64 -15.5q-33 0 -32 -76q0 -51 3 -151.5t3 -149.5q0 -137 22 -184q35 -70 131 -70q51 0 84 17.5t46.5 52 t17.5 63.5t4 78q0 16 1 94t1 121t-6 102.5t-19 96.5q-4 16 -34.5 17t-36.5 9q-10 16 -14.5 40t-4.5 41.5t1 47t1 39.5q0 20 -3 61.5t-3 61.5q0 35 12.5 58.5t29 32.5t45 12.5t52 2.5t59.5 -4.5t58 -3.5q57 0 170 4.5t170 4.5q39 0 56.5 -14.5t19.5 -31t2 -55.5l2 2 q0 -20 -5 -61t-5 -62q0 -18 4 -55t4 -53q0 -49 -21.5 -68.5t-72.5 -19.5q-16 0 -17 -10q-8 -43 -10 -96.5t-1 -119t-1 -98.5q-4 -84 -1 -156.5t-5 -144.5t-26.5 -133t-69.5 -121.5t-133 -109.5q-131 -80 -316 -80q-272 0 -412.5 71.5t-195.5 292.5q-10 41 -10 191 q-4 352 -27 485q-4 20 -48 22.5t-54 16.5q-16 25 -20.5 55.5t-0.5 78.5t4 59q0 23 -4 64.5t-4 61.5zM457 1808q0 12 8 21q2 8 16 8q123 4 246 4q14 0 21 -10q4 -14 55 -138t51 -147q0 -12 -6 -21t-12.5 -13.5t-18.5 -6.5t-19 -2h-23.5h-20.5q-123 0 -127 10q-8 16 -88 137.5 t-82 157.5z" />
<glyph unicode="&#xda;" horiz-adv-x="1515" d="M6 1386q0 31 11.5 49.5t36 24.5t44 7t56 -1t51.5 -2h291q18 0 55 3t55 3q55 0 74.5 -18t19.5 -68q0 -25 -5 -76t-5 -75q0 -16 3 -49t3 -51q0 -45 -16 -60.5t-64 -15.5q-33 0 -32 -76q0 -51 3 -151.5t3 -149.5q0 -137 22 -184q35 -70 131 -70q51 0 84 17.5t46.5 52 t17.5 63.5t4 78q0 16 1 94t1 121t-6 102.5t-19 96.5q-4 16 -34.5 17t-36.5 9q-10 16 -14.5 40t-4.5 41.5t1 47t1 39.5q0 20 -3 61.5t-3 61.5q0 35 12.5 58.5t29 32.5t45 12.5t52 2.5t59.5 -4.5t58 -3.5q55 0 170 4.5t170 4.5q39 0 56.5 -14.5t19.5 -31t2 -55.5l2 2 q0 -20 -5 -61t-5 -62q0 -18 4 -55t4 -53q0 -49 -21.5 -68.5t-72.5 -19.5q-16 0 -17 -10q-8 -43 -10 -96.5t-1 -119t-1 -98.5q-4 -84 -1 -156.5t-5 -144.5t-26.5 -133t-69.5 -121.5t-133 -109.5q-131 -80 -316 -80q-272 0 -412.5 71.5t-195.5 292.5q-10 41 -10 191 q-4 352 -27 485q-4 20 -48 22.5t-54 16.5q-16 25 -20.5 55.5t-0.5 78.5t4 59q0 23 -4 64.5t-4 61.5zM627 1585q0 16 22.5 74.5t51 124t34.5 82.5q2 12 19 12q29 0 121 -1t122 -1q16 0 19 -10q8 -9 8 -21l-2 2q0 -37 -79 -156.5t-87 -140.5q-4 -10 -127 -10h-21.5h-24.5 t-20.5 2t-19.5 7t-11 14.5t-5 21.5z" />
<glyph unicode="&#xdb;" horiz-adv-x="1515" d="M10 1384q0 31 11.5 49.5t36 24.5t44 7t56.5 -1t51 -2h291q18 0 55 3t55 3q55 0 75 -18t20 -68q0 -27 -5.5 -76t-5.5 -75q0 -16 3 -49t3 -52q0 -45 -16 -60t-63 -15q-33 0 -33 -76q0 -49 3 -149.5t3 -151.5q0 -137 22 -184q35 -70 132 -70q51 0 83.5 17.5t46 52t17.5 63.5 t4 78q0 16 1 94t1 121t-6 102.5t-18 96.5q-4 16 -35 17t-37 9q-10 16 -14.5 40t-4.5 41.5t1 47t1 39.5q0 20 -3 61.5t-3 61.5q0 35 12.5 58.5t29 32.5t45 12.5t52 2t59.5 -4.5t58 -3q55 0 170 4.5t170 4.5q39 0 56.5 -14.5t19.5 -31t2 -55.5l2 2q0 -20 -5 -61t-5 -62 q0 -18 4 -55t4 -53q0 -49 -21.5 -68.5t-72.5 -19.5q-16 0 -16 -11q-8 -43 -10.5 -96t-1.5 -118.5t-1 -98.5q-4 -84 -1 -156.5t-5 -144.5t-26.5 -133t-69.5 -121.5t-133 -109.5q-131 -80 -316 -80q-272 0 -412.5 71.5t-195.5 292.5q-10 41 -10 191q-4 352 -27 485 q-4 20 -48 22.5t-54 16.5q-16 25 -20.5 55.5t-0.5 78.5t4 58q0 23 -4 65t-4 62zM367 1526q0 37 90 168t98 149q4 10 127 10q8 0 28.5 1t30.5 1q16 0 41 -4q123 0 127 -10q10 -20 99.5 -139t89.5 -156h2q0 -33 -8 -41q-2 -8 -17 -8q-145 -4 -227 -2q-6 0 -21.5 22.5 t-17.5 30.5q-6 16 -33.5 53t-42.5 66q-18 -35 -56 -92t-42 -68q-2 -12 -41 -12q-29 0 -91.5 1t-90.5 1q-37 0 -37 10z" />
<glyph unicode="&#xdc;" horiz-adv-x="1525" d="M18 1386q0 25 10.5 42.5t24 25.5t36 11t39.5 2t45 -2t42 -1h293q18 0 55 3t55 3q55 0 75 -18t18 -68q0 -25 -5.5 -76t-5.5 -75q0 -16 4.5 -49t4.5 -51q2 -45 -15.5 -60.5t-66.5 -15.5q-33 0 -33 -76q0 -51 4 -151.5t4 -149.5v-32.5t1 -36t2 -33t4 -33.5t8.5 -30.5 t13.5 -30t19.5 -22.5t25.5 -19.5t33.5 -11.5t44.5 -5q51 0 83.5 17.5t46 52t17.5 63.5t4 78q0 16 1 94t1 121t-6 102.5t-18 96.5q-4 16 -35 17t-37 9q-10 16 -14 40t-4 41.5t1 47t1 39.5q0 20 -3.5 61.5t-3.5 61.5q0 35 12.5 58.5t29 32.5t45 12.5t52 2.5t59.5 -4.5t58 -3.5 q55 0 170 4.5t172 4.5q39 0 56.5 -14.5t19.5 -31t2 -55.5q0 -20 -5 -61t-5 -59.5t4 -55.5t4 -53q0 -49 -21.5 -68.5t-72.5 -19.5q-16 0 -16 -10q-8 -43 -10.5 -96.5t-1.5 -119t-1 -98.5q-4 -84 -1 -156.5t-5 -144.5t-26.5 -133t-69.5 -121.5t-133 -109.5q-131 -80 -313 -80 q-135 0 -224.5 13t-171.5 50t-134 112t-81 189q-8 29 -10 58.5t0 75.5t2 57q0 326 -27 485q-4 20 -48 22.5t-54 16.5q-16 25 -20.5 56.5t-1 76.5t3.5 60q0 23 -3.5 64.5t-3.5 61.5zM354 1681q0 72 52.5 122t125.5 50q82 0 132.5 -47t50.5 -129q-2 -74 -55.5 -120t-129.5 -48 q-76 0 -126 48.5t-50 123.5zM813 1681q0 74 51 124t123 50q80 2 132 -43.5t52 -125.5q0 -76 -53 -126.5t-131 -50.5q-74 0 -125 49.5t-49 122.5z" />
<glyph unicode="&#xdd;" horiz-adv-x="1296" d="M8 1360q0 61 19.5 87t83.5 26q49 0 148 -4.5t149 -4.5q23 0 66.5 5.5t66.5 5.5q16 0 27.5 -6.5t18.5 -18.5t11 -24.5t5 -32t2 -30.5t0 -30.5t-1 -25.5q0 -29 -6 -82.5t-6 -79.5q0 -31 -13.5 -45.5t-27.5 -16.5t-26.5 -8t-12.5 -22.5t51 -93t64 -74.5q8 0 22.5 21.5 t28.5 48t16 30.5q4 8 18.5 23.5t22.5 29t8 27.5q0 12 -38.5 15t-38.5 40q0 29 9 82t9 76q2 25 -2 69t-4 62q0 27 12 41t37 18.5t46.5 5.5t54 -2.5t44.5 -3.5q31 0 133.5 4.5t157.5 4.5q27 0 40.5 -17.5t14.5 -32t1 -45.5l2 -96q2 -94 -1 -152.5t-14 -86.5q-8 -25 -62 -25 t-71 -10q-31 -18 -151.5 -182t-133.5 -203q-18 -51 -18 -162q0 -41 20.5 -52.5t45 -6t44 -13t19.5 -71.5q0 -6 1 -33t1 -48.5t-1 -54t-4 -58.5t-8 -50.5t-13.5 -41t-20.5 -20.5q-35 -14 -489 -14q-51 0 -79 6t-40.5 33t-13.5 44t-3 75q0 88 11 194q4 35 92 41q10 0 18 4 q4 10 5 23.5t-1 29t-2 23.5q0 31 4 89.5t4 86.5q0 41 -90 188.5t-133 186.5q-6 6 -14 7t-20.5 -1t-18.5 -2q-12 0 -22.5 4t-16.5 13.5t-11 19.5t-8 24.5t-5.5 26.5t-2.5 27.5v25v22.5v17q0 25 -5 74t-5 76zM504 1546q0 20 51 144.5t55 136.5q2 12 21 12q29 0 121 -1t122 -1 q16 0 17 -10q8 -9 8 -21q-2 -39 -82 -159.5t-86 -135.5q-4 -10 -125 -10h-21.5h-24.5t-20.5 2t-19.5 7.5t-11 14.5t-5 21z" />
<glyph unicode="&#xde;" horiz-adv-x="1294" d="M33 1548q0 37 24.5 58.5t70.5 28.5t84 9.5t90 0t65 -2.5h213q158 0 157 -79q0 -31 1 -81t1 -85q0 -37 -17 -55.5t-41 -19.5t-46.5 1t-35.5 -2t-9 -23q-10 -88 16 -88q16 0 68.5 -2t72 -3t65.5 -4t67.5 -7t60.5 -11t60.5 -17.5t49 -24t47 -32.5t36.5 -42q14 -20 35.5 -50 t29.5 -42t18.5 -34.5t13.5 -48.5t3 -63h-2q0 -70 -23.5 -125t-54.5 -89.5t-93.5 -66.5t-108.5 -48.5t-130 -40.5q-39 -12 -108.5 -11t-106.5 -8q-12 -6 -10 -8q-6 -25 -6 -49q0 -33 2 -44t14 -19.5t43 -8.5q45 0 45 -82q-4 -94 -4 -96q4 -33 4 -59q-2 -43 -17 -59.5 t-56 -16.5q-25 0 -74 5t-74 5q-53 0 -162.5 -3t-165.5 -3q-27 0 -43 9t-20 28.5t-4 36t2 44t2 40.5q0 33 -5 86t-5 84q0 78 14 92q16 18 68 18q23 0 22 97q0 78 -5 127t-5 124v11q0 39 3 134t3 136q0 8 -1 25.5t-1 25.5q-10 41 -55 42t-62 22q-14 16 -17 52t0 93t3 62 q0 31 -3 80t-3 77zM606 762q0 -27 8 -36t33 -9q176 0 178 102q0 55 -54 77t-120 22q-29 0 -37 -10.5t-8 -39.5v-106z" />
<glyph unicode="&#xdf;" horiz-adv-x="1474" d="M2 68q0 45 6 284q2 63 21.5 93t79.5 30q61 0 81.5 15.5t20.5 70.5q0 16 -6 55t-6 54q0 47 6 65.5t6 65.5q0 14 5 42.5t5 43.5q0 37 -10 82q-68 10 -119 10q-45 0 -45 72v170q0 10 8 50t8 48t40 8t85 2t56 17q84 129 190 206q20 16 52 29.5t62 22t57.5 14.5t41.5 8l17 2 q90 27 193.5 2.5t201.5 -94.5q207 -145 207 -365q0 -27 -6.5 -56.5t-15.5 -55t-20.5 -51t-21.5 -45t-19 -35t-16 -23.5l-6 -10q0 -6 5 -10t13.5 -8.5t10.5 -6.5q16 -14 57 -43.5t67.5 -55.5t45.5 -56q53 -90 53 -213q2 -213 -159.5 -357.5t-358.5 -140.5h-43t-50.5 1t-44 3 t-38.5 8.5t-19 14.5q-12 29 -14 121t6 170.5t21 78.5q39 0 91 -1t101 32t51 94q4 86 -56 128t-126 40q-8 -2 -19.5 -4t-41 -5t-41.5 7q-23 12 -26 68.5t4 114t18 94.5q59 0 121.5 45t58.5 121q-4 88 -81 111.5t-140 -19.5q-27 -14 -41.5 -64.5t-14.5 -77.5v-344 q0 -4 1 -207.5t-7 -207.5q-2 -35 -4 -134.5t-9 -147.5t-30 -46q-33 4 -181 -4t-243.5 5t-95.5 69z" />
<glyph unicode="&#xe0;" horiz-adv-x="1212" d="M10 348q0 186 133 299t322 113q16 0 46 -4t44 -4q20 0 20 18q0 57 -43 116.5t-100 59.5q-43 0 -43 -18l6 -8q6 -8 12.5 -20.5t6.5 -27.5q0 -55 -52.5 -84.5t-109.5 -29.5q-78 0 -133.5 47t-55.5 125q0 145 126 227t280 82q297 0 455 -256q57 -94 66 -306t40 -269 q16 -31 41 -41.5t42 -7.5t29.5 -14t12.5 -66q0 -16 -4 -49t-4 -52q0 -16 4 -45t4 -43v-2q0 -90 -338 -90q-76 0 -108 41q-4 4 -8.5 19.5t-10.5 27.5t-14 12q-4 0 -19.5 -14t-32 -30.5t-22.5 -20.5q-80 -49 -192 -49q-170 0 -285 98t-115 266zM305 1587q0 2 3 10.5t3 10.5 q2 8 17 8q123 4 247 4q16 0 19 -10q4 -14 55 -138.5t51 -144.5h2q0 -12 -5 -21.5t-11 -14.5t-19.5 -7t-20.5 -2h-24.5h-21.5q-123 0 -127 10q-6 14 -87 136t-81 159zM362 383q0 -45 35 -77t80 -32q61 -2 109.5 30t50.5 91q0 55 -36 85t-93 30q-63 0 -104.5 -32t-41.5 -95z " />
<glyph unicode="&#xe1;" horiz-adv-x="1212" d="M8 350q0 186 133 299t322 113q16 0 46 -4t44 -4q20 0 20 18q0 57 -43 116.5t-100 59.5q-43 0 -43 -18l6 -8q6 -8 12.5 -20.5t6.5 -27.5q0 -55 -52.5 -84.5t-109.5 -29.5q-78 0 -133.5 47t-55.5 125q0 145 126 227t280 82q297 0 455 -256q57 -94 66 -306t40 -269 q16 -31 41 -41.5t42 -7t29.5 -14t12.5 -66.5q0 -16 -4 -49t-4 -52q0 -16 4 -45t4 -43v-2q0 -90 -338 -90q-76 0 -108 41q-4 4 -8.5 19.5t-10.5 27.5t-14 12q-4 0 -19.5 -14t-32 -30.5t-22.5 -20.5q-80 -49 -192 -49q-170 0 -285 98t-115 266zM360 385q0 -45 35 -77t80 -32 q61 -2 110.5 31t49.5 92q-2 55 -38 84t-91 29q-63 0 -104.5 -31.5t-41.5 -95.5zM371 1327q0 16 22.5 74.5t51 124t34.5 82.5q2 12 21 12q29 0 121 -1t122 -1q16 0 17 -10l2 -4q2 -4 4 -8.5t2 -6.5q0 -37 -80 -158.5t-88 -138.5q-4 -10 -125 -10h-21.5h-24.5t-20.5 2t-19.5 7 t-12 14.5t-6 21.5z" />
<glyph unicode="&#xe2;" horiz-adv-x="1212" d="M10 348q0 186 133 299t322 113q16 0 46 -4t44 -4q20 0 20 18q0 57 -43 116.5t-100 59.5q-43 0 -43 -18l6 -8q6 -8 12.5 -20.5t6.5 -27.5q0 -55 -52.5 -84.5t-109.5 -29.5q-78 0 -133.5 47t-55.5 125q0 145 126 227t280 82q297 0 455 -256q57 -94 66 -306t40 -269 q16 -31 41 -41.5t42 -7.5t29.5 -14t12.5 -66q0 -16 -4 -49t-4 -52q0 -16 4 -45t4 -43v-2q0 -90 -338 -90q-76 0 -108 41q-4 4 -8.5 19.5t-10.5 27.5t-14 12q-4 0 -19.5 -14t-32 -30.5t-22.5 -20.5q-80 -49 -192 -49q-170 0 -285 98t-115 266zM135 1307q0 37 89 167t98 150 q4 10 127 10h18h22.5h18.5t21.5 -1t19.5 -1q123 0 127 -10q10 -20 99 -139t89 -156h2q0 -33 -8 -41q-2 -8 -16 -8q-123 -4 -226 -4q-6 0 -21 22.5t-20 32.5q-4 16 -31.5 52t-41.5 67q-18 -35 -56 -92.5t-43 -67.5q-2 -12 -41 -12q-31 0 -91 1t-91 1q-37 0 -37 10zM362 383 q0 -45 35 -77t80 -32q61 -2 110.5 31t49.5 92q-2 55 -38 84t-91 29q-63 0 -104.5 -32t-41.5 -95z" />
<glyph unicode="&#xe3;" horiz-adv-x="1212" d="M8 348q0 186 133 299t322 113q16 0 46 -4t44 -4q20 0 20 18q0 57 -43 116.5t-100 59.5q-43 0 -43 -18l6 -8q6 -8 12.5 -20.5t6.5 -27.5q0 -55 -52.5 -84.5t-109.5 -29.5q-78 0 -133.5 47t-55.5 125q0 145 126 227t280 82q297 0 455 -256q57 -94 66 -306t40 -269 q16 -31 41 -41.5t42 -7.5t29.5 -14t12.5 -66q0 -16 -4 -49t-4 -52q0 -16 4 -45t4 -43v-2q0 -90 -338 -90q-76 0 -108 41q-4 4 -8.5 19.5t-10.5 27.5t-14 12q-4 0 -19.5 -14t-32 -30.5t-22.5 -20.5q-80 -49 -192 -49q-170 0 -285 98t-115 266zM115 1452q-2 76 102.5 132 t190.5 56q63 0 149 -39.5t113 -39.5q43 0 80.5 32.5t56.5 32.5q20 0 75.5 -82.5t55.5 -105.5q0 -37 -98.5 -100.5t-141.5 -63.5q-59 0 -143 47t-115 47q-49 0 -102 -52t-70 -52q-20 0 -86.5 83t-66.5 105zM360 383q0 -45 35 -77t80 -32q61 -2 110.5 31t49.5 92q-2 55 -38 84 t-91 29q-63 0 -104.5 -32t-41.5 -95z" />
<glyph unicode="&#xe4;" horiz-adv-x="1212" d="M8 350q0 186 133 299t322 113q16 0 46 -4t44 -4q20 0 20 18q0 57 -43 116.5t-100 59.5q-43 0 -43 -18l6 -8q6 -8 12.5 -20.5t6.5 -27.5q0 -55 -52.5 -84.5t-109.5 -29.5q-78 0 -133.5 47t-55.5 125q0 145 126 227t280 82q297 0 455 -256q57 -94 66 -306t40 -269 q16 -31 41 -41.5t42 -7t29.5 -14t12.5 -66.5q0 -16 -4 -49t-4 -52q0 -16 4 -45t4 -43v-2q0 -90 -338 -90q-76 0 -108 41q-4 4 -8.5 19.5t-10.5 27.5t-14 12q-4 0 -19.5 -14t-32 -30.5t-22.5 -20.5q-80 -49 -192 -49q-170 0 -285 98t-115 266zM100 1466q0 72 52.5 122 t126.5 50q80 0 130 -47t52 -127q0 -76 -53.5 -122t-131.5 -48q-76 0 -126 48.5t-50 123.5zM360 385q0 -45 35 -77t80 -32q61 -2 110.5 31t49.5 92q-2 55 -38 84t-91 29q-63 0 -104.5 -31.5t-41.5 -95.5zM559 1466q0 74 51.5 124t122.5 50q80 2 132.5 -44t52.5 -126 q0 -76 -53.5 -126t-131.5 -50q-74 0 -125 49.5t-49 122.5z" />
<glyph unicode="&#xe5;" horiz-adv-x="1212" d="M8 346q0 186 133 299t322 113q16 0 46 -4t44 -4q20 0 20 18q0 57 -43 116.5t-100 59.5q-43 0 -43 -18l6 -8q6 -8 12.5 -20.5t6.5 -27.5q0 -55 -52.5 -84.5t-109.5 -29.5q-78 0 -133.5 47t-55.5 125q0 145 126 227t280 82q297 0 455 -256q57 -94 66 -306t40 -269 q16 -31 41 -41.5t42 -7.5t29.5 -14t12.5 -67q0 -16 -4 -48.5t-4 -51.5q0 -16 4 -45t4 -43v-2q0 -90 -338 -90q-76 0 -108 41q-4 4 -8.5 19.5t-10.5 27.5t-14 12q-4 0 -19.5 -14t-32 -30.5t-22.5 -20.5q-80 -49 -192 -49q-170 0 -285 98t-115 266zM147 1614q0 141 95.5 233 t236.5 90q141 0 250 -101.5t109 -238.5v-2q0 -127 -92.5 -217t-219.5 -90q-162 0 -269 83t-110 243zM346 1599q0 -113 141 -112q144 0 144 117q0 49 -39 82.5t-88 33.5q-61 0 -109.5 -30.5t-48.5 -90.5zM360 381q0 -45 35 -77t80 -32q61 -2 109.5 30t50.5 91q0 55 -36 85 t-93 30q-63 0 -104.5 -32t-41.5 -95z" />
<glyph unicode="&#xe6;" horiz-adv-x="1863" d="M8 348q0 186 133 299t322 113q16 0 46 -4t44 -4q20 0 20 18q0 57 -43 116.5t-100 59.5q-43 0 -43 -18l6 -8q6 -8 12.5 -20.5t6.5 -27.5q0 -55 -52.5 -84.5t-109.5 -29.5q-78 0 -133.5 47t-55.5 125q0 145 126 227t280 82q236 0 383 -160q154 160 377 160 q248 0 401.5 -179t155.5 -431q0 -47 -8 -70q-4 -16 -25.5 -26.5t-54.5 -12.5t-62.5 -2t-63.5 2t-42 2h-461q-16 0 -16 -20q0 -92 73 -146q10 -4 13 -10q41 -23 90 -22q63 0 122.5 61t112.5 61l242 3q41 0 41 -39q-4 -76 -70 -191q-76 -131 -172 -184t-250 -55 q-166 0 -264 34q-74 -16 -174 -16q-76 0 -108 41q-4 4 -8.5 19.5t-10.5 27.5t-14 12q-4 0 -19.5 -14t-32 -30.5t-22.5 -20.5q-80 -49 -192 -49q-170 0 -285 98t-115 266zM358 387q0 -45 35 -76.5t80 -31.5q61 -2 109.5 29.5t50.5 90.5q0 55 -36 85t-93 30 q-63 0 -104.5 -31.5t-41.5 -95.5zM1063 770q0 -20 131 -20h106q107 -1 107 28h-2q0 53 -57.5 78t-116.5 25q-55 -2 -111.5 -32t-56.5 -79z" />
<glyph unicode="&#xe7;" horiz-adv-x="1144" d="M2 596v18q0 250 160 434.5t405 186.5q41 0 114 -22.5t97 -22.5q4 0 22.5 13.5t49.5 13.5q10 0 21.5 -1.5t24.5 -3.5t22 -2q16 0 40.5 1t37 0t26.5 -7t19.5 -25.5t5.5 -52.5q0 -20 -4.5 -61t-4.5 -61q0 -45 9.5 -133.5t9.5 -131.5q0 -25 -5 -41t-10.5 -25t-23 -13.5 t-24.5 -5.5t-35.5 0t-38.5 1q-27 0 -79.5 3.5t-76.5 3.5q-27 0 -41 33.5t-20.5 73.5t-42 72.5t-101.5 32.5q-53 0 -91 -31.5t-54.5 -84.5t-23.5 -100.5t-7 -96.5q0 -92 42 -159.5t130 -67.5q68 0 104.5 27.5t43 61.5t12.5 68.5t18 41t64 6.5q193 0 227 -11q31 -10 31 -84 q0 -168 -99.5 -306t-261.5 -140q-39 0 -39 -37q0 -35 15 -39q20 -6 55 -11t59.5 -12.5t51.5 -23.5q96 -61 96 -203q0 -135 -87 -229t-220 -94q-121 0 -204 64.5t-83 180.5q0 45 17.5 83t56.5 38q29 0 47 -22.5t28.5 -48t37 -48t67.5 -22.5q33 0 55.5 23.5t22.5 58.5 q0 55 -38 86t-97 31q-10 0 -29 -9.5t-25 -9.5q-29 0 -46 12.5t-23 37t-7.5 45t1 53t2.5 45.5q0 53 -15 59q-16 10 -52 23.5t-48 19.5q-291 147 -291 547z" />
<glyph unicode="&#xe8;" horiz-adv-x="1196" d="M2 614q0 252 155.5 438.5t401.5 186.5q250 0 403.5 -179t153.5 -433q0 -47 -6 -68q-4 -16 -25.5 -26.5t-54.5 -12.5t-62.5 -2t-64.5 2t-43 2h-459q-14 0 -18 -20q0 -74 51 -126t125 -52q63 0 122.5 61t113.5 61l241 3q43 0 43 -39q0 -68 -71 -191q-78 -133 -173.5 -186 t-248.5 -53q-260 -2 -422 184t-162 450zM313 1587q0 2 3 10.5t3 10.5q2 8 17 8q123 4 248 4q16 0 18 -10q4 -16 56.5 -139.5t52.5 -143.5q0 -12 -3 -20.5t-10.5 -13.5t-13.5 -7t-17.5 -3t-19.5 -1h-20.5h-18.5q-123 0 -127 10q-6 14 -87 136t-81 159zM395 770q0 -20 131 -20 h107q106 -1 106 28q0 55 -58 80t-118 23q-53 0 -110.5 -31t-57.5 -80z" />
<glyph unicode="&#xe9;" horiz-adv-x="1177" d="M2 616q0 252 155.5 438.5t401.5 186.5q250 0 403.5 -179t153.5 -433q0 -47 -6 -68q-4 -16 -25.5 -26.5t-54.5 -12.5t-62.5 -2t-64.5 2t-43 2h-459q-14 0 -18 -20q0 -74 51 -126t125 -52q63 0 122.5 61.5t113.5 61.5l241 2q43 0 43 -39q0 -68 -71 -191 q-78 -133 -173.5 -186t-248.5 -53q-260 -2 -422 184t-162 450zM395 772q0 -20 131 -20h107q106 -1 106 28q0 55 -58 80t-118 23q-53 0 -110.5 -31t-57.5 -80zM455 1341q0 20 51 144.5t55 136.5q2 12 21 12q29 0 121 -1t122 -1q16 0 17 -10q8 -8 8 -20q-2 -39 -82 -160 t-86 -135q-4 -10 -125 -11h-21.5h-24.5t-20.5 2t-19.5 7.5t-11 14.5t-5 21z" />
<glyph unicode="&#xea;" horiz-adv-x="1177" d="M2 614q0 252 155.5 438.5t401.5 186.5q250 0 403.5 -179t153.5 -433q0 -47 -6 -68q-4 -16 -25.5 -26.5t-54.5 -12.5t-62.5 -2t-64.5 2t-43 2h-459q-14 0 -18 -20q0 -74 51 -126t125 -52q63 0 122.5 61t113.5 61l241 3q43 0 43 -39q0 -68 -71 -191q-78 -133 -173.5 -186 t-248.5 -53q-260 -2 -422 184t-162 450zM197 1307q0 37 90 168t98 149q4 10 127 10h18.5h22.5h18.5t21.5 -1t19 -1q123 0 127 -10q10 -20 99.5 -139t89.5 -156l-2 -20l-4 -21q-2 -8 -17 -8q-123 -4 -227 -4q-6 0 -21.5 22.5t-17.5 32.5q-6 16 -33.5 53t-42.5 66 q-18 -35 -56 -92.5t-42 -67.5q-2 -12 -41 -12q-31 0 -92.5 1t-89.5 1q-37 0 -37 10zM395 770q0 -20 131 -20h107q106 -1 106 28q0 55 -58 80t-118 23q-53 0 -110.5 -31t-57.5 -80z" />
<glyph unicode="&#xeb;" horiz-adv-x="1177" d="M0 616q0 252 155.5 438.5t401.5 186.5q248 0 401.5 -179t155.5 -431q0 -47 -6 -70q-4 -16 -25.5 -26.5t-54.5 -12.5t-62.5 -2t-64.5 2t-43 2h-459q-14 0 -18 -20q0 -74 51 -126t125 -52q53 0 89 30.5t69 61.5t78 31l241 2q43 0 43 -39q0 -68 -71 -191 q-78 -133 -173.5 -186t-248.5 -53q-260 -2 -422 184t-162 450zM135 1466q0 72 52.5 122t123.5 50q82 0 132.5 -47t50.5 -129q-2 -74 -55.5 -121t-127.5 -47q-74 -2 -125 47.5t-51 124.5zM393 772q0 -20 131 -20h107q106 -1 106 28q0 55 -58 80t-118 23q-53 0 -110.5 -31 t-57.5 -80zM594 1466.5q0 73.5 51 123.5t125 50q80 2 132 -44t52 -126h-2q0 -74 -53 -125t-129 -51q-74 0 -125 49.5t-51 123z" />
<glyph unicode="&#xec;" horiz-adv-x="724" d="M8 92q0 14 1 46t1 46q0 123 10 160q4 16 62.5 30.5t64.5 35.5q14 43 16.5 102t-1.5 141t-4 107q0 49 -19.5 63.5t-44 17.5t-33 21.5t-18.5 220.5q0 102 18 119q31 25 197 25q186 -2 215 -10q47 -14 55 -84q2 -29 2 -166q0 -539 27 -570q16 -18 48 -23t50.5 -24t18.5 -76 q0 -16 -2 -47.5t-2 -46.5q-6 -33 -1 -57.5t1 -43t-2 -31.5t-8.5 -22.5t-16.5 -14.5t-29.5 -8t-45 -4t-64.5 -1l-400 -2q-29 0 -48 8t-29.5 18.5t-14.5 33t-4 36.5zM70 1587q0 12 8 21q2 8 16 8q123 4 246 4q16 0 20 -10q4 -14 55.5 -138.5t51.5 -144.5q0 -12 -5 -21.5 t-11.5 -14.5t-19.5 -7t-20.5 -2h-23.5h-20q-123 0 -127 10q-8 16 -88 137t-82 158z" />
<glyph unicode="&#xed;" horiz-adv-x="724" d="M6 94.5q0 14.5 1 46t1 45.5q0 123 10 160q4 16 62.5 30.5t64.5 35.5q14 43 16.5 102t-1.5 141t-4 107q0 49 -19.5 63.5t-44 17.5t-33 21.5t-18.5 220.5q0 102 18 119q31 25 197 25q186 -2 215 -10q47 -14 55 -84q2 -29 2 -166q0 -539 27 -570q16 -18 48 -23t50.5 -23.5 t18.5 -73.5q0 -16 -2 -49t-2 -48q-6 -33 -1 -57.5t1 -43t-2 -31.5t-8.5 -22.5t-16.5 -14.5t-29.5 -8t-45 -4t-64.5 -1l-400 -2q-29 0 -48 8t-29.5 18.5t-14.5 33t-4 37zM186 1348q0 16 22.5 74.5t51.5 124t35 81.5q2 12 18 12q31 0 123 -1t121 -1q16 0 18 -10q9 -8 9 -20 l-2 2q0 -37 -79 -157t-87 -140q-4 -10 -127 -10h-21.5h-24.5t-20.5 2t-19.5 7t-11.5 14t-5.5 22z" />
<glyph unicode="&#xee;" horiz-adv-x="792" d="M8 1307q0 37 90 168t99 149q4 10 127 10h18h22.5h18.5t21.5 -1t19.5 -1q123 0 127 -10q10 -20 99 -139t89 -156l-2 -20l-4 -21q-2 -8 -16 -8q-123 -4 -228 -4q-6 0 -21 22.5t-17 32.5q-6 16 -34 53t-42 66q-18 -35 -56 -92.5t-43 -67.5q-2 -12 -40 -12q-31 0 -91.5 1 t-91.5 1q-37 0 -37 10zM78 92q0 14 1 46t1 46q0 123 10 160q4 16 62.5 30.5t64.5 35.5q14 43 16.5 102t-2 141t-4.5 107q0 49 -19.5 63.5t-45 17.5t-33.5 21q-16 35 -16 221q0 102 18 119q31 25 197 25q184 -2 213 -10q47 -12 55 -78q4 -29 2 -172q0 -539 27 -570 q16 -18 48 -23t50 -23.5t18 -74.5q0 -10 -2 -43.5t0 -52.5q-6 -33 -1 -57.5t1 -43t-2 -31.5t-8 -22.5t-16 -14.5t-30 -8t-45.5 -4t-64.5 -1l-399 -2q-29 0 -48.5 8t-29.5 18.5t-14 33t-4 36.5z" />
<glyph unicode="&#xef;" horiz-adv-x="874" d="M6 1466q0 72 52 122t124 50q80 0 130 -47t53 -127q0 -76 -53.5 -123t-129.5 -47q-74 -2 -125 47.5t-51 124.5zM102 94.5q0 14.5 1 46t1 45.5q0 123 11 160q4 16 61 30.5t64 35.5q12 43 15 101t0 144t-3 105q0 49 -18.5 63.5t-45 17.5t-34.5 21q-16 35 -17 221 q0 102 19 119q31 25 196 25q184 -2 213 -10q47 -12 56 -78q4 -29 2 -172q0 -539 26 -570q16 -18 48 -23t50.5 -24t18.5 -76q0 -12 -2 -44.5t0 -49.5q-6 -33 -1 -57.5t1 -43t-2 -31.5t-8.5 -22.5t-16.5 -14.5t-29.5 -8t-45 -4t-64.5 -1l-399 -2q-29 0 -48.5 8t-29.5 18.5 t-14.5 33t-4.5 37zM465 1466.5q0 73.5 51 123.5t125 50q80 2 132 -44t52 -126h-2q0 -74 -53 -125t-129 -51q-74 0 -125 49.5t-51 123z" />
<glyph unicode="&#xf0;" horiz-adv-x="1378" d="M41 545q0 205 139 356.5t338 151.5q63 0 130 -21.5t106 -42.5l37 -20q10 0 10 41q0 55 -31 135l-68 -49q-16 -12 -31.5 -15.5t-24.5 -2.5t-22.5 10.5t-18.5 15.5t-17.5 20.5t-14.5 16.5q-4 4 -45 39q-53 59 101 159q-98 29 -123 -20q-37 -74 -73 -101.5t-122 -27.5 q-94 0 -140 98t-1 180q31 55 70 92t71.5 55.5t91 28t91 10.5t106.5 1q162 0 332 -99l39 25q37 23 53 37q10 6 25.5 19.5t21.5 17.5q47 33 96 -23q6 -8 15.5 -22.5t15.5 -20.5t17.5 -13t13.5 -11q18 -23 6 -62t-41 -55l-76 -53q187 -232 187 -572q0 -125 -24 -243.5t-75 -229 t-124.5 -192.5t-183.5 -132.5t-243 -50.5q-279 0 -446.5 149.5t-167.5 420.5zM473 524q0 -74 52.5 -124t126 -50t116.5 50t43 124l-2 -2q0 78 -50 129t-124 54q-66 0 -114 -54.5t-48 -126.5z" />
<glyph unicode="&#xf1;" horiz-adv-x="1312" d="M8 1137.5q0 13.5 5 35t15.5 30.5t30 17.5t50.5 8.5q20 0 58 -4t56 -4q33 0 98.5 4t98.5 4q47 0 78 -31q6 -6 11 -26.5t10 -37t9 -16.5l41 31q41 31 114 61.5t148 30.5q104 0 178 -39t112 -93t59.5 -144.5t25.5 -159t4 -170.5q0 -184 7 -227q4 -25 41.5 -32t48.5 -30 q14 -28 14 -151l-2 2q0 -180 -41 -185q-111 -12 -227 -12q-4 0 -54.5 -1t-86.5 0t-84 4t-76.5 14.5t-32.5 27.5q-4 14 -8 43q0 20 6 57t6 54q0 18 -3 53t-3 51q0 41 24.5 63.5t50 33t27.5 22.5q4 27 4 78q0 47 -1 68.5t-4 70.5t-14 75.5t-28.5 58.5t-48.5 47.5t-72 15.5 q-57 0 -98 -39t-41 -97q0 -227 12 -294q4 -18 22.5 -25.5t38 -7.5t35 -16.5t15.5 -53.5q0 -203 -19 -270q-8 -33 -49 -33q-14 0 -45.5 4t-48 4t-49.5 -4t-49 -4h-252q-104 0 -105 150q0 190 17 210q20 23 52 22t46.5 26.5t14.5 134.5q0 27 4 80t4 79q0 92 -31 115 q-8 6 -53 12.5t-51 28.5q-12 45 -13 191q0 12 -1 43.5t-1 45zM240 1458q0 76 103 132.5t187 56.5q63 0 149.5 -40t115.5 -40q43 0 80.5 32.5t54.5 32.5q20 0 75.5 -82.5t55.5 -105.5q0 -37 -98.5 -100.5t-139.5 -63.5q-59 0 -143 47t-115 47q-49 0 -103 -52t-71 -52 q-20 0 -85.5 83t-65.5 105z" />
<glyph unicode="&#xf2;" horiz-adv-x="1245" d="M2 621q0 260 158.5 438t414.5 178q260 0 429.5 -193.5t169.5 -457.5q0 -258 -167 -429t-423 -171q-260 2 -421 187t-161 448zM311 1587q0 2 3 10.5t3 10.5q2 8 17 8q123 4 248 4q16 0 20 -10q4 -14 55.5 -138.5t51.5 -144.5q0 -12 -5.5 -21.5t-11.5 -14.5t-19.5 -7 t-20.5 -2h-23.5h-20.5q-123 0 -129 10q-6 14 -87 136t-81 159zM340 590q0 -94 64.5 -172t158.5 -78q125 0 188.5 77t63.5 204l-2 2q0 86 -65.5 164.5t-149.5 78.5q-119 -2 -188.5 -79.5t-69.5 -196.5z" />
<glyph unicode="&#xf3;" horiz-adv-x="1245" d="M2 623q0 260 158.5 438t414.5 178q260 0 429.5 -193.5t169.5 -457.5q0 -258 -167 -429t-423 -171q-260 2 -421 187t-161 448zM340 592q0 -94 64.5 -172t158.5 -78q125 0 188.5 77t63.5 204l-2 2q0 86 -65.5 164.5t-149.5 78.5q-119 -2 -188.5 -79.5t-69.5 -196.5z M469 1327q0 20 51 144t55 137q2 12 21 12q31 0 123 -1t121 -1q16 0 16 -10q8 -9 8 -21q-2 -39 -82 -159.5t-86 -135.5q-4 -10 -125 -10h-21.5h-24.5t-20 2t-19.5 7t-11.5 14.5t-5 21.5z" />
<glyph unicode="&#xf4;" horiz-adv-x="1245" d="M2 621q0 260 158.5 438t414.5 178q260 0 429.5 -193.5t169.5 -457.5q0 -258 -167 -429t-423 -171q-260 2 -421 187t-161 448zM199 1307q0 37 90 168t98 149q4 10 127 10h59q8 0 21.5 -1t19.5 -1q123 0 127 -10q10 -20 99.5 -139t89.5 -156l-4 -20l-2 -21q-2 -8 -17 -8 q-123 -4 -227 -4q-6 0 -21.5 22.5t-17.5 32.5q-6 16 -33.5 53t-42.5 66q-18 -35 -56 -92.5t-42 -67.5q-2 -12 -41 -12q-29 0 -90.5 1t-91.5 1q-37 0 -37 10zM340 590q0 -94 64.5 -172t158.5 -78q125 0 188.5 77t63.5 204l-2 2q0 86 -65.5 164.5t-149.5 78.5 q-119 -2 -188.5 -79.5t-69.5 -196.5z" />
<glyph unicode="&#xf5;" horiz-adv-x="1245" d="M2 621q0 260 158.5 438t414.5 178q260 0 429.5 -193.5t169.5 -457.5q0 -258 -167 -429t-423 -171q-260 2 -421 187t-161 448zM180 1452q0 76 103.5 132t187.5 56q63 0 149.5 -39.5t114.5 -39.5q43 0 81 32.5t54 32.5q20 0 75.5 -82.5t55.5 -105.5q0 -37 -98 -100.5 t-139 -63.5q-59 0 -143 47t-115 47q-49 0 -103.5 -52t-70.5 -52q-20 0 -86 83t-66 105zM340 590q0 -94 64.5 -172t158.5 -78q125 0 188.5 77t63.5 204l-2 2q0 86 -65.5 164.5t-149.5 78.5q-119 -2 -188.5 -79.5t-69.5 -196.5z" />
<glyph unicode="&#xf6;" horiz-adv-x="1245" d="M0 623q0 260 158.5 438t414.5 178q260 0 429 -193.5t169 -457.5q0 -258 -166.5 -429t-422.5 -171q-260 2 -421 187t-161 448zM170 1466q0 72 52 122t124 50q80 0 130 -47t52 -127q0 -76 -53 -123t-129 -47q-74 -2 -125 47.5t-51 124.5zM338 592q0 -94 64.5 -172 t158.5 -78q125 0 188.5 77t63.5 204l-2 2q0 86 -65.5 164.5t-149.5 78.5q-119 -2 -188.5 -79.5t-69.5 -196.5zM629 1466.5q0 73.5 51 123.5t125 50q80 2 132 -44t52 -126h-2q0 -74 -53 -125t-129 -51q-74 0 -125 49.5t-51 123z" />
<glyph unicode="&#xf7;" horiz-adv-x="950" d="M35 706.5q0 16.5 1 45t1 36.5q0 41 21.5 65t65.5 30t80 7t94 -4t79 -5q37 0 108.5 4t106.5 4l221 -2q72 0 72 -103v-127q0 -68 -127 -67l-631 -2q-27 0 -46.5 11t-28.5 25.5t-13 40t-4 42zM262 336q0 80 53.5 135t130.5 55q80 0 133.5 -55t53.5 -135q0 -84 -50.5 -141.5 t-133.5 -57.5q-82 0 -135.5 58.5t-51.5 140.5zM262 1133q0 78 53.5 133t130.5 55q80 -2 134.5 -56t54.5 -132h2q0 -86 -49 -142.5t-133 -56.5q-82 0 -137.5 57.5t-55.5 141.5z" />
<glyph unicode="&#xf8;" horiz-adv-x="1261" d="M2 621q0 260 160 438t418 178q156 0 282 -78q39 47 62 68q20 18 57 18h20.5h27.5h27.5t27 -2t20.5 -6t14 -10t2 -15q-2 -12 -15 -29.5t-31.5 -37t-24.5 -27.5q-30 -30 -50 -67q174 -190 175 -463q0 -258 -167 -430t-425 -174q-145 0 -269 67q-20 -35 -34 -41 q-10 -8 -27 -8q-10 0 -26.5 1t-26.5 1q-12 0 -37 -2t-39 -2q-31 0 -47.5 6t-12.5 29q4 18 15.5 37.5t34 46t28.5 35.5l17 22q-156 180 -156 445zM338 590q0 -70 37 -129q90 119 131 178q14 20 52 77.5t60 88.5l39 49v2q-33 12 -61 10q-119 0 -188.5 -78.5t-69.5 -197.5z M518 348q23 -6 45 -6q125 0 188.5 77t63.5 204l-2 -2q0 55 -31 120l-24 -32l-178 -279z" />
<glyph unicode="&#xf9;" horiz-adv-x="1144" d="M8 1159q0 39 17 49q20 18 260 19h172q43 0 58 -15.5t15 -56.5q0 -37 -2 -110.5t-2 -112.5q0 -41 -11 -55.5t-50 -14.5q-25 0 -25 -57q0 -18 -1 -86t-1 -104.5t4 -90t13 -90.5q18 -76 112 -76q37 0 60.5 15.5t33 46.5t11.5 54.5t2 62.5q0 20 1 73.5t1 86t-4 76.5t-13 75 q-4 12 -28.5 13t-30.5 9q-12 23 -12 273q2 51 16 68.5t64 17.5q113 0 346 -4q70 0 76 -35q14 -74 14 -219q0 -90 -51 -111q-4 -2 -15.5 -2t-19.5 -3t-8 -11q-6 -10 -2 -114.5t4 -115.5q0 -27 1 -94t0 -95t-5 -81t-16.5 -83t-33 -69.5t-53.5 -71.5t-80 -63q-104 -66 -241 -65 q-260 0 -360.5 104.5t-100.5 362.5q0 254 -19 381q-2 16 -35.5 18t-41.5 14q-18 31 -19 287zM276 1587q0 2 3.5 10.5t3.5 10.5q2 8 18 8q123 4 246 4q14 0 20 -10q4 -14 55.5 -138.5t51.5 -144.5q0 -12 -5 -21.5t-11.5 -14.5t-19.5 -7t-20.5 -2h-23.5h-21q-123 0 -129 10 q-6 14 -87 136t-81 159z" />
<glyph unicode="&#xfa;" horiz-adv-x="1144" d="M6 1161q0 39 17 49q20 18 260 19h172q43 0 58 -15.5t15 -56.5q0 -37 -2 -110.5t-2 -112.5q0 -41 -11 -55.5t-50 -14.5q-25 0 -25 -57q0 -18 -1 -86t-1 -104.5t4 -90t13 -90.5q18 -76 112 -76q37 0 60.5 15.5t33 46.5t11.5 54.5t2 62.5q0 20 1 73.5t1 86t-4 76.5t-13 75 q-4 12 -28.5 13t-30.5 9q-12 23 -12 273q2 51 16 68.5t64 17.5q113 0 346 -4q70 0 75 -35q15 -74 15 -219q0 -90 -51 -111q-4 -2 -15.5 -2t-19.5 -3t-8 -11q-6 -10 -2 -114.5t4 -115.5q0 -27 1 -94t0 -95t-5.5 -81t-16.5 -83t-32.5 -69.5t-53.5 -71.5t-80 -63 q-104 -66 -241 -65q-260 0 -360.5 104.5t-100.5 362.5q0 254 -19 381q-2 16 -35.5 18t-41.5 14q-18 31 -19 287zM424 1343q0 16 22.5 75t51 124.5t34.5 81.5q2 12 19 12q31 0 123 -1t121 -1q16 0 18 -10q8 -8 8 -20l-2 2q0 -37 -78.5 -157t-87.5 -140q-4 -10 -127 -11h-21.5 h-24.5t-20.5 2.5t-19.5 7.5t-11 14t-5 21z" />
<glyph unicode="&#xfb;" horiz-adv-x="1144" d="M10 1159q0 39 17 49q20 18 260 19h172q43 0 58 -15.5t15 -56.5q0 -37 -2 -110.5t-2 -112.5q0 -41 -11 -55.5t-50 -14.5q-25 0 -25 -57q0 -18 -1 -86t-1 -104.5t4.5 -90t12.5 -90.5q18 -76 112 -76q37 0 60.5 15.5t33 46.5t11.5 54.5t2 62.5q0 20 1 73.5t1 86t-4 76.5 t-12 75q-4 12 -29 13t-31 9q-12 23 -12 273q2 51 16.5 68.5t63.5 17.5q113 0 346 -4q70 0 76 -35q14 -74 14 -219q0 -90 -51 -111q-4 -2 -15.5 -2t-19.5 -3t-8 -11q-6 -10 -2 -114.5t4 -115.5q0 -27 1 -94t0 -95t-5 -81t-16.5 -83t-33 -69.5t-53.5 -71.5t-80 -63 q-104 -66 -241 -65q-260 0 -360.5 104.5t-100.5 362.5q0 254 -19 381q-2 16 -35.5 18t-41.5 14q-18 31 -19 287zM172 1307q0 37 90 168t98 149q4 10 127 10h18.5h23h18.5t21.5 -1t19.5 -1q123 0 127 -10q10 -20 99 -139t89 -156h2q0 -33 -8 -41q-2 -8 -16 -8 q-123 -4 -228 -4q-6 0 -21.5 22.5t-17.5 32.5q-6 16 -33.5 53t-41.5 66q-18 -35 -56.5 -92.5t-42.5 -67.5q-2 -12 -41 -12q-31 0 -92 1t-90 1q-37 0 -37 10z" />
<glyph unicode="&#xfc;" horiz-adv-x="1144" d="M8 1161q0 39 17 49q20 18 260 19h172q43 0 58 -15.5t15 -56.5q0 -37 -2 -110.5t-2 -112.5q0 -41 -11 -55.5t-50 -14.5q-25 0 -25 -57q0 -18 -1 -86t-1 -104.5t4 -90t13 -90.5q18 -76 112 -76q37 0 60.5 15.5t33 46.5t11.5 54.5t2 62.5q0 20 1 73.5t1 86t-4 76.5t-13 75 q-4 12 -28.5 13t-30.5 9q-12 23 -12 273q2 51 16 68.5t64 17.5q113 0 346 -4q70 0 76 -35q14 -74 14 -219q0 -90 -51 -111q-4 -2 -15.5 -2t-19.5 -3t-8 -11q-6 -10 -2 -114.5t4 -115.5q0 -27 1 -94t0 -95t-5 -81t-16.5 -83t-33 -69.5t-53.5 -71.5t-80 -63q-104 -66 -241 -65 q-260 0 -360.5 104.5t-100.5 362.5q0 254 -19 381q-2 16 -35.5 18t-41.5 14q-18 31 -19 287zM143 1466q0 72 52.5 122t123.5 50q82 0 132.5 -47t50.5 -129q-2 -74 -55.5 -121t-127.5 -47q-74 -2 -125 47.5t-51 124.5zM602 1466q0 74 51.5 124t122.5 50q80 2 132.5 -44 t52.5 -126q0 -76 -53.5 -126t-131.5 -50q-74 0 -125 49.5t-49 122.5z" />
<glyph unicode="&#xfd;" horiz-adv-x="1583" d="M8 -293q0 135 74 208t209 73q70 0 110 -33q10 -8 26.5 -33.5t28 -46t13.5 -20.5q16 0 57 73.5t41 96.5q0 53 -135 355t-186 384q-23 39 -48.5 58.5t-41 22.5t-24.5 19.5t-9 55.5q0 90 3 144t18.5 91t29.5 52.5t53 21.5t73 3t105.5 -6t133.5 -3q20 0 61 4t64 4 q47 0 75.5 -25.5t35.5 -63.5t10 -83t-1 -82q0 -106 -32 -131q-6 -4 -30 -15.5t-40 -22.5t-16 -22q0 -27 57 -168t82 -192q6 -16 14 -16q12 0 28.5 34.5t33 85t16.5 52.5q6 14 22.5 49t25.5 62.5t9 51.5q0 45 -24.5 57.5t-51 16.5t-30.5 29q-6 31 -6 129q2 47 10 137 q10 84 25.5 98.5t103.5 16.5q18 0 57 -6t60 -6q49 -2 144 5t138 7q98 0 120 -29t22 -131q0 -23 -7.5 -65.5t-7.5 -63.5q0 -18 3 -52t3 -50q0 -45 -27.5 -64.5t-60 -27t-39.5 -21.5q-106 -236 -264 -545q-10 -18 -49 -97t-58.5 -115t-62.5 -114.5t-74.5 -122.5t-78.5 -108.5 t-91 -102.5t-97.5 -76t-110 -55.5t-115.5 -17.5q-145 0 -261 96.5t-116 239.5zM686 1327q0 20 51 144t56 137q2 12 20 12q31 0 123 -1t121 -1q16 0 16 -10l2 -4q2 -4 4 -8.5t2 -6.5q0 -37 -79.5 -158.5t-88.5 -138.5q-4 -10 -125 -10h-21h-24.5t-20.5 2t-19.5 7t-11.5 14.5 t-5 21.5z" />
<glyph unicode="&#xfe;" horiz-adv-x="1484" d="M6 -209q0 96 23.5 136t50 37t50.5 16.5t24 80.5q0 41 -4.5 121t-4.5 119q0 63 4.5 392t4.5 390q0 72 -14.5 105t-33 35t-38 1t-32.5 20.5t-13 76.5q0 39 1 114.5t1 112.5q0 29 12 47.5t39.5 25.5t45 8t54.5 1h17q45 0 163.5 -2t161.5 -2q49 0 55 -131q2 -18 -3 -57 t-5 -52v-68v-69q-8 -121 6 -127l21 13l55 27.5t75 33.5t88 28.5t89 12.5q119 0 222.5 -61.5t176.5 -161.5q68 -92 91.5 -182.5t23.5 -217.5q0 -246 -152.5 -431t-394.5 -187q-115 0 -223 57q-6 4 -32.5 27.5t-35.5 23.5q-12 0 -12 -61q0 -49 15.5 -68.5t37 -23.5t43 -12.5 t37 -49.5t15.5 -120q0 -117 -13 -142q-25 -49 -131 -49q-41 0 -144.5 -3t-181 -1t-143.5 10q-66 10 -73 43q-18 66 -19 164zM563 629q0 -86 58.5 -150.5t146.5 -64.5q86 0 143.5 60.5t57.5 148.5q-2 86 -60.5 148.5t-142.5 62.5q-88 0 -145.5 -58.5t-57.5 -146.5z" />
<glyph unicode="&#xff;" horiz-adv-x="1585" d="M6 -293q0 135 74 208t209 73q70 0 110 -33q10 -8 26.5 -33.5t28 -46t13.5 -20.5q16 0 57 73.5t41 96.5q0 53 -135 355t-186 384q-23 39 -48.5 58.5t-41 22.5t-24.5 19.5t-9 55.5q0 90 3 144t18.5 91t29.5 52.5t53 21.5t73 3t105.5 -6t133.5 -3q20 0 61 4t64 4 q47 0 75.5 -25.5t35.5 -63.5t10 -83t-1 -82q0 -106 -32 -131q-6 -4 -30 -15.5t-40 -22.5t-16 -22q0 -27 57 -168t82 -192q6 -16 14 -16q12 0 28.5 34.5t33 85t16.5 52.5q6 14 22.5 49t25.5 62.5t9 51.5q0 45 -24.5 57.5t-51 16.5t-30.5 29q-6 31 -6 129q2 47 10 137 q10 84 25.5 98.5t103.5 16.5q18 0 57 -6t60 -6q49 -2 144 5t138 7q98 0 120 -29t22 -131q0 -23 -7.5 -65.5t-7.5 -63.5q0 -18 3 -52t3 -50q0 -45 -27.5 -64.5t-60 -27t-39.5 -21.5q-106 -236 -264 -545q-10 -18 -49 -97t-58.5 -115t-62.5 -114.5t-74.5 -122.5t-78.5 -108.5 t-91 -102.5t-97.5 -76t-110 -55.5t-115.5 -17.5q-145 0 -261 96.5t-116 239.5zM389 1466q0 72 52 122t124 50q80 0 130 -47t53 -127q0 -76 -53.5 -123t-129.5 -47q-74 -2 -125 47.5t-51 124.5zM848 1466.5q0 73.5 51 123.5t125 50q80 2 132 -44t52 -126h-2q0 -74 -53 -125 t-129 -51q-74 0 -125 49.5t-51 123z" />
<glyph unicode="&#x152;" horiz-adv-x="2004" d="M2 821q0 166 53.5 298t165.5 263q119 135 245 191.5t308 60.5h59h70h58q29 0 89 -6t91 -6q96 0 290.5 5t292.5 5q104 0 123 -12q33 -18 35 -117q0 -57 2 -173t2 -173q0 -33 -4 -50t-20.5 -25.5t-29.5 -9.5t-50 -1q-25 0 -75 -8t-76.5 -8t-45 1t-31 9t-18.5 10t-9 20.5 t-4 24.5t-1 36v42q-8 0 -40 4t-48 4q-23 2 -30 -13t-7 -40l-2 -174q0 -6 1 -11t5 -8.5t6 -4.5t9 -2t10.5 -1h11.5h10q14 0 42 4.5t42 4.5q43 0 54 -12.5t11 -53.5q0 -31 -3 -95.5t-3 -97.5q0 -18 -2 -30.5t-8 -20.5t-10 -13t-16.5 -6t-18.5 -2t-23.5 0t-25.5 1 q-14 0 -35.5 -8.5t-21.5 -18.5l-5 -188q0 -12 16.5 -19.5t31.5 -7.5q27 0 42 2t24 4t12 12.5t4 16.5t0 28.5t-1 36.5q0 72 54 72q39 0 117.5 -1t117.5 -1q61 0 72.5 -14t11.5 -80q0 -35 -5 -99.5t-5 -89t4 -73.5t4 -72q0 -84 -27.5 -108.5t-113.5 -24.5q-25 0 -71 5t-68 5 q-27 0 -83.5 -5t-84.5 -5q-94 0 -265.5 5t-238.5 5q-14 0 -40 -4t-34 -4q-96 -10 -123 -10q-338 0 -556 244.5t-218 586.5zM453 791q0 -127 86 -236t213 -109q39 0 69.5 6.5t53 25t38 32.5t24.5 47t15 51.5t8.5 63.5t2.5 64.5v70.5v35h-2q0 258 -89 301q-12 6 -22 14 t-20.5 10t-32.5 2q-160 0 -252 -107.5t-92 -270.5z" />
<glyph unicode="&#x153;" horiz-adv-x="2009" d="M2 621q0 260 160 438t416 178q240 0 405 -170q158 172 389 172q248 0 401.5 -179t155.5 -431q0 -47 -8 -70q-4 -16 -25.5 -26.5t-54.5 -12.5t-62.5 -2t-63.5 2t-42 2h-461q-16 0 -16 -20q0 -74 51 -126t125 -52q53 0 89 30.5t69 61t78 30.5l241 3q41 0 41 -39 q-4 -76 -69 -191q-76 -131 -172.5 -184t-249.5 -55q-240 0 -404 163q-164 -158 -411 -157q-260 2 -421 187t-161 448zM338 592q0 -94 64.5 -172t158.5 -78q123 0 187.5 75t62.5 197q0 3 2 11v2q0 84 -66.5 162.5t-150.5 78.5q-119 -2 -188.5 -79.5t-69.5 -196.5zM1208 770 q0 -20 131 -20h107q106 -1 106 28h-2q0 53 -57 78t-117 25q-55 -2 -111.5 -32t-56.5 -79z" />
<glyph unicode="&#x178;" horiz-adv-x="1306" d="M6 1360q0 61 19.5 87t83.5 26q49 0 148 -4.5t149 -4.5q23 0 66.5 5.5t66.5 5.5q16 0 27.5 -6.5t18.5 -18.5t11 -24.5t5 -32t2 -30.5t0 -30.5t-1 -25.5q0 -29 -6 -82.5t-6 -79.5q0 -31 -13.5 -45.5t-27.5 -16.5t-26.5 -8t-12.5 -22.5t51 -93t64 -74.5q8 0 22.5 21.5 t28.5 48t16 30.5q4 8 18.5 23.5t22.5 29t8 27.5q0 12 -38.5 15t-38.5 40q0 29 9 82t9 76q2 25 -2 69t-4 62q0 27 12 41t37 18.5t46.5 5.5t54 -2.5t44.5 -3.5q31 0 133.5 4.5t157.5 4.5q27 0 40 -17.5t14.5 -32t1.5 -45.5l2 -96q2 -94 -1.5 -152.5t-13.5 -86.5 q-8 -25 -62.5 -25t-70.5 -10q-31 -18 -151.5 -182t-133.5 -203q-18 -51 -18 -162q0 -41 20.5 -52.5t45 -6t44 -13t19.5 -71.5q0 -6 1 -33t1 -48.5t-1 -54t-4 -58.5t-8 -50.5t-13.5 -41t-20.5 -20.5q-35 -14 -490 -14q-51 0 -78.5 6t-40 33t-13.5 44t-3 75q0 88 11 194 q4 35 92 41q10 0 18 4q4 10 5 23.5t-1 29t-2 23.5q0 31 4 89.5t4 86.5q0 41 -90 188.5t-133 186.5q-6 6 -14 7t-20.5 -1t-18.5 -2q-12 0 -22.5 4t-16.5 13.5t-11 19.5t-8.5 24.5t-5.5 26.5t-2 27.5v25v22.5v17q0 25 -5 74t-5 76zM229 1669q0 72 52.5 122t124.5 50 q82 0 132 -47t50 -129q-2 -74 -55.5 -121t-126.5 -47q-74 -2 -125.5 47t-51.5 125zM688 1669q0 74 51.5 124t124.5 50q80 2 132.5 -44t52.5 -126h-2q0 -74 -53.5 -125t-129.5 -51q-74 0 -125 49t-51 123z" />
<glyph unicode="&#x2c6;" horiz-adv-x="694" d="M41 1286q0 37 90 168t98 150q4 10 127 10h18.5h23h18.5t21.5 -1t19.5 -1q123 0 127 -10q10 -20 99 -139t89 -156h2q0 -33 -8 -41q-2 -8 -16 -9q-123 -4 -228 -4q-6 0 -21.5 22.5t-17.5 33.5q-6 16 -33.5 53t-41.5 65q-18 -35 -56.5 -92t-42.5 -67q-2 -12 -41 -13 q-31 0 -92 1t-90 1q-37 0 -37 11z" />
<glyph unicode="&#x2dc;" horiz-adv-x="974" d="M55 1452q-2 76 102.5 132t190.5 56q63 0 149.5 -39.5t112.5 -39.5q43 0 81 32.5t57 32.5q20 0 75.5 -82.5t55.5 -105.5q0 -37 -98.5 -100.5t-141.5 -63.5q-59 0 -143 47t-115 47q-49 0 -102.5 -52t-69.5 -52q-20 0 -87 83t-67 105z" />
<glyph unicode="&#x2000;" horiz-adv-x="1079" />
<glyph unicode="&#x2001;" horiz-adv-x="2159" />
<glyph unicode="&#x2002;" horiz-adv-x="1079" />
<glyph unicode="&#x2003;" horiz-adv-x="2159" />
<glyph unicode="&#x2004;" horiz-adv-x="719" />
<glyph unicode="&#x2005;" horiz-adv-x="539" />
<glyph unicode="&#x2006;" horiz-adv-x="359" />
<glyph unicode="&#x2007;" horiz-adv-x="359" />
<glyph unicode="&#x2008;" horiz-adv-x="269" />
<glyph unicode="&#x2009;" horiz-adv-x="431" />
<glyph unicode="&#x200a;" horiz-adv-x="119" />
<glyph unicode="&#x2010;" horiz-adv-x="1019" d="M51 795q0 45 19.5 70.5t56.5 32.5t68.5 7t82 -4t70.5 -4q33 0 139.5 4t139.5 4q23 0 67.5 -4t67.5 -4q10 0 30.5 4t30.5 4q64 1 64 -114q0 -12 -4 -39t-2 -41q0 -10 3 -31t3 -31q0 -43 -38 -80t-75 -37l-643 -2q-18 0 -31.5 6.5t-21.5 18.5t-13.5 23.5t-6.5 32t-2 31.5 t0 32.5t1 27.5q0 14 -3 45t-3 48z" />
<glyph unicode="&#x2011;" horiz-adv-x="1019" d="M51 795q0 45 19.5 70.5t56.5 32.5t68.5 7t82 -4t70.5 -4q33 0 139.5 4t139.5 4q23 0 67.5 -4t67.5 -4q10 0 30.5 4t30.5 4q64 1 64 -114q0 -12 -4 -39t-2 -41q0 -10 3 -31t3 -31q0 -43 -38 -80t-75 -37l-643 -2q-18 0 -31.5 6.5t-21.5 18.5t-13.5 23.5t-6.5 32t-2 31.5 t0 32.5t1 27.5q0 14 -3 45t-3 48z" />
<glyph unicode="&#x2012;" horiz-adv-x="1019" d="M51 795q0 45 19.5 70.5t56.5 32.5t68.5 7t82 -4t70.5 -4q33 0 139.5 4t139.5 4q23 0 67.5 -4t67.5 -4q10 0 30.5 4t30.5 4q64 1 64 -114q0 -12 -4 -39t-2 -41q0 -10 3 -31t3 -31q0 -43 -38 -80t-75 -37l-643 -2q-18 0 -31.5 6.5t-21.5 18.5t-13.5 23.5t-6.5 32t-2 31.5 t0 32.5t1 27.5q0 14 -3 45t-3 48z" />
<glyph unicode="&#x2013;" horiz-adv-x="1560" d="M35 803q0 45 31.5 70.5t93 32.5t115 7t135.5 -4t114 -4q53 0 229.5 4t231.5 4q37 0 133 -4t135 -4q16 0 51 4t52 4q104 1 104 -114q0 -14 -7 -41t-7 -39q0 -10 6 -30.5t6 -31.5q0 -43 -62.5 -79.5t-123.5 -36.5l-1102 -2q-41 0 -68.5 10t-38 34.5t-14.5 38t-3 50.5t1 39 q0 14 -6 44.5t-6 47.5z" />
<glyph unicode="&#x2014;" horiz-adv-x="1916" d="M45 803q0 33 22.5 55.5t64.5 33.5t91 16t113.5 5t119 -1t121 -4t105.5 -3q70 0 299 4t301 4q47 0 173 -4t175 -4q23 0 67 4t64 4q55 0 82 -11t30 -23.5t5 -38.5q0 -12 2 -59.5t2 -61.5q0 -10 -3 -71.5t-3 -72.5q0 -16 -12.5 -25t-37 -12t-48 -2t-62.5 3t-61 2l-1436 -2 q-45 0 -77.5 9t-48 21.5t-25 35t-10.5 34.5t0 39t1 33q0 14 -7 44.5t-7 47.5z" />
<glyph unicode="&#x2018;" horiz-adv-x="489" d="M10 1245q0 119 85 266.5t196 149.5q78 0 78 -53q0 -12 -16.5 -24.5t-36 -23t-36 -42t-16.5 -78.5q0 -16 4 -21.5t21 -5.5q90 0 146.5 -60.5t56.5 -150.5q0 -96 -72 -161.5t-168 -65.5q-113 0 -177.5 77.5t-64.5 192.5z" />
<glyph unicode="&#x2019;" horiz-adv-x="585" d="M10 1434q0 96 72 160.5t170 64.5q113 -2 176.5 -78.5t63.5 -191.5q0 -72 -36 -167.5t-103.5 -171t-141.5 -75.5q-78 0 -78 51q0 14 16.5 25.5t36 21.5t36 42t16.5 79q0 16 -5.5 21.5t-21.5 5.5q-88 0 -144.5 61t-56.5 152z" />
<glyph unicode="&#x201a;" horiz-adv-x="704" d="M72 510q-2 106 78.5 179t189.5 73q127 0 196.5 -88t69.5 -217q0 -131 -95 -294t-216 -163q-29 0 -57.5 12.5t-28.5 36.5q0 20 18.5 34.5t40 26t40 45t18.5 85.5q0 25 -6.5 28.5t-28.5 3.5q-96 0 -157.5 71t-61.5 167z" />
<glyph unicode="&#x201c;" horiz-adv-x="1071" d="M12 1247q0 72 36 167t103.5 171t141.5 76q76 0 78 -53q0 -14 -26 -27.5t-52.5 -46.5t-26.5 -92q0 -16 5 -21.5t22 -5.5q88 0 144.5 -61.5t56.5 -151.5q0 -94 -73 -159.5t-169 -65.5q-113 0 -176.5 78t-63.5 192zM553 1245q0 72 36 167t103.5 171t141.5 76q78 0 77 -53 q0 -16 -25.5 -29.5t-52 -44.5t-26.5 -90q0 -16 5 -22.5t19 -6.5q88 0 145.5 -61.5t57.5 -151.5l2 2q0 -94 -72.5 -161.5t-168.5 -67.5q-113 -2 -176.5 76.5t-65.5 195.5z" />
<glyph unicode="&#x201d;" horiz-adv-x="1124" d="M10 1432q0 96 72 160.5t170 64.5q113 -2 176.5 -79t63.5 -192q0 -72 -36 -167t-103.5 -170.5t-141.5 -75.5q-78 0 -78 53q0 16 25.5 29.5t52.5 45.5t27 91q0 16 -4.5 21.5t-20.5 5.5q-88 0 -145.5 61t-57.5 152zM549 1434q0 94 72.5 159.5t169.5 65.5q113 -2 176 -78.5 t63 -191.5v-3q0 -117 -85 -264t-193 -147q-78 0 -80 53q0 14 16.5 25.5t35.5 21.5t35.5 41t16.5 76q0 16 -5 22.5t-19 6.5q-88 0 -145.5 61t-57.5 152z" />
<glyph unicode="&#x201e;" horiz-adv-x="1134" d="M10 459q0 96 72 161.5t170 65.5q113 0 175 -78t65 -192q0 -119 -85 -266.5t-196 -149.5q-78 0 -78 53q0 16 25.5 29.5t52.5 45.5t27 91q0 16 -4.5 21.5t-20.5 7.5q-88 0 -145.5 61.5t-57.5 149.5zM549 461q0 94 72.5 160.5t169.5 66.5q113 0 176 -77.5t63 -194.5v-2 q0 -70 -36 -165t-102.5 -170t-139.5 -75q-80 0 -80 51q0 16 25.5 29.5t52 44.5t26.5 90q0 29 -24 31q-88 0 -145.5 61.5t-57.5 149.5z" />
<glyph unicode="&#x2022;" horiz-adv-x="772" d="M31 840q0 141 98 247.5t238 106.5q92 0 192 -58.5t137 -140.5q23 -49 27 -151h-2q0 -166 -92 -267.5t-254 -103.5q-145 0 -244.5 108.5t-99.5 258.5z" />
<glyph unicode="&#x2026;" horiz-adv-x="1910" d="M74 244q0 94 65.5 164.5t159.5 70.5q100 0 168 -67.5t68 -165.5q0 -111 -62.5 -178.5t-171.5 -67.5q-96 0 -161.5 72.5t-65.5 171.5zM709 244q0 94 65.5 164.5t159.5 70.5q100 0 167.5 -67.5t67.5 -165.5q0 -111 -62.5 -178.5t-170.5 -67.5q-96 0 -161.5 72.5 t-65.5 171.5zM1343 244q0 94 66 164.5t160 70.5q100 0 167.5 -67.5t67.5 -165.5q0 -111 -62.5 -178.5t-170.5 -67.5q-96 0 -162 72.5t-66 171.5z" />
<glyph unicode="&#x202f;" horiz-adv-x="431" />
<glyph unicode="&#x2039;" horiz-adv-x="565" d="M41 803q0 18 79 182t103 207q10 14 26.5 23.5t40 12.5t41 3t46.5 -1t37 -1q147 0 147 -39q0 -25 -74.5 -184.5t-74.5 -192.5t78.5 -191.5t78.5 -195.5q0 -39 -125 -39q-31 -2 -107.5 1t-86.5 9q-29 18 -119 195.5t-90 210.5z" />
<glyph unicode="&#x203a;" horiz-adv-x="663" d="M51 426q0 35 79 193.5t77 193.5q0 33 -75 191.5t-75 185.5q0 39 150 39q8 0 36.5 1t45 0t40 -4t40 -12.5t26.5 -23.5q23 -37 103 -203t80 -182q0 -33 -90.5 -211t-118.5 -195q-8 -4 -48 -7t-90.5 -4t-56.5 -1q-123 0 -123 39z" />
<glyph unicode="&#x205f;" horiz-adv-x="539" />
<glyph unicode="&#x20ac;" horiz-adv-x="1466" d="M82 620.5q0 8.5 4 27t4 20.5q18 66 45 73q29 4 139 15q16 -6 29 20v45q6 33 -24 33q-14 0 -44 -1t-47 -1q-86 -2 -99 10t3 68q2 8 21 63q8 25 24 27q28 6 139 10q10 6 13.5 10t5.5 9.5t4 9.5q10 240 173 415t402 177q41 0 119 -22.5t101 -22.5q4 0 23.5 13t49.5 13 q10 0 21.5 -1t25 -3t21.5 -2q16 0 40.5 1t37 0t27 -7t19.5 -25.5t5 -52.5q0 -20 -4 -61t-4 -62q0 -43 9 -131t9 -133q0 -25 -5 -41t-10 -25.5t-22.5 -13.5t-24.5 -5t-36 0t-39 1q-27 0 -79 3t-77 3q-27 0 -43 34t-24 74t-45 72.5t-103 32.5q-80 0 -125 -67.5t-55 -159.5 q-8 -33 27 -33h135q49 0 65.5 -15.5t12.5 -43.5q-4 -16 -14.5 -41t-14.5 -41q-2 -10 -7 -16.5t-14.5 -10.5t-17.5 -6t-21.5 -3t-21.5 -1h-24.5h-22.5q-4 0 -27.5 -1t-38.5 -1q-12 2 -19 -9.5t-7 -31.5v-35q0 -20 33 -24q45 -2 114 -2q74 0 89.5 -9.5t7.5 -52.5l-2 -2 q-20 -88 -41 -104q-12 -8 -89 -9h-83q-25 -6 -25 -36q4 -82 52 -142.5t130 -60.5q88 0 124 43t44 96t23 61q12 6 63 7q193 0 225 -11q31 -10 31 -88q0 -215 -134 -336.5t-351 -121.5q-270 2 -424 154.5t-164 418.5q-6 23 -47 23q-18 0 -57 -2.5t-58 -2.5q-23 0 -36 6.5 t-16 19.5t-3 21.5z" />
<glyph unicode="&#x2122;" horiz-adv-x="1646" d="M61 1458q0 121 13 158q25 25 88 24q516 0 526 -10q21 -14 21 -143v-23.5t-3.5 -17.5t-4.5 -13.5t-7 -8.5t-7 -5t-11 -3t-13.5 -1h-17.5h-18q-57 0 -123 -6q-18 -12 0 -76q0 -432 -17 -473q-12 -6 -38 -6h-140q-27 0 -39 8q-10 4 -10 72q0 57 5 170t5 170q0 109 -4 119 q-10 23 -78 24q-10 0 -47 2h-12q-25 0 -36 1t-21.5 10.5t-10.5 27.5zM793 905q0 647 24 711q6 20 45 20h172q10 0 39 -50t59.5 -115.5t36.5 -73.5l5 -2q4 0 13 23.5t19.5 53t12.5 35.5q8 18 15 43t12 37t14.5 25.5t27 18.5t45.5 5h2h2h2h2h2h3h4q137 0 161 -18 q29 -18 29 -115q0 -12 -2 -41v-73q0 -82 8 -248t8 -250q0 -20 -16 -31q-18 -4 -50 -6t-42 -4q-16 0 -35.5 -1t-26 -1t-18.5 1t-13 5t-8.5 10t-3 16.5t0 26t-0.5 35.5q0 111 -8 207q0 92 -12 92q-6 0 -70.5 -123t-93.5 -123q-18 0 -78.5 121t-74.5 121q-6 0 -7 -88 q-2 -31 1 -87t3 -77q0 -2 -6 -119q-8 -16 -34 -16h-125q-43 0 -43 55z" />
<glyph unicode="&#x25fc;" horiz-adv-x="1228" d="M0 0v1229h1229v-1229h-1229z" />
<glyph unicode="&#xfb01;" horiz-adv-x="1605" d="M6 1044q0 102 16.5 129t65.5 31t88 35q45 35 49 136.5t25 137.5q78 145 226.5 235.5t314.5 90.5q86 0 184 -25.5t187 -73.5t147.5 -128t58.5 -176h-2q0 -80 -67.5 -133.5t-149.5 -51.5q-82 0 -142.5 41t-60.5 117q0 20 10.5 44t10.5 28q0 35 -40 59.5t-77 24.5 q-111 0 -164 -76t-53 -191q0 -49 31.5 -67.5t68.5 -15t69 -16t32 -73.5q0 -12 -3.5 -39.5t-3.5 -42.5q0 -10 3.5 -39.5t4.5 -53t-3.5 -48t-17.5 -38t-38 -11.5l-94 6q-12 0 -22.5 -2t-15.5 -10t-9 -14.5t-5 -20.5t-1 -19.5v-22.5v-19q0 -4 -1 -51.5t-1 -84t3 -82t11 -75 t23 -35.5q29 -14 57.5 -18.5t39.5 -4.5t21.5 -12t13.5 -42t3 -93q0 -31 5 -87t5 -79q0 -72 -35 -76q-119 -12 -364 -12q-367 0 -379 55q-6 33 -8.5 69t0 91t2.5 72q0 63 12 96t30.5 36t40 7t39 11t29.5 49t12 118q0 217 -10 238q-14 29 -84.5 32t-77.5 29q-10 45 -10 141z M866 92q0 14 1 46t1 46q0 123 11 160q4 16 62 30.5t65 35.5q14 43 16 102t-2 141t-4 107q0 49 -19.5 63.5t-45 17.5t-33.5 21q-16 35 -17 221q0 102 19 119q31 25 196 25q186 -2 215 -10q47 -14 55 -84q2 -29 3 -166q0 -539 26 -570q16 -18 48 -23t50.5 -24t18.5 -76l-2 2 q0 -10 -2 -43.5t0 -52.5q-6 -33 -1 -57.5t1 -43t-2 -31.5t-8.5 -22.5t-16.5 -14.5t-29.5 -8t-45 -4t-64.5 -1l-399 -2q-29 0 -48.5 8t-30 18.5t-14.5 33t-4 36.5z" />
<glyph unicode="&#xfb02;" horiz-adv-x="1613" d="M8 1042q0 102 16.5 129t65.5 31t88 35q45 35 49 136.5t25 137.5q78 145 226.5 234.5t314.5 89.5q84 0 180 -17.5t185 -49t150.5 -87t69.5 -120.5q10 -98 11 -207q0 -926 26 -957q16 -18 48 -23t50.5 -24t18.5 -76l-2 2q0 -10 -2 -43.5t0 -52.5q-6 -33 -1 -57.5t1 -43 t-2 -31.5t-8.5 -22.5t-16.5 -14.5t-29.5 -8t-45 -4t-64.5 -1l-399 -2q-29 0 -48.5 8t-30 18.5t-14.5 33t-4 36.5t1 46t1 46q0 123 11 160q4 16 62 30.5t65 35.5q10 33 14 144.5t3 220t-4 231t-3 143.5q0 49 -19.5 63.5t-45 16.5t-33.5 20q-10 23 -13.5 98.5t-1.5 127.5 q0 33 -23.5 60.5t-52.5 25.5q-119 -6 -155.5 -73t-36.5 -192q0 -49 31.5 -67.5t68.5 -15t69 -16t32 -73.5q0 -12 -3.5 -39.5t-3.5 -42.5q0 -10 3.5 -39.5t4.5 -53t-3.5 -48t-17.5 -38t-38 -11.5l-94 6q-12 0 -22.5 -2t-15.5 -10t-9 -14.5t-5 -20.5t-1 -19.5v-22.5v-19 q0 -4 -1 -51.5t-1 -84t3 -82t11 -75t23 -35.5q29 -14 57.5 -18.5t39.5 -4.5t21.5 -12t13.5 -42t3 -93q0 -31 5 -87t5 -79q0 -72 -35 -76q-119 -12 -364 -12q-367 0 -379 55q-6 33 -8 69t0 91t2 72q0 63 12 96t30.5 36t40 7t39 11t29.5 49t12 118q0 217 -10 238 q-14 29 -84.5 31.5t-77.5 29.5q-10 45 -10 141z" />
</font>
</defs>
</svg>
